<svg width="1878" height="158" viewBox="0 0 1878 158" fill="none" xmlns="http://www.w3.org/2000/svg">
<g clip-path="url(#clip0_319_215)">
<path d="M127.987 56.232V116.253C127.987 122.811 122.46 128.13 115.743 127.946C109.259 127.766 104.183 122.364 104.183 115.989V56.232C104.183 55.275 104.974 54.494 105.952 54.494H110.786C111.763 54.494 112.554 55.271 112.554 56.232V116.115C112.554 117.911 114.038 119.607 115.866 119.72C117.92 119.845 119.629 118.241 119.629 116.253V56.232C119.629 55.275 120.42 54.494 121.397 54.494H126.231C127.209 54.494 128 55.271 128 56.232H127.987ZM21.037 98.355H1.768C0.79 98.355 0 99.132 0 100.093V104.881C0 105.838 0.79 106.615 1.769 106.615H7.304V137.262C7.304 138.223 8.094 139 9.073 139H13.741C14.714 139 15.509 138.223 15.509 137.262V106.615H21.045C22.018 106.615 22.814 105.838 22.814 104.877V100.089C22.814 99.129 22.023 98.351 21.044 98.351L21.036 98.355H21.037ZM101.93 74.985C101.93 86.545 92.36 95.945 80.6 95.945H80.32C68.56 95.945 58.99 86.541 58.99 74.985C58.99 63.43 68.56 54.025 80.32 54.025H80.6C92.364 54.025 101.93 63.43 101.93 74.985V74.985ZM93.716 74.985C93.716 67.883 87.832 62.097 80.6 62.097H80.31C73.083 62.097 67.2 67.879 67.2 74.985C67.2 82.092 73.08 87.869 80.31 87.869H80.6C87.828 87.869 93.716 82.092 93.716 74.985ZM126.219 130.774H105.947C104.97 130.774 104.179 131.551 104.179 132.512V137.262C104.179 138.223 104.97 139 105.947 139H126.219C127.196 139 127.987 138.223 127.987 137.262V132.512C127.987 131.551 127.196 130.774 126.219 130.774V130.774ZM1.769 51.62H11.394C12.368 51.62 13.163 50.843 13.163 49.882V45.132C13.163 44.175 12.372 43.394 11.394 43.394H8.367V12.738C8.367 11.777 7.577 11 6.598 11H1.768C0.792 11 0 11.777 0 12.738V49.886C0 50.843 0.79 51.624 1.769 51.624V51.62V51.62ZM112.546 19.222H126.219C127.196 19.222 127.987 18.445 127.987 17.484V12.738C127.987 11.777 127.196 11 126.219 11H105.947C104.97 11 104.179 11.777 104.179 12.738V49.886C104.179 50.843 104.97 51.624 105.947 51.624H126.219C127.196 51.624 127.987 50.847 127.987 49.886V45.136C127.987 44.179 127.196 43.398 126.219 43.398H112.546V35.43H125.564C126.542 35.43 127.333 34.653 127.333 33.692V28.942C127.333 27.985 126.542 27.204 125.564 27.204H112.546V19.222V19.222ZM15.514 49.41L26.959 12.257C27.0746 11.8906 27.3046 11.5708 27.6152 11.3446C27.9258 11.1184 28.3007 10.9976 28.685 11H34.769C35.1344 10.9976 35.4915 11.1089 35.7907 11.3186C36.0899 11.5282 36.3165 11.8258 36.439 12.17L49.51 49.3C49.914 50.449 49.046 51.648 47.805 51.648H42.74C42.3748 51.6498 42.0181 51.5381 41.719 51.3286C41.4198 51.119 41.1931 50.8219 41.07 50.478L39.305 45.465C39.1791 45.1145 38.9474 44.8118 38.642 44.5986C38.3365 44.3854 37.9724 44.2724 37.6 44.275H27.167C26.372 44.275 25.671 44.784 25.441 45.532L23.936 50.412C23.8222 50.7709 23.5966 51.0841 23.2922 51.3057C22.9878 51.5273 22.6205 51.6459 22.244 51.644H17.194C16.007 51.644 15.157 50.52 15.501 49.404L15.514 49.409V49.41ZM28.37 36.058H35.998L32.435 25.935C32.277 25.484 31.623 25.497 31.482 25.952L28.37 36.054V36.058ZM52.085 49.886V12.77C52.085 11.814 52.875 11.032 53.854 11.032H86.399C94.459 11.032 101.403 17.508 101.449 25.425C101.479 30.885 98.414 35.655 93.882 38.145L100.96 48.936C101.717 50.09 100.875 51.614 99.477 51.614H93.729C93.129 51.614 92.568 51.314 92.245 50.821L85.136 39.988H62.221C61.247 39.988 60.452 40.765 60.452 41.726V49.885C60.452 50.842 59.662 51.623 58.684 51.623H53.85C52.876 51.623 52.08 50.846 52.08 49.885H52.085V49.886ZM60.452 31.771H86.718C90.536 31.771 93.584 28.446 93.018 24.59C92.564 21.482 89.694 19.26 86.493 19.26H60.453V31.77L60.452 31.771ZM0 93.743V56.236C0 55.276 0.79 54.498 1.769 54.498H35.934C47.642 54.498 57.127 64.028 56.774 75.608C56.439 86.754 46.834 95.477 35.487 95.477H1.77C0.79 95.477 0 94.7 0 93.739V93.743V93.743ZM8.201 87.418H35.623C42.473 87.418 48.314 82.196 48.573 75.466C48.846 68.393 43.072 62.556 35.933 62.556H8.202V87.418H8.201ZM33.897 106.598H99.647C100.625 106.598 101.415 105.821 101.415 104.86V100.11C101.415 99.15 100.625 98.372 99.647 98.372H27.303C26.33 98.372 25.535 99.149 25.535 100.11V137.258C25.535 138.219 26.325 138.996 27.303 138.996H99.647C100.625 138.996 101.415 138.219 101.415 137.258V132.508C101.415 131.547 100.625 130.77 99.647 130.77H33.9V122.803H99.017C99.994 122.803 100.785 122.026 100.785 121.065V116.315C100.785 115.354 99.995 114.577 99.016 114.577H33.903V106.585L33.898 106.598H33.897Z" fill="#A1B1A7"/>
</g>
<line y1="157.5" x2="1878" y2="157.5" stroke="white"/>
<rect x="160" y="14" width="1134" height="64" rx="32" fill="#A1B1A7"/>
<path d="M206.051 52.0797C208.33 48.6511 209.351 44.4002 208.909 40.1775C208.467 35.9548 206.595 32.0716 203.668 29.305C200.741 26.5383 196.974 25.0921 193.122 25.2558C189.269 25.4195 185.614 27.1809 182.889 30.1877C180.163 33.1945 178.568 37.2249 178.423 41.4725C178.277 45.7202 179.591 49.8719 182.103 53.097C184.615 56.3221 188.138 58.3828 191.969 58.8668C195.799 59.3508 199.654 58.2224 202.763 55.7073H202.76C202.831 55.8111 202.906 55.9098 202.991 56.0058L212.053 65.996C212.494 66.4829 213.093 66.7566 213.717 66.7568C214.341 66.757 214.94 66.4838 215.382 65.9973C215.824 65.5107 216.072 64.8507 216.072 64.1623C216.072 63.474 215.825 62.8137 215.383 62.3268L206.321 52.3366C206.237 52.2427 206.147 52.156 206.051 52.0771V52.0797ZM206.658 42.1051C206.658 43.9793 206.323 45.8351 205.673 47.5666C205.022 49.2982 204.069 50.8715 202.866 52.1967C201.664 53.522 200.237 54.5732 198.667 55.2905C197.096 56.0077 195.413 56.3768 193.713 56.3768C192.013 56.3768 190.329 56.0077 188.759 55.2905C187.188 54.5732 185.761 53.522 184.559 52.1967C183.357 50.8715 182.403 49.2982 181.753 47.5666C181.102 45.8351 180.767 43.9793 180.767 42.1051C180.767 38.32 182.131 34.6899 184.559 32.0134C186.987 29.337 190.279 27.8333 193.713 27.8333C197.146 27.8333 200.439 29.337 202.866 32.0134C205.294 34.6899 206.658 38.32 206.658 42.1051V42.1051Z" fill="white"/>
<path d="M256.398 47.1524C256.398 49.9137 255.9 52.3001 254.902 54.3115C253.905 56.3228 252.537 57.874 250.799 58.9649C249.06 60.0558 247.074 60.6012 244.841 60.6012C242.608 60.6012 240.623 60.0558 238.884 58.9649C237.145 57.874 235.777 56.3228 234.78 54.3115C233.783 52.3001 233.284 49.9137 233.284 47.1524C233.284 44.391 233.783 42.0046 234.78 39.9933C235.777 37.9819 237.145 36.4308 238.884 35.3399C240.623 34.249 242.608 33.7035 244.841 33.7035C247.074 33.7035 249.06 34.249 250.799 35.3399C252.537 36.4308 253.905 37.9819 254.902 39.9933C255.9 42.0046 256.398 44.391 256.398 47.1524ZM253.33 47.1524C253.33 44.8853 252.951 42.972 252.192 41.4123C251.442 39.8527 250.424 38.6723 249.137 37.8711C247.858 37.07 246.426 36.6694 244.841 36.6694C243.256 36.6694 241.82 37.07 240.533 37.8711C239.255 38.6723 238.236 39.8527 237.478 41.4123C236.728 42.972 236.353 44.8853 236.353 47.1524C236.353 49.4194 236.728 51.3328 237.478 52.8924C238.236 54.4521 239.255 55.6325 240.533 56.4336C241.82 57.2348 243.256 57.6353 244.841 57.6353C246.426 57.6353 247.858 57.2348 249.137 56.4336C250.424 55.6325 251.442 54.4521 252.192 52.8924C252.951 51.3328 253.33 49.4194 253.33 47.1524ZM284.843 67.6069V57.2262H284.587C284.365 57.5842 284.05 58.0359 283.641 58.5814C283.232 59.1183 282.648 59.5998 281.89 60.026C281.131 60.4436 280.121 60.6524 278.86 60.6524C277.223 60.6524 275.779 60.239 274.526 59.4123C273.273 58.5771 272.293 57.401 271.586 55.8839C270.878 54.3583 270.525 52.5558 270.525 50.4762C270.525 48.4137 270.878 46.624 271.586 45.1069C272.293 43.5899 273.277 42.418 274.539 41.5913C275.8 40.7646 277.257 40.3512 278.911 40.3512C280.189 40.3512 281.199 40.5643 281.941 40.9904C282.691 41.4081 283.262 41.8853 283.654 42.4223C284.054 42.9507 284.365 43.3853 284.587 43.7262H284.945V40.6069H287.86V67.6069H284.843ZM279.269 57.9421C280.479 57.9421 281.502 57.6268 282.337 56.9961C283.172 56.3569 283.807 55.4748 284.242 54.3498C284.676 53.2163 284.894 51.9081 284.894 50.4251C284.894 48.9592 284.681 47.6765 284.255 46.5771C283.828 45.4691 283.198 44.6083 282.363 43.9947C281.527 43.3725 280.496 43.0615 279.269 43.0615C277.99 43.0615 276.925 43.3896 276.073 44.0458C275.229 44.6936 274.594 45.5757 274.168 46.6921C273.75 47.8001 273.542 49.0444 273.542 50.4251C273.542 51.8228 273.755 53.0927 274.181 54.2348C274.615 55.3683 275.255 56.2717 276.098 56.945C276.951 57.6098 278.007 57.9421 279.269 57.9421ZM305.757 52.2149V40.6069H308.775V60.2433H305.757V56.9194H305.553C305.093 57.9166 304.377 58.7646 303.405 59.4635C302.434 60.1538 301.206 60.499 299.723 60.499C298.496 60.499 297.405 60.2305 296.451 59.6936C295.496 59.1481 294.746 58.3299 294.201 57.239C293.655 56.1396 293.382 54.7546 293.382 53.0842V40.6069H296.4V52.8796C296.4 54.3115 296.8 55.4535 297.601 56.3058C298.411 57.1581 299.442 57.5842 300.695 57.5842C301.445 57.5842 302.208 57.3924 302.983 57.0089C303.767 56.6254 304.424 56.0373 304.952 55.2447C305.489 54.4521 305.757 53.4421 305.757 52.2149ZM322.533 60.6524C320.641 60.6524 319.009 60.2348 317.637 59.3995C316.273 58.5558 315.221 57.3796 314.479 55.8711C313.746 54.3541 313.38 52.5899 313.38 50.5785C313.38 48.5671 313.746 46.7944 314.479 45.2603C315.221 43.7177 316.252 42.516 317.573 41.6552C318.903 40.7859 320.454 40.3512 322.227 40.3512C323.249 40.3512 324.259 40.5217 325.256 40.8626C326.254 41.2035 327.161 41.7575 327.979 42.5245C328.798 43.2831 329.45 44.2887 329.935 45.5416C330.421 46.7944 330.664 48.337 330.664 50.1694V51.4478H315.528V48.8399H327.596C327.596 47.7319 327.374 46.7433 326.931 45.874C326.496 45.0046 325.874 44.3186 325.065 43.8157C324.263 43.3129 323.317 43.0615 322.227 43.0615C321.025 43.0615 319.985 43.3598 319.107 43.9564C318.238 44.5444 317.569 45.3115 317.1 46.2575C316.631 47.2035 316.397 48.2177 316.397 49.3001V51.0387C316.397 52.5217 316.653 53.7788 317.164 54.81C317.684 55.8328 318.404 56.6126 319.325 57.1495C320.245 57.6779 321.315 57.9421 322.533 57.9421C323.326 57.9421 324.042 57.8314 324.681 57.6098C325.329 57.3796 325.887 57.0387 326.356 56.587C326.825 56.1268 327.187 55.5558 327.442 54.874L330.357 55.6921C330.05 56.6808 329.535 57.5501 328.81 58.3001C328.086 59.0416 327.191 59.6211 326.126 60.0387C325.06 60.4478 323.863 60.6524 322.533 60.6524ZM345.379 67.6069V40.6069H348.293V43.7262H348.651C348.873 43.3853 349.18 42.9507 349.572 42.4223C349.972 41.8853 350.543 41.4081 351.285 40.9904C352.035 40.5643 353.049 40.3512 354.327 40.3512C355.981 40.3512 357.438 40.7646 358.7 41.5913C359.961 42.418 360.945 43.5899 361.653 45.1069C362.36 46.624 362.714 48.4137 362.714 50.4762C362.714 52.5558 362.36 54.3583 361.653 55.8839C360.945 57.401 359.965 58.5771 358.712 59.4123C357.46 60.239 356.015 60.6524 354.379 60.6524C353.117 60.6524 352.107 60.4436 351.349 60.026C350.59 59.5998 350.006 59.1183 349.597 58.5814C349.188 58.0359 348.873 57.5842 348.651 57.2262H348.396V67.6069H345.379ZM348.344 50.4251C348.344 51.9081 348.562 53.2163 348.996 54.3498C349.431 55.4748 350.066 56.3569 350.901 56.9961C351.737 57.6268 352.759 57.9421 353.969 57.9421C355.231 57.9421 356.283 57.6098 357.127 56.945C357.979 56.2717 358.619 55.3683 359.045 54.2348C359.479 53.0927 359.697 51.8228 359.697 50.4251C359.697 49.0444 359.484 47.8001 359.058 46.6921C358.64 45.5757 358.005 44.6936 357.153 44.0458C356.309 43.3896 355.248 43.0615 353.969 43.0615C352.742 43.0615 351.711 43.3725 350.876 43.9947C350.04 44.6083 349.41 45.4691 348.984 46.5771C348.558 47.6765 348.344 48.9592 348.344 50.4251ZM367.316 60.2433V40.6069H370.231V43.5728H370.435C370.793 42.6012 371.441 41.8129 372.379 41.2078C373.316 40.6027 374.373 40.3001 375.549 40.3001C375.771 40.3001 376.048 40.3044 376.38 40.3129C376.712 40.3214 376.964 40.3342 377.134 40.3512V43.4194C377.032 43.3939 376.798 43.3555 376.431 43.3044C376.073 43.2447 375.694 43.2149 375.293 43.2149C374.339 43.2149 373.487 43.4152 372.737 43.8157C371.995 44.2078 371.407 44.7532 370.972 45.4521C370.546 46.1424 370.333 46.9308 370.333 47.8171V60.2433H367.316ZM388.09 60.6524C386.317 60.6524 384.762 60.2305 383.424 59.3868C382.094 58.543 381.055 57.3626 380.305 55.8456C379.563 54.3285 379.192 52.5558 379.192 50.5274C379.192 48.4819 379.563 46.6964 380.305 45.1708C381.055 43.6453 382.094 42.4606 383.424 41.6169C384.762 40.7731 386.317 40.3512 388.09 40.3512C389.863 40.3512 391.414 40.7731 392.744 41.6169C394.082 42.4606 395.121 43.6453 395.863 45.1708C396.613 46.6964 396.988 48.4819 396.988 50.5274C396.988 52.5558 396.613 54.3285 395.863 55.8456C395.121 57.3626 394.082 58.543 392.744 59.3868C391.414 60.2305 389.863 60.6524 388.09 60.6524ZM388.09 57.9421C389.437 57.9421 390.545 57.597 391.414 56.9066C392.283 56.2163 392.927 55.3086 393.344 54.1836C393.762 53.0586 393.971 51.8399 393.971 50.5274C393.971 49.2149 393.762 47.9919 393.344 46.8583C392.927 45.7248 392.283 44.8086 391.414 44.1098C390.545 43.4109 389.437 43.0615 388.09 43.0615C386.744 43.0615 385.636 43.4109 384.766 44.1098C383.897 44.8086 383.254 45.7248 382.836 46.8583C382.418 47.9919 382.21 49.2149 382.21 50.5274C382.21 51.8399 382.418 53.0586 382.836 54.1836C383.254 55.3086 383.897 56.2163 384.766 56.9066C385.636 57.597 386.744 57.9421 388.09 57.9421ZM409.571 60.6524C407.73 60.6524 406.145 60.2177 404.815 59.3484C403.485 58.4791 402.463 57.2816 401.747 55.7561C401.031 54.2305 400.673 52.4876 400.673 50.5274C400.673 48.5331 401.039 46.7731 401.772 45.2475C402.514 43.7135 403.545 42.516 404.866 41.6552C406.196 40.7859 407.747 40.3512 409.52 40.3512C410.9 40.3512 412.145 40.6069 413.252 41.1183C414.36 41.6296 415.268 42.3456 415.975 43.266C416.683 44.1865 417.122 45.2603 417.292 46.4876H414.275C414.045 45.5927 413.534 44.8001 412.741 44.1098C411.957 43.4109 410.9 43.0615 409.571 43.0615C408.395 43.0615 407.363 43.3683 406.477 43.9819C405.599 44.587 404.913 45.4436 404.419 46.5515C403.933 47.651 403.69 48.9421 403.69 50.4251C403.69 51.9421 403.929 53.2632 404.406 54.3882C404.892 55.5132 405.574 56.3868 406.451 57.0089C407.338 57.6311 408.377 57.9421 409.571 57.9421C410.355 57.9421 411.066 57.8058 411.706 57.5331C412.345 57.2603 412.886 56.8683 413.329 56.3569C413.772 55.8456 414.088 55.2319 414.275 54.516H417.292C417.122 55.6751 416.7 56.7191 416.027 57.6481C415.362 58.5686 414.48 59.3015 413.38 59.847C412.289 60.3839 411.02 60.6524 409.571 60.6524ZM434.078 52.2149V40.6069H437.095V60.2433H434.078V56.9194H433.873C433.413 57.9166 432.697 58.7646 431.725 59.4635C430.754 60.1538 429.527 60.499 428.044 60.499C426.816 60.499 425.725 60.2305 424.771 59.6936C423.816 59.1481 423.066 58.3299 422.521 57.239C421.975 56.1396 421.703 54.7546 421.703 53.0842V40.6069H424.72V52.8796C424.72 54.3115 425.12 55.4535 425.922 56.3058C426.731 57.1581 427.762 57.5842 429.015 57.5842C429.765 57.5842 430.528 57.3924 431.304 57.0089C432.088 56.6254 432.744 56.0373 433.272 55.2447C433.809 54.4521 434.078 53.4421 434.078 52.2149ZM442.621 60.2433V40.6069H445.536V43.5728H445.74C446.098 42.6012 446.746 41.8129 447.683 41.2078C448.621 40.6027 449.678 40.3001 450.854 40.3001C451.075 40.3001 451.352 40.3044 451.685 40.3129C452.017 40.3214 452.268 40.3342 452.439 40.3512V43.4194C452.337 43.3939 452.102 43.3555 451.736 43.3044C451.378 43.2447 450.999 43.2149 450.598 43.2149C449.643 43.2149 448.791 43.4152 448.041 43.8157C447.3 44.2078 446.712 44.7532 446.277 45.4521C445.851 46.1424 445.638 46.9308 445.638 47.8171V60.2433H442.621ZM461.794 60.7035C460.549 60.7035 459.42 60.4691 458.406 60.0004C457.392 59.5231 456.586 58.837 455.99 57.9421C455.393 57.0387 455.095 55.9478 455.095 54.6694C455.095 53.5444 455.316 52.6325 455.76 51.9336C456.203 51.2262 456.795 50.6723 457.537 50.2717C458.278 49.8711 459.096 49.5728 459.991 49.3768C460.895 49.1723 461.802 49.0103 462.714 48.891C463.907 48.7376 464.875 48.6225 465.616 48.5458C466.366 48.4606 466.912 48.32 467.252 48.124C467.602 47.9279 467.777 47.587 467.777 47.1012V46.999C467.777 45.7376 467.431 44.7575 466.741 44.0586C466.059 43.3598 465.024 43.0103 463.635 43.0103C462.194 43.0103 461.065 43.3257 460.247 43.9564C459.429 44.587 458.853 45.2603 458.521 45.9762L455.657 44.9535C456.169 43.7603 456.85 42.8314 457.703 42.1666C458.564 41.4933 459.501 41.0245 460.515 40.7603C461.538 40.4876 462.544 40.3512 463.532 40.3512C464.163 40.3512 464.887 40.4279 465.706 40.5814C466.532 40.7262 467.329 41.0288 468.096 41.489C468.872 41.9493 469.515 42.6439 470.027 43.5728C470.538 44.5018 470.794 45.7461 470.794 47.3058V60.2433H467.777V57.5842H467.623C467.419 58.0103 467.078 58.4663 466.6 58.9521C466.123 59.4379 465.488 59.8512 464.696 60.1921C463.903 60.5331 462.936 60.7035 461.794 60.7035ZM462.254 57.9933C463.447 57.9933 464.453 57.7589 465.271 57.2902C466.098 56.8214 466.72 56.2163 467.137 55.4748C467.564 54.7333 467.777 53.9535 467.777 53.1353V50.374C467.649 50.5274 467.368 50.668 466.933 50.7958C466.507 50.9152 466.012 51.0217 465.45 51.1154C464.896 51.2007 464.355 51.2774 463.826 51.3456C463.306 51.4052 462.885 51.4564 462.561 51.499C461.777 51.6012 461.044 51.7674 460.362 51.9975C459.689 52.2191 459.143 52.5558 458.725 53.0075C458.316 53.4507 458.112 54.0558 458.112 54.8228C458.112 55.8711 458.5 56.6637 459.275 57.2007C460.059 57.7291 461.052 57.9933 462.254 57.9933ZM480.238 52.8796V52.7262C480.255 51.0984 480.425 49.8029 480.749 48.8399C481.073 47.8768 481.533 47.097 482.13 46.5004C482.727 45.9038 483.442 45.3541 484.278 44.8512C484.781 44.5444 485.232 44.1822 485.633 43.7646C486.033 43.3385 486.349 42.8484 486.579 42.2944C486.817 41.7404 486.937 41.1268 486.937 40.4535C486.937 39.6183 486.741 38.8939 486.349 38.2802C485.957 37.6666 485.433 37.1936 484.776 36.8612C484.12 36.5288 483.391 36.3626 482.59 36.3626C481.891 36.3626 481.218 36.5075 480.57 36.7973C479.923 37.087 479.381 37.543 478.947 38.1652C478.512 38.7873 478.261 39.6012 478.192 40.6069H474.971C475.039 39.1581 475.414 37.918 476.096 36.8868C476.786 35.8555 477.694 35.0671 478.819 34.5217C479.952 33.9762 481.21 33.7035 482.59 33.7035C484.09 33.7035 485.394 34.0018 486.502 34.5984C487.619 35.195 488.479 36.0132 489.085 37.0529C489.698 38.0927 490.005 39.2774 490.005 40.6069C490.005 41.5444 489.86 42.3924 489.57 43.151C489.289 43.9095 488.88 44.587 488.343 45.1836C487.815 45.7802 487.175 46.3086 486.425 46.7689C485.675 47.2376 485.075 47.7319 484.623 48.2518C484.171 48.7632 483.843 49.3725 483.638 50.0799C483.434 50.7873 483.323 51.6694 483.306 52.7262V52.8796H480.238ZM481.874 60.4478C481.244 60.4478 480.702 60.222 480.251 59.7703C479.799 59.3186 479.573 58.7774 479.573 58.1467C479.573 57.516 479.799 56.9748 480.251 56.5231C480.702 56.0714 481.244 55.8456 481.874 55.8456C482.505 55.8456 483.046 56.0714 483.498 56.5231C483.95 56.9748 484.175 57.516 484.175 58.1467C484.175 58.5643 484.069 58.9478 483.856 59.2973C483.651 59.6467 483.374 59.9279 483.025 60.141C482.684 60.3456 482.3 60.4478 481.874 60.4478Z" fill="white"/>
<path d="M1730 27.385L1726.95 24.0635C1719.8 16.2666 1706.68 18.9572 1701.95 28.7596C1699.73 33.3701 1699.23 40.0267 1703.28 48.5222C1707.19 56.7021 1715.33 66.5 1730 77.1722C1744.67 66.5 1752.8 56.7021 1756.72 48.5222C1760.78 40.0222 1760.28 33.3701 1758.05 28.7596C1753.32 18.9572 1740.2 16.2621 1733.05 24.059L1730 27.385ZM1730 82.6029C1664.83 36.9396 1709.94 1.2994 1729.25 20.1515C1729.51 20.3994 1729.76 20.6563 1730 20.9222C1730.24 20.6566 1730.49 20.401 1730.75 20.1561C1750.06 1.29039 1795.17 36.935 1730 82.6029Z" fill="#A1B1A7"/>
<path d="M1837.89 13.225C1840.53 13.225 1843.07 14.3379 1844.93 16.3188C1846.8 18.2996 1847.85 20.9863 1847.85 23.7876V25.9002H1827.93V23.7876C1827.93 20.9863 1828.98 18.2996 1830.85 16.3188C1832.72 14.3379 1835.25 13.225 1837.89 13.225ZM1851.84 25.9002V23.7876C1851.84 19.8657 1850.37 16.1044 1847.75 13.3312C1845.14 10.558 1841.59 9 1837.89 9C1834.19 9 1830.65 10.558 1828.03 13.3312C1825.41 16.1044 1823.95 19.8657 1823.95 23.7876V25.9002H1810V68.1506C1810 70.3917 1810.84 72.541 1812.33 74.1257C1813.83 75.7104 1815.86 76.6007 1817.97 76.6007H1857.81C1859.93 76.6007 1861.95 75.7104 1863.45 74.1257C1864.94 72.541 1865.78 70.3917 1865.78 68.1506V25.9002H1851.84ZM1813.98 30.1252H1861.8V68.1506C1861.8 69.2711 1861.38 70.3458 1860.63 71.1381C1859.88 71.9305 1858.87 72.3756 1857.81 72.3756H1817.97C1816.91 72.3756 1815.9 71.9305 1815.15 71.1381C1814.4 70.3458 1813.98 69.2711 1813.98 68.1506V30.1252Z" fill="#A1B1A7"/>
<rect x="317" y="100" width="108" height="43" rx="21.5" fill="#A1B1A7"/>
<path d="M359.03 118H356.916C356.791 117.392 356.573 116.858 356.26 116.398C355.953 115.938 355.578 115.551 355.135 115.239C354.698 114.92 354.212 114.682 353.678 114.523C353.144 114.364 352.587 114.284 352.007 114.284C350.95 114.284 349.993 114.551 349.135 115.085C348.283 115.619 347.604 116.406 347.098 117.446C346.598 118.486 346.348 119.761 346.348 121.273C346.348 122.784 346.598 124.06 347.098 125.099C347.604 126.139 348.283 126.926 349.135 127.46C349.993 127.994 350.95 128.261 352.007 128.261C352.587 128.261 353.144 128.182 353.678 128.023C354.212 127.864 354.698 127.628 355.135 127.315C355.578 126.997 355.953 126.608 356.26 126.148C356.573 125.682 356.791 125.148 356.916 124.545H359.03C358.871 125.437 358.581 126.236 358.161 126.94C357.74 127.645 357.217 128.244 356.592 128.739C355.967 129.227 355.266 129.599 354.487 129.855C353.715 130.111 352.888 130.239 352.007 130.239C350.519 130.239 349.195 129.875 348.036 129.148C346.876 128.42 345.965 127.386 345.3 126.045C344.635 124.705 344.303 123.114 344.303 121.273C344.303 119.432 344.635 117.841 345.3 116.5C345.965 115.159 346.876 114.125 348.036 113.398C349.195 112.67 350.519 112.307 352.007 112.307C352.888 112.307 353.715 112.435 354.487 112.69C355.266 112.946 355.967 113.321 356.592 113.815C357.217 114.304 357.74 114.901 358.161 115.605C358.581 116.304 358.871 117.102 359.03 118ZM366.025 130.307C365.195 130.307 364.443 130.151 363.766 129.838C363.09 129.52 362.553 129.062 362.156 128.466C361.758 127.864 361.559 127.136 361.559 126.284C361.559 125.534 361.707 124.926 362.002 124.46C362.298 123.989 362.693 123.619 363.187 123.352C363.681 123.085 364.227 122.886 364.823 122.756C365.426 122.619 366.031 122.511 366.639 122.432C367.434 122.33 368.079 122.253 368.573 122.202C369.073 122.145 369.437 122.051 369.664 121.92C369.897 121.79 370.014 121.562 370.014 121.239V121.17C370.014 120.33 369.783 119.676 369.323 119.21C368.869 118.744 368.178 118.511 367.252 118.511C366.292 118.511 365.539 118.722 364.994 119.142C364.448 119.562 364.065 120.011 363.843 120.489L361.934 119.807C362.275 119.011 362.729 118.392 363.298 117.949C363.872 117.5 364.497 117.187 365.173 117.011C365.854 116.83 366.525 116.739 367.184 116.739C367.604 116.739 368.087 116.79 368.633 116.892C369.184 116.989 369.715 117.19 370.227 117.497C370.744 117.804 371.173 118.267 371.514 118.886C371.854 119.506 372.025 120.335 372.025 121.375V130H370.014V128.227H369.911C369.775 128.511 369.548 128.815 369.229 129.139C368.911 129.463 368.488 129.739 367.96 129.966C367.431 130.193 366.786 130.307 366.025 130.307ZM366.332 128.5C367.127 128.5 367.798 128.344 368.343 128.031C368.894 127.719 369.309 127.315 369.587 126.821C369.872 126.327 370.014 125.807 370.014 125.261V123.42C369.928 123.523 369.741 123.616 369.451 123.702C369.167 123.781 368.837 123.852 368.462 123.915C368.093 123.972 367.732 124.023 367.38 124.068C367.033 124.108 366.752 124.142 366.536 124.17C366.014 124.239 365.525 124.349 365.07 124.503C364.622 124.651 364.258 124.875 363.979 125.176C363.707 125.472 363.57 125.875 363.57 126.386C363.57 127.085 363.829 127.614 364.346 127.972C364.869 128.324 365.531 128.5 366.332 128.5ZM384.969 119.841L383.162 120.352C383.048 120.051 382.881 119.759 382.659 119.474C382.443 119.185 382.148 118.946 381.773 118.759C381.398 118.571 380.918 118.477 380.332 118.477C379.531 118.477 378.864 118.662 378.33 119.031C377.801 119.395 377.537 119.858 377.537 120.42C377.537 120.92 377.719 121.315 378.082 121.605C378.446 121.895 379.014 122.136 379.787 122.33L381.73 122.807C382.901 123.091 383.773 123.526 384.347 124.111C384.921 124.69 385.207 125.437 385.207 126.352C385.207 127.102 384.992 127.773 384.56 128.364C384.134 128.955 383.537 129.42 382.77 129.761C382.003 130.102 381.111 130.273 380.094 130.273C378.759 130.273 377.653 129.983 376.778 129.403C375.903 128.824 375.35 127.977 375.117 126.864L377.026 126.386C377.207 127.091 377.551 127.619 378.057 127.972C378.568 128.324 379.236 128.5 380.06 128.5C380.997 128.5 381.742 128.301 382.293 127.903C382.85 127.5 383.128 127.017 383.128 126.455C383.128 126 382.969 125.619 382.651 125.312C382.332 125 381.844 124.767 381.185 124.614L379.003 124.102C377.804 123.818 376.923 123.378 376.361 122.781C375.804 122.179 375.526 121.426 375.526 120.523C375.526 119.784 375.733 119.131 376.148 118.562C376.568 117.994 377.139 117.548 377.861 117.224C378.588 116.901 379.412 116.739 380.332 116.739C381.628 116.739 382.645 117.023 383.384 117.591C384.128 118.159 384.656 118.909 384.969 119.841ZM392.087 130.307C391.258 130.307 390.505 130.151 389.829 129.838C389.153 129.52 388.616 129.062 388.218 128.466C387.82 127.864 387.622 127.136 387.622 126.284C387.622 125.534 387.769 124.926 388.065 124.46C388.36 123.989 388.755 123.619 389.249 123.352C389.744 123.085 390.289 122.886 390.886 122.756C391.488 122.619 392.093 122.511 392.701 122.432C393.497 122.33 394.141 122.253 394.636 122.202C395.136 122.145 395.499 122.051 395.727 121.92C395.96 121.79 396.076 121.562 396.076 121.239V121.17C396.076 120.33 395.846 119.676 395.386 119.21C394.931 118.744 394.241 118.511 393.315 118.511C392.354 118.511 391.602 118.722 391.056 119.142C390.511 119.562 390.127 120.011 389.906 120.489L387.997 119.807C388.337 119.011 388.792 118.392 389.36 117.949C389.934 117.5 390.559 117.187 391.235 117.011C391.917 116.83 392.587 116.739 393.247 116.739C393.667 116.739 394.15 116.79 394.695 116.892C395.247 116.989 395.778 117.19 396.289 117.497C396.806 117.804 397.235 118.267 397.576 118.886C397.917 119.506 398.087 120.335 398.087 121.375V130H396.076V128.227H395.974C395.837 128.511 395.61 128.815 395.292 129.139C394.974 129.463 394.551 129.739 394.022 129.966C393.494 130.193 392.849 130.307 392.087 130.307ZM392.394 128.5C393.19 128.5 393.86 128.344 394.406 128.031C394.957 127.719 395.372 127.315 395.65 126.821C395.934 126.327 396.076 125.807 396.076 125.261V123.42C395.991 123.523 395.803 123.616 395.514 123.702C395.229 123.781 394.9 123.852 394.525 123.915C394.156 123.972 393.795 124.023 393.443 124.068C393.096 124.108 392.815 124.142 392.599 124.17C392.076 124.239 391.587 124.349 391.133 124.503C390.684 124.651 390.32 124.875 390.042 125.176C389.769 125.472 389.633 125.875 389.633 126.386C389.633 127.085 389.891 127.614 390.408 127.972C390.931 128.324 391.593 128.5 392.394 128.5Z" fill="white"/>
<rect x="442" y="100" width="117" height="43" rx="21.5" fill="#A1B1A7"/>
<path d="M470.99 112.545H473.512L479.444 127.034H479.649L485.581 112.545H488.103V130H486.126V116.739H485.956L480.501 130H478.592L473.137 116.739H472.967V130H470.99V112.545ZM497.387 130.273C496.205 130.273 495.168 129.991 494.276 129.429C493.39 128.866 492.696 128.08 492.196 127.068C491.702 126.057 491.455 124.875 491.455 123.523C491.455 122.159 491.702 120.969 492.196 119.952C492.696 118.935 493.39 118.145 494.276 117.582C495.168 117.02 496.205 116.739 497.387 116.739C498.569 116.739 499.603 117.02 500.489 117.582C501.381 118.145 502.074 118.935 502.569 119.952C503.069 120.969 503.319 122.159 503.319 123.523C503.319 124.875 503.069 126.057 502.569 127.068C502.074 128.08 501.381 128.866 500.489 129.429C499.603 129.991 498.569 130.273 497.387 130.273ZM497.387 128.466C498.284 128.466 499.023 128.236 499.603 127.776C500.182 127.315 500.611 126.71 500.89 125.96C501.168 125.21 501.307 124.398 501.307 123.523C501.307 122.648 501.168 121.832 500.89 121.077C500.611 120.321 500.182 119.71 499.603 119.244C499.023 118.778 498.284 118.545 497.387 118.545C496.489 118.545 495.75 118.778 495.171 119.244C494.591 119.71 494.162 120.321 493.884 121.077C493.606 121.832 493.466 122.648 493.466 123.523C493.466 124.398 493.606 125.21 493.884 125.96C494.162 126.71 494.591 127.315 495.171 127.776C495.75 128.236 496.489 128.466 497.387 128.466ZM511.332 130.273C510.241 130.273 509.278 129.997 508.443 129.446C507.608 128.889 506.954 128.105 506.483 127.094C506.011 126.077 505.775 124.875 505.775 123.489C505.775 122.114 506.011 120.92 506.483 119.909C506.954 118.898 507.61 118.116 508.451 117.565C509.292 117.014 510.264 116.739 511.366 116.739C512.218 116.739 512.892 116.881 513.386 117.165C513.886 117.443 514.267 117.761 514.528 118.119C514.795 118.472 515.003 118.761 515.15 118.989H515.321V112.545H517.332V130H515.389V127.989H515.15C515.003 128.227 514.792 128.528 514.52 128.892C514.247 129.25 513.858 129.571 513.352 129.855C512.846 130.134 512.173 130.273 511.332 130.273ZM511.605 128.466C512.412 128.466 513.093 128.256 513.65 127.835C514.207 127.409 514.63 126.821 514.92 126.071C515.21 125.315 515.355 124.443 515.355 123.455C515.355 122.477 515.213 121.622 514.929 120.889C514.645 120.151 514.224 119.577 513.667 119.168C513.11 118.753 512.423 118.545 511.605 118.545C510.753 118.545 510.042 118.764 509.474 119.202C508.912 119.634 508.488 120.222 508.204 120.966C507.926 121.705 507.787 122.534 507.787 123.455C507.787 124.386 507.929 125.233 508.213 125.994C508.503 126.75 508.929 127.352 509.491 127.801C510.059 128.244 510.764 128.466 511.605 128.466ZM525.147 130.307C524.318 130.307 523.565 130.151 522.889 129.838C522.213 129.52 521.676 129.062 521.278 128.466C520.88 127.864 520.682 127.136 520.682 126.284C520.682 125.534 520.829 124.926 521.125 124.46C521.42 123.989 521.815 123.619 522.309 123.352C522.804 123.085 523.349 122.886 523.946 122.756C524.548 122.619 525.153 122.511 525.761 122.432C526.557 122.33 527.201 122.253 527.696 122.202C528.196 122.145 528.559 122.051 528.787 121.92C529.02 121.79 529.136 121.562 529.136 121.239V121.17C529.136 120.33 528.906 119.676 528.446 119.21C527.991 118.744 527.301 118.511 526.375 118.511C525.414 118.511 524.662 118.722 524.116 119.142C523.571 119.562 523.187 120.011 522.966 120.489L521.057 119.807C521.397 119.011 521.852 118.392 522.42 117.949C522.994 117.5 523.619 117.187 524.295 117.011C524.977 116.83 525.647 116.739 526.307 116.739C526.727 116.739 527.21 116.79 527.755 116.892C528.307 116.989 528.838 117.19 529.349 117.497C529.866 117.804 530.295 118.267 530.636 118.886C530.977 119.506 531.147 120.335 531.147 121.375V130H529.136V128.227H529.034C528.897 128.511 528.67 128.815 528.352 129.139C528.034 129.463 527.61 129.739 527.082 129.966C526.554 130.193 525.909 130.307 525.147 130.307ZM525.454 128.5C526.25 128.5 526.92 128.344 527.466 128.031C528.017 127.719 528.432 127.315 528.71 126.821C528.994 126.327 529.136 125.807 529.136 125.261V123.42C529.051 123.523 528.863 123.616 528.574 123.702C528.289 123.781 527.96 123.852 527.585 123.915C527.216 123.972 526.855 124.023 526.503 124.068C526.156 124.108 525.875 124.142 525.659 124.17C525.136 124.239 524.647 124.349 524.193 124.503C523.744 124.651 523.38 124.875 523.102 125.176C522.829 125.472 522.693 125.875 522.693 126.386C522.693 127.085 522.951 127.614 523.468 127.972C523.991 128.324 524.653 128.5 525.454 128.5Z" fill="white"/>
<rect x="576" y="100" width="128" height="43" rx="21.5" fill="#A1B1A7"/>
<path d="M622.503 121.273C622.503 123.114 622.171 124.705 621.506 126.045C620.841 127.386 619.929 128.42 618.77 129.148C617.611 129.875 616.287 130.239 614.799 130.239C613.31 130.239 611.986 129.875 610.827 129.148C609.668 128.42 608.756 127.386 608.091 126.045C607.426 124.705 607.094 123.114 607.094 121.273C607.094 119.432 607.426 117.841 608.091 116.5C608.756 115.159 609.668 114.125 610.827 113.398C611.986 112.67 613.31 112.307 614.799 112.307C616.287 112.307 617.611 112.67 618.77 113.398C619.929 114.125 620.841 115.159 621.506 116.5C622.171 117.841 622.503 119.432 622.503 121.273ZM620.458 121.273C620.458 119.761 620.205 118.486 619.699 117.446C619.199 116.406 618.52 115.619 617.662 115.085C616.81 114.551 615.855 114.284 614.799 114.284C613.742 114.284 612.784 114.551 611.926 115.085C611.074 115.619 610.395 116.406 609.889 117.446C609.389 118.486 609.139 119.761 609.139 121.273C609.139 122.784 609.389 124.06 609.889 125.099C610.395 126.139 611.074 126.926 611.926 127.46C612.784 127.994 613.742 128.261 614.799 128.261C615.855 128.261 616.81 127.994 617.662 127.46C618.52 126.926 619.199 126.139 619.699 125.099C620.205 124.06 620.458 122.784 620.458 121.273ZM634.034 124.648V116.909H636.046V130H634.034V127.784H633.898C633.591 128.449 633.114 129.014 632.466 129.48C631.818 129.94 631 130.17 630.012 130.17C629.193 130.17 628.466 129.991 627.83 129.634C627.193 129.27 626.693 128.724 626.33 127.997C625.966 127.264 625.784 126.341 625.784 125.227V116.909H627.796V125.091C627.796 126.045 628.063 126.807 628.597 127.375C629.137 127.943 629.824 128.227 630.659 128.227C631.159 128.227 631.668 128.099 632.185 127.844C632.708 127.588 633.145 127.196 633.497 126.668C633.855 126.139 634.034 125.466 634.034 124.648ZM645.423 116.909V118.614H638.639V116.909H645.423ZM640.616 113.773H642.627V126.25C642.627 126.818 642.71 127.244 642.875 127.528C643.045 127.807 643.261 127.994 643.522 128.091C643.789 128.182 644.071 128.227 644.366 128.227C644.588 128.227 644.769 128.216 644.911 128.193C645.054 128.165 645.167 128.142 645.252 128.125L645.661 129.932C645.525 129.983 645.335 130.034 645.09 130.085C644.846 130.142 644.536 130.17 644.161 130.17C643.593 130.17 643.036 130.048 642.491 129.804C641.951 129.56 641.502 129.188 641.144 128.688C640.792 128.188 640.616 127.557 640.616 126.795V113.773ZM650.741 112.545V130H648.73V112.545H650.741ZM659.914 130.273C658.652 130.273 657.564 129.994 656.649 129.438C655.74 128.875 655.039 128.091 654.544 127.085C654.056 126.074 653.811 124.898 653.811 123.557C653.811 122.216 654.056 121.034 654.544 120.011C655.039 118.983 655.726 118.182 656.607 117.608C657.493 117.028 658.527 116.739 659.709 116.739C660.391 116.739 661.064 116.852 661.729 117.08C662.394 117.307 662.999 117.676 663.544 118.188C664.09 118.693 664.524 119.364 664.848 120.199C665.172 121.034 665.334 122.062 665.334 123.284V124.136H655.243V122.398H663.289C663.289 121.659 663.141 121 662.845 120.42C662.556 119.841 662.141 119.384 661.601 119.048C661.067 118.713 660.436 118.545 659.709 118.545C658.908 118.545 658.215 118.744 657.63 119.142C657.05 119.534 656.604 120.045 656.291 120.676C655.979 121.307 655.823 121.983 655.823 122.705V123.864C655.823 124.852 655.993 125.69 656.334 126.378C656.681 127.06 657.161 127.58 657.774 127.938C658.388 128.29 659.101 128.466 659.914 128.466C660.442 128.466 660.919 128.392 661.345 128.244C661.777 128.091 662.149 127.864 662.462 127.562C662.774 127.256 663.016 126.875 663.186 126.42L665.13 126.966C664.925 127.625 664.581 128.205 664.098 128.705C663.615 129.199 663.019 129.585 662.308 129.864C661.598 130.136 660.8 130.273 659.914 130.273ZM674.087 116.909V118.614H667.303V116.909H674.087ZM669.28 113.773H671.291V126.25C671.291 126.818 671.374 127.244 671.539 127.528C671.709 127.807 671.925 127.994 672.186 128.091C672.453 128.182 672.735 128.227 673.03 128.227C673.252 128.227 673.433 128.216 673.576 128.193C673.718 128.165 673.831 128.142 673.916 128.125L674.326 129.932C674.189 129.983 673.999 130.034 673.755 130.085C673.51 130.142 673.201 130.17 672.826 130.17C672.257 130.17 671.701 130.048 671.155 129.804C670.615 129.56 670.166 129.188 669.808 128.688C669.456 128.188 669.28 127.557 669.28 126.795V113.773Z" fill="white"/>
<rect x="721" y="100" width="151" height="43" rx="21.5" fill="#A1B1A7"/>
<path d="M757.727 112.545H760.25L766.181 127.034H766.386L772.318 112.545H774.84V130H772.863V116.739H772.693L767.238 130H765.329L759.875 116.739H759.704V130H757.727V112.545ZM782.658 130.307C781.828 130.307 781.076 130.151 780.399 129.838C779.723 129.52 779.186 129.062 778.789 128.466C778.391 127.864 778.192 127.136 778.192 126.284C778.192 125.534 778.34 124.926 778.635 124.46C778.931 123.989 779.326 123.619 779.82 123.352C780.314 123.085 780.86 122.886 781.456 122.756C782.058 122.619 782.664 122.511 783.272 122.432C784.067 122.33 784.712 122.253 785.206 122.202C785.706 122.145 786.07 122.051 786.297 121.92C786.53 121.79 786.647 121.562 786.647 121.239V121.17C786.647 120.33 786.416 119.676 785.956 119.21C785.502 118.744 784.811 118.511 783.885 118.511C782.925 118.511 782.172 118.722 781.627 119.142C781.081 119.562 780.698 120.011 780.476 120.489L778.567 119.807C778.908 119.011 779.362 118.392 779.931 117.949C780.505 117.5 781.13 117.187 781.806 117.011C782.487 116.83 783.158 116.739 783.817 116.739C784.237 116.739 784.72 116.79 785.266 116.892C785.817 116.989 786.348 117.19 786.86 117.497C787.377 117.804 787.806 118.267 788.147 118.886C788.487 119.506 788.658 120.335 788.658 121.375V130H786.647V128.227H786.544C786.408 128.511 786.181 128.815 785.862 129.139C785.544 129.463 785.121 129.739 784.593 129.966C784.064 130.193 783.419 130.307 782.658 130.307ZM782.965 128.5C783.76 128.5 784.431 128.344 784.976 128.031C785.527 127.719 785.942 127.315 786.22 126.821C786.505 126.327 786.647 125.807 786.647 125.261V123.42C786.561 123.523 786.374 123.616 786.084 123.702C785.8 123.781 785.47 123.852 785.095 123.915C784.726 123.972 784.365 124.023 784.013 124.068C783.666 124.108 783.385 124.142 783.169 124.17C782.647 124.239 782.158 124.349 781.703 124.503C781.255 124.651 780.891 124.875 780.612 125.176C780.34 125.472 780.203 125.875 780.203 126.386C780.203 127.085 780.462 127.614 780.979 127.972C781.502 128.324 782.164 128.5 782.965 128.5ZM792.329 130V116.909H794.272V118.886H794.409C794.647 118.239 795.079 117.713 795.704 117.31C796.329 116.906 797.034 116.705 797.818 116.705C797.965 116.705 798.15 116.707 798.372 116.713C798.593 116.719 798.761 116.727 798.875 116.739V118.784C798.806 118.767 798.65 118.741 798.406 118.707C798.167 118.668 797.914 118.648 797.647 118.648C797.011 118.648 796.443 118.781 795.943 119.048C795.448 119.31 795.056 119.673 794.767 120.139C794.483 120.599 794.34 121.125 794.34 121.716V130H792.329ZM806.179 130.273C804.951 130.273 803.894 129.983 803.008 129.403C802.122 128.824 801.44 128.026 800.963 127.009C800.485 125.991 800.247 124.83 800.247 123.523C800.247 122.193 800.491 121.02 800.98 120.003C801.474 118.98 802.161 118.182 803.042 117.608C803.929 117.028 804.963 116.739 806.144 116.739C807.065 116.739 807.894 116.909 808.633 117.25C809.372 117.591 809.977 118.068 810.448 118.682C810.92 119.295 811.213 120.011 811.326 120.83H809.315C809.161 120.233 808.821 119.705 808.292 119.244C807.769 118.778 807.065 118.545 806.179 118.545C805.394 118.545 804.707 118.75 804.116 119.159C803.531 119.562 803.073 120.134 802.744 120.872C802.42 121.605 802.258 122.466 802.258 123.455C802.258 124.466 802.417 125.347 802.735 126.097C803.059 126.847 803.514 127.429 804.099 127.844C804.69 128.259 805.383 128.466 806.179 128.466C806.701 128.466 807.176 128.375 807.602 128.193C808.028 128.011 808.389 127.75 808.684 127.409C808.98 127.068 809.19 126.659 809.315 126.182H811.326C811.213 126.955 810.931 127.651 810.483 128.27C810.039 128.884 809.451 129.372 808.718 129.736C807.991 130.094 807.144 130.273 806.179 130.273ZM818.119 130.307C817.289 130.307 816.536 130.151 815.86 129.838C815.184 129.52 814.647 129.062 814.25 128.466C813.852 127.864 813.653 127.136 813.653 126.284C813.653 125.534 813.801 124.926 814.096 124.46C814.392 123.989 814.786 123.619 815.281 123.352C815.775 123.085 816.321 122.886 816.917 122.756C817.519 122.619 818.125 122.511 818.733 122.432C819.528 122.33 820.173 122.253 820.667 122.202C821.167 122.145 821.531 122.051 821.758 121.92C821.991 121.79 822.108 121.562 822.108 121.239V121.17C822.108 120.33 821.877 119.676 821.417 119.21C820.963 118.744 820.272 118.511 819.346 118.511C818.386 118.511 817.633 118.722 817.088 119.142C816.542 119.562 816.159 120.011 815.937 120.489L814.028 119.807C814.369 119.011 814.823 118.392 815.392 117.949C815.965 117.5 816.59 117.187 817.267 117.011C817.948 116.83 818.619 116.739 819.278 116.739C819.698 116.739 820.181 116.79 820.727 116.892C821.278 116.989 821.809 117.19 822.321 117.497C822.838 117.804 823.267 118.267 823.608 118.886C823.948 119.506 824.119 120.335 824.119 121.375V130H822.108V128.227H822.005C821.869 128.511 821.642 128.815 821.323 129.139C821.005 129.463 820.582 129.739 820.054 129.966C819.525 130.193 818.88 130.307 818.119 130.307ZM818.426 128.5C819.221 128.5 819.892 128.344 820.437 128.031C820.988 127.719 821.403 127.315 821.681 126.821C821.965 126.327 822.108 125.807 822.108 125.261V123.42C822.022 123.523 821.835 123.616 821.545 123.702C821.261 123.781 820.931 123.852 820.556 123.915C820.187 123.972 819.826 124.023 819.474 124.068C819.127 124.108 818.846 124.142 818.63 124.17C818.108 124.239 817.619 124.349 817.164 124.503C816.715 124.651 816.352 124.875 816.073 125.176C815.801 125.472 815.664 125.875 815.664 126.386C815.664 127.085 815.923 127.614 816.44 127.972C816.963 128.324 817.625 128.5 818.426 128.5ZM837.063 119.841L835.256 120.352C835.142 120.051 834.975 119.759 834.753 119.474C834.537 119.185 834.242 118.946 833.867 118.759C833.492 118.571 833.012 118.477 832.426 118.477C831.625 118.477 830.958 118.662 830.424 119.031C829.895 119.395 829.631 119.858 829.631 120.42C829.631 120.92 829.813 121.315 830.176 121.605C830.54 121.895 831.108 122.136 831.881 122.33L833.824 122.807C834.995 123.091 835.867 123.526 836.441 124.111C837.014 124.69 837.301 125.437 837.301 126.352C837.301 127.102 837.085 127.773 836.654 128.364C836.228 128.955 835.631 129.42 834.864 129.761C834.097 130.102 833.205 130.273 832.188 130.273C830.853 130.273 829.747 129.983 828.872 129.403C827.997 128.824 827.443 127.977 827.21 126.864L829.12 126.386C829.301 127.091 829.645 127.619 830.151 127.972C830.662 128.324 831.33 128.5 832.154 128.5C833.091 128.5 833.835 128.301 834.387 127.903C834.943 127.5 835.222 127.017 835.222 126.455C835.222 126 835.063 125.619 834.745 125.312C834.426 125 833.938 124.767 833.279 124.614L831.097 124.102C829.898 123.818 829.017 123.378 828.455 122.781C827.898 122.179 827.62 121.426 827.62 120.523C827.62 119.784 827.827 119.131 828.242 118.562C828.662 117.994 829.233 117.548 829.955 117.224C830.682 116.901 831.506 116.739 832.426 116.739C833.722 116.739 834.739 117.023 835.478 117.591C836.222 118.159 836.75 118.909 837.063 119.841Z" fill="white"/>
<rect x="889" y="100" width="221" height="43" rx="21.5" fill="#A1B1A7"/>
<path d="M917.009 116.909C916.907 116.045 916.492 115.375 915.765 114.898C915.037 114.42 914.145 114.182 913.089 114.182C912.316 114.182 911.64 114.307 911.06 114.557C910.486 114.807 910.037 115.151 909.714 115.588C909.395 116.026 909.236 116.523 909.236 117.08C909.236 117.545 909.347 117.946 909.569 118.281C909.796 118.611 910.086 118.886 910.438 119.108C910.79 119.324 911.16 119.503 911.546 119.645C911.932 119.781 912.287 119.892 912.611 119.977L914.384 120.455C914.839 120.574 915.344 120.739 915.901 120.949C916.464 121.159 917.001 121.446 917.512 121.81C918.029 122.168 918.455 122.628 918.79 123.19C919.126 123.753 919.293 124.443 919.293 125.261C919.293 126.205 919.046 127.057 918.552 127.818C918.063 128.58 917.347 129.185 916.404 129.634C915.466 130.082 914.327 130.307 912.986 130.307C911.736 130.307 910.654 130.105 909.739 129.702C908.83 129.298 908.114 128.736 907.591 128.014C907.074 127.293 906.782 126.455 906.714 125.5H908.895C908.952 126.159 909.174 126.705 909.56 127.136C909.952 127.562 910.447 127.881 911.043 128.091C911.645 128.295 912.293 128.398 912.986 128.398C913.793 128.398 914.518 128.267 915.16 128.006C915.802 127.739 916.31 127.369 916.685 126.898C917.06 126.42 917.248 125.864 917.248 125.227C917.248 124.648 917.086 124.176 916.762 123.812C916.438 123.449 916.012 123.153 915.484 122.926C914.955 122.699 914.384 122.5 913.77 122.33L911.623 121.716C910.259 121.324 909.18 120.764 908.384 120.037C907.589 119.31 907.191 118.358 907.191 117.182C907.191 116.205 907.455 115.352 907.984 114.625C908.518 113.892 909.234 113.324 910.131 112.92C911.035 112.511 912.043 112.307 913.157 112.307C914.282 112.307 915.282 112.509 916.157 112.912C917.032 113.31 917.725 113.855 918.236 114.548C918.753 115.241 919.026 116.028 919.055 116.909H917.009ZM930.746 124.648V116.909H932.757V130H930.746V127.784H930.609C930.302 128.449 929.825 129.014 929.177 129.48C928.53 129.94 927.711 130.17 926.723 130.17C925.905 130.17 925.177 129.991 924.541 129.634C923.905 129.27 923.405 128.724 923.041 127.997C922.677 127.264 922.496 126.341 922.496 125.227V116.909H924.507V125.091C924.507 126.045 924.774 126.807 925.308 127.375C925.848 127.943 926.535 128.227 927.371 128.227C927.871 128.227 928.379 128.099 928.896 127.844C929.419 127.588 929.856 127.196 930.209 126.668C930.567 126.139 930.746 125.466 930.746 124.648ZM945.714 119.841L943.907 120.352C943.793 120.051 943.626 119.759 943.404 119.474C943.188 119.185 942.893 118.946 942.518 118.759C942.143 118.571 941.662 118.477 941.077 118.477C940.276 118.477 939.609 118.662 939.074 119.031C938.546 119.395 938.282 119.858 938.282 120.42C938.282 120.92 938.464 121.315 938.827 121.605C939.191 121.895 939.759 122.136 940.532 122.33L942.475 122.807C943.645 123.091 944.518 123.526 945.091 124.111C945.665 124.69 945.952 125.437 945.952 126.352C945.952 127.102 945.736 127.773 945.305 128.364C944.878 128.955 944.282 129.42 943.515 129.761C942.748 130.102 941.856 130.273 940.839 130.273C939.503 130.273 938.398 129.983 937.523 129.403C936.648 128.824 936.094 127.977 935.861 126.864L937.77 126.386C937.952 127.091 938.296 127.619 938.802 127.972C939.313 128.324 939.981 128.5 940.805 128.5C941.742 128.5 942.486 128.301 943.037 127.903C943.594 127.5 943.873 127.017 943.873 126.455C943.873 126 943.714 125.619 943.395 125.312C943.077 125 942.589 124.767 941.93 124.614L939.748 124.102C938.549 123.818 937.668 123.378 937.106 122.781C936.549 122.179 936.27 121.426 936.27 120.523C936.27 119.784 936.478 119.131 936.893 118.562C937.313 117.994 937.884 117.548 938.606 117.224C939.333 116.901 940.157 116.739 941.077 116.739C942.373 116.739 943.39 117.023 944.128 117.591C944.873 118.159 945.401 118.909 945.714 119.841ZM954.673 116.909V118.614H947.889V116.909H954.673ZM949.866 113.773H951.878V126.25C951.878 126.818 951.96 127.244 952.125 127.528C952.295 127.807 952.511 127.994 952.773 128.091C953.04 128.182 953.321 128.227 953.616 128.227C953.838 128.227 954.02 128.216 954.162 128.193C954.304 128.165 954.417 128.142 954.503 128.125L954.912 129.932C954.775 129.983 954.585 130.034 954.341 130.085C954.096 130.142 953.787 130.17 953.412 130.17C952.844 130.17 952.287 130.048 951.741 129.804C951.202 129.56 950.753 129.188 950.395 128.688C950.042 128.188 949.866 127.557 949.866 126.795V113.773ZM963.047 130.273C961.785 130.273 960.697 129.994 959.783 129.438C958.873 128.875 958.172 128.091 957.677 127.085C957.189 126.074 956.944 124.898 956.944 123.557C956.944 122.216 957.189 121.034 957.677 120.011C958.172 118.983 958.859 118.182 959.74 117.608C960.626 117.028 961.66 116.739 962.842 116.739C963.524 116.739 964.197 116.852 964.862 117.08C965.527 117.307 966.132 117.676 966.677 118.188C967.223 118.693 967.658 119.364 967.981 120.199C968.305 121.034 968.467 122.062 968.467 123.284V124.136H958.376V122.398H966.422C966.422 121.659 966.274 121 965.979 120.42C965.689 119.841 965.274 119.384 964.734 119.048C964.2 118.713 963.569 118.545 962.842 118.545C962.041 118.545 961.348 118.744 960.763 119.142C960.183 119.534 959.737 120.045 959.425 120.676C959.112 121.307 958.956 121.983 958.956 122.705V123.864C958.956 124.852 959.126 125.69 959.467 126.378C959.814 127.06 960.294 127.58 960.908 127.938C961.521 128.29 962.234 128.466 963.047 128.466C963.575 128.466 964.052 128.392 964.479 128.244C964.91 128.091 965.283 127.864 965.595 127.562C965.908 127.256 966.149 126.875 966.319 126.42L968.263 126.966C968.058 127.625 967.714 128.205 967.231 128.705C966.748 129.199 966.152 129.585 965.442 129.864C964.731 130.136 963.933 130.273 963.047 130.273ZM973.538 122.125V130H971.527V116.909H973.47V118.955H973.64C973.947 118.29 974.413 117.756 975.038 117.352C975.663 116.943 976.47 116.739 977.459 116.739C978.345 116.739 979.121 116.92 979.785 117.284C980.45 117.642 980.967 118.188 981.336 118.92C981.706 119.648 981.89 120.568 981.89 121.682V130H979.879V121.818C979.879 120.79 979.612 119.989 979.078 119.415C978.544 118.835 977.811 118.545 976.879 118.545C976.237 118.545 975.663 118.685 975.158 118.963C974.658 119.241 974.263 119.648 973.973 120.182C973.683 120.716 973.538 121.364 973.538 122.125ZM991.259 116.909V118.614H984.475V116.909H991.259ZM986.452 113.773H988.464V126.25C988.464 126.818 988.546 127.244 988.711 127.528C988.881 127.807 989.097 127.994 989.359 128.091C989.626 128.182 989.907 128.227 990.202 128.227C990.424 128.227 990.606 128.216 990.748 128.193C990.89 128.165 991.003 128.142 991.089 128.125L991.498 129.932C991.361 129.983 991.171 130.034 990.927 130.085C990.682 130.142 990.373 130.17 989.998 130.17C989.43 130.17 988.873 130.048 988.327 129.804C987.787 129.56 987.339 129.188 986.981 128.688C986.628 128.188 986.452 127.557 986.452 126.795V113.773ZM998.137 130.307C997.307 130.307 996.555 130.151 995.878 129.838C995.202 129.52 994.665 129.062 994.268 128.466C993.87 127.864 993.671 127.136 993.671 126.284C993.671 125.534 993.819 124.926 994.114 124.46C994.41 123.989 994.805 123.619 995.299 123.352C995.793 123.085 996.339 122.886 996.935 122.756C997.537 122.619 998.143 122.511 998.751 122.432C999.546 122.33 1000.19 122.253 1000.69 122.202C1001.19 122.145 1001.55 122.051 1001.78 121.92C1002.01 121.79 1002.13 121.562 1002.13 121.239V121.17C1002.13 120.33 1001.9 119.676 1001.44 119.21C1000.98 118.744 1000.29 118.511 999.364 118.511C998.404 118.511 997.651 118.722 997.106 119.142C996.56 119.562 996.177 120.011 995.955 120.489L994.046 119.807C994.387 119.011 994.841 118.392 995.41 117.949C995.984 117.5 996.609 117.187 997.285 117.011C997.966 116.83 998.637 116.739 999.296 116.739C999.716 116.739 1000.2 116.79 1000.74 116.892C1001.3 116.989 1001.83 117.19 1002.34 117.497C1002.86 117.804 1003.28 118.267 1003.63 118.886C1003.97 119.506 1004.14 120.335 1004.14 121.375V130H1002.13V128.227H1002.02C1001.89 128.511 1001.66 128.815 1001.34 129.139C1001.02 129.463 1000.6 129.739 1000.07 129.966C999.543 130.193 998.898 130.307 998.137 130.307ZM998.444 128.5C999.239 128.5 999.91 128.344 1000.46 128.031C1001.01 127.719 1001.42 127.315 1001.7 126.821C1001.98 126.327 1002.13 125.807 1002.13 125.261V123.42C1002.04 123.523 1001.85 123.616 1001.56 123.702C1001.28 123.781 1000.95 123.852 1000.57 123.915C1000.21 123.972 999.844 124.023 999.492 124.068C999.145 124.108 998.864 124.142 998.648 124.17C998.126 124.239 997.637 124.349 997.182 124.503C996.734 124.651 996.37 124.875 996.091 125.176C995.819 125.472 995.682 125.875 995.682 126.386C995.682 127.085 995.941 127.614 996.458 127.972C996.981 128.324 997.643 128.5 998.444 128.5ZM1008.08 130V112.545H1010.09V118.989H1010.26C1010.41 118.761 1010.61 118.472 1010.88 118.119C1011.14 117.761 1011.52 117.443 1012.02 117.165C1012.52 116.881 1013.19 116.739 1014.05 116.739C1015.15 116.739 1016.12 117.014 1016.96 117.565C1017.8 118.116 1018.46 118.898 1018.93 119.909C1019.4 120.92 1019.64 122.114 1019.64 123.489C1019.64 124.875 1019.4 126.077 1018.93 127.094C1018.46 128.105 1017.81 128.889 1016.97 129.446C1016.13 129.997 1015.17 130.273 1014.08 130.273C1013.24 130.273 1012.57 130.134 1012.06 129.855C1011.56 129.571 1011.17 129.25 1010.89 128.892C1010.62 128.528 1010.41 128.227 1010.26 127.989H1010.02V130H1008.08ZM1010.06 123.455C1010.06 124.443 1010.2 125.315 1010.49 126.071C1010.78 126.821 1011.21 127.409 1011.76 127.835C1012.32 128.256 1013 128.466 1013.81 128.466C1014.65 128.466 1015.35 128.244 1015.91 127.801C1016.48 127.352 1016.91 126.75 1017.19 125.994C1017.48 125.233 1017.63 124.386 1017.63 123.455C1017.63 122.534 1017.48 121.705 1017.2 120.966C1016.92 120.222 1016.5 119.634 1015.93 119.202C1015.37 118.764 1014.66 118.545 1013.81 118.545C1012.99 118.545 1012.3 118.753 1011.75 119.168C1011.19 119.577 1010.77 120.151 1010.48 120.889C1010.2 121.622 1010.06 122.477 1010.06 123.455ZM1022.71 130V116.909H1024.73V130H1022.71ZM1023.74 114.727C1023.35 114.727 1023.01 114.594 1022.72 114.327C1022.44 114.06 1022.31 113.739 1022.31 113.364C1022.31 112.989 1022.44 112.668 1022.72 112.401C1023.01 112.134 1023.35 112 1023.74 112C1024.13 112 1024.46 112.134 1024.74 112.401C1025.03 112.668 1025.17 112.989 1025.17 113.364C1025.17 113.739 1025.03 114.06 1024.74 114.327C1024.46 114.594 1024.13 114.727 1023.74 114.727ZM1030.42 112.545V130H1028.41V112.545H1030.42ZM1034.1 130V116.909H1036.12V130H1034.1ZM1035.13 114.727C1034.74 114.727 1034.4 114.594 1034.11 114.327C1033.84 114.06 1033.7 113.739 1033.7 113.364C1033.7 112.989 1033.84 112.668 1034.11 112.401C1034.4 112.134 1034.74 112 1035.13 112C1035.52 112 1035.85 112.134 1036.13 112.401C1036.42 112.668 1036.56 112.989 1036.56 113.364C1036.56 113.739 1036.42 114.06 1036.13 114.327C1035.85 114.594 1035.52 114.727 1035.13 114.727ZM1044.74 130.273C1043.65 130.273 1042.69 129.997 1041.85 129.446C1041.02 128.889 1040.37 128.105 1039.89 127.094C1039.42 126.077 1039.19 124.875 1039.19 123.489C1039.19 122.114 1039.42 120.92 1039.89 119.909C1040.37 118.898 1041.02 118.116 1041.86 117.565C1042.7 117.014 1043.68 116.739 1044.78 116.739C1045.63 116.739 1046.3 116.881 1046.8 117.165C1047.3 117.443 1047.68 117.761 1047.94 118.119C1048.21 118.472 1048.41 118.761 1048.56 118.989H1048.73V112.545H1050.74V130H1048.8V127.989H1048.56C1048.41 128.227 1048.2 128.528 1047.93 128.892C1047.66 129.25 1047.27 129.571 1046.76 129.855C1046.26 130.134 1045.58 130.273 1044.74 130.273ZM1045.02 128.466C1045.82 128.466 1046.5 128.256 1047.06 127.835C1047.62 127.409 1048.04 126.821 1048.33 126.071C1048.62 125.315 1048.77 124.443 1048.77 123.455C1048.77 122.477 1048.62 121.622 1048.34 120.889C1048.06 120.151 1047.64 119.577 1047.08 119.168C1046.52 118.753 1045.83 118.545 1045.02 118.545C1044.16 118.545 1043.45 118.764 1042.89 119.202C1042.32 119.634 1041.9 120.222 1041.62 120.966C1041.34 121.705 1041.2 122.534 1041.2 123.455C1041.2 124.386 1041.34 125.233 1041.62 125.994C1041.91 126.75 1042.34 127.352 1042.9 127.801C1043.47 128.244 1044.18 128.466 1045.02 128.466ZM1058.56 130.307C1057.73 130.307 1056.98 130.151 1056.3 129.838C1055.62 129.52 1055.09 129.062 1054.69 128.466C1054.29 127.864 1054.09 127.136 1054.09 126.284C1054.09 125.534 1054.24 124.926 1054.54 124.46C1054.83 123.989 1055.23 123.619 1055.72 123.352C1056.22 123.085 1056.76 122.886 1057.36 122.756C1057.96 122.619 1058.56 122.511 1059.17 122.432C1059.97 122.33 1060.61 122.253 1061.11 122.202C1061.61 122.145 1061.97 122.051 1062.2 121.92C1062.43 121.79 1062.55 121.562 1062.55 121.239V121.17C1062.55 120.33 1062.32 119.676 1061.86 119.21C1061.4 118.744 1060.71 118.511 1059.79 118.511C1058.83 118.511 1058.07 118.722 1057.53 119.142C1056.98 119.562 1056.6 120.011 1056.38 120.489L1054.47 119.807C1054.81 119.011 1055.26 118.392 1055.83 117.949C1056.41 117.5 1057.03 117.187 1057.71 117.011C1058.39 116.83 1059.06 116.739 1059.72 116.739C1060.14 116.739 1060.62 116.79 1061.17 116.892C1061.72 116.989 1062.25 117.19 1062.76 117.497C1063.28 117.804 1063.71 118.267 1064.05 118.886C1064.39 119.506 1064.56 120.335 1064.56 121.375V130H1062.55V128.227H1062.45C1062.31 128.511 1062.08 128.815 1061.76 129.139C1061.45 129.463 1061.02 129.739 1060.49 129.966C1059.97 130.193 1059.32 130.307 1058.56 130.307ZM1058.87 128.5C1059.66 128.5 1060.33 128.344 1060.88 128.031C1061.43 127.719 1061.84 127.315 1062.12 126.821C1062.41 126.327 1062.55 125.807 1062.55 125.261V123.42C1062.46 123.523 1062.27 123.616 1061.98 123.702C1061.7 123.781 1061.37 123.852 1061 123.915C1060.63 123.972 1060.27 124.023 1059.91 124.068C1059.57 124.108 1059.29 124.142 1059.07 124.17C1058.55 124.239 1058.06 124.349 1057.6 124.503C1057.16 124.651 1056.79 124.875 1056.51 125.176C1056.24 125.472 1056.1 125.875 1056.1 126.386C1056.1 127.085 1056.36 127.614 1056.88 127.972C1057.4 128.324 1058.06 128.5 1058.87 128.5ZM1073.17 130.273C1072.08 130.273 1071.12 129.997 1070.28 129.446C1069.45 128.889 1068.8 128.105 1068.32 127.094C1067.85 126.077 1067.62 124.875 1067.62 123.489C1067.62 122.114 1067.85 120.92 1068.32 119.909C1068.8 118.898 1069.45 118.116 1070.29 117.565C1071.13 117.014 1072.1 116.739 1073.21 116.739C1074.06 116.739 1074.73 116.881 1075.23 117.165C1075.73 117.443 1076.11 117.761 1076.37 118.119C1076.64 118.472 1076.84 118.761 1076.99 118.989H1077.16V112.545H1079.17V130H1077.23V127.989H1076.99C1076.84 128.227 1076.63 128.528 1076.36 128.892C1076.09 129.25 1075.7 129.571 1075.19 129.855C1074.69 130.134 1074.01 130.273 1073.17 130.273ZM1073.45 128.466C1074.25 128.466 1074.93 128.256 1075.49 127.835C1076.05 127.409 1076.47 126.821 1076.76 126.071C1077.05 125.315 1077.2 124.443 1077.2 123.455C1077.2 122.477 1077.05 121.622 1076.77 120.889C1076.49 120.151 1076.07 119.577 1075.51 119.168C1074.95 118.753 1074.26 118.545 1073.45 118.545C1072.59 118.545 1071.88 118.764 1071.32 119.202C1070.75 119.634 1070.33 120.222 1070.05 120.966C1069.77 121.705 1069.63 122.534 1069.63 123.455C1069.63 124.386 1069.77 125.233 1070.05 125.994C1070.34 126.75 1070.77 127.352 1071.33 127.801C1071.9 128.244 1072.6 128.466 1073.45 128.466ZM1088.62 130.273C1087.36 130.273 1086.28 129.994 1085.36 129.438C1084.45 128.875 1083.75 128.091 1083.26 127.085C1082.77 126.074 1082.52 124.898 1082.52 123.557C1082.52 122.216 1082.77 121.034 1083.26 120.011C1083.75 118.983 1084.44 118.182 1085.32 117.608C1086.2 117.028 1087.24 116.739 1088.42 116.739C1089.1 116.739 1089.78 116.852 1090.44 117.08C1091.1 117.307 1091.71 117.676 1092.26 118.188C1092.8 118.693 1093.24 119.364 1093.56 120.199C1093.88 121.034 1094.05 122.062 1094.05 123.284V124.136H1083.95V122.398H1092C1092 121.659 1091.85 121 1091.56 120.42C1091.27 119.841 1090.85 119.384 1090.31 119.048C1089.78 118.713 1089.15 118.545 1088.42 118.545C1087.62 118.545 1086.93 118.744 1086.34 119.142C1085.76 119.534 1085.32 120.045 1085 120.676C1084.69 121.307 1084.53 121.983 1084.53 122.705V123.864C1084.53 124.852 1084.7 125.69 1085.05 126.378C1085.39 127.06 1085.87 127.58 1086.49 127.938C1087.1 128.29 1087.81 128.466 1088.62 128.466C1089.15 128.466 1089.63 128.392 1090.06 128.244C1090.49 128.091 1090.86 127.864 1091.17 127.562C1091.49 127.256 1091.73 126.875 1091.9 126.42L1093.84 126.966C1093.64 127.625 1093.29 128.205 1092.81 128.705C1092.33 129.199 1091.73 129.585 1091.02 129.864C1090.31 130.136 1089.51 130.273 1088.62 130.273Z" fill="white"/>
<rect x="1127" y="100" width="137" height="43" rx="21.5" fill="#A1B1A7"/>
<path d="M1182.19 112.545V130H1180.14L1170.63 116.295H1170.46V130H1168.35V112.545H1170.39L1179.94 126.284H1180.11V112.545H1182.19ZM1190 130.307C1189.17 130.307 1188.42 130.151 1187.74 129.838C1187.06 129.52 1186.53 129.062 1186.13 128.466C1185.73 127.864 1185.53 127.136 1185.53 126.284C1185.53 125.534 1185.68 124.926 1185.98 124.46C1186.27 123.989 1186.67 123.619 1187.16 123.352C1187.65 123.085 1188.2 122.886 1188.8 122.756C1189.4 122.619 1190 122.511 1190.61 122.432C1191.41 122.33 1192.05 122.253 1192.55 122.202C1193.05 122.145 1193.41 122.051 1193.64 121.92C1193.87 121.79 1193.99 121.562 1193.99 121.239V121.17C1193.99 120.33 1193.76 119.676 1193.3 119.21C1192.84 118.744 1192.15 118.511 1191.23 118.511C1190.26 118.511 1189.51 118.722 1188.97 119.142C1188.42 119.562 1188.04 120.011 1187.82 120.489L1185.91 119.807C1186.25 119.011 1186.7 118.392 1187.27 117.949C1187.84 117.5 1188.47 117.187 1189.15 117.011C1189.83 116.83 1190.5 116.739 1191.16 116.739C1191.58 116.739 1192.06 116.79 1192.61 116.892C1193.16 116.989 1193.69 117.19 1194.2 117.497C1194.72 117.804 1195.15 118.267 1195.49 118.886C1195.83 119.506 1196 120.335 1196 121.375V130H1193.99V128.227H1193.88C1193.75 128.511 1193.52 128.815 1193.2 129.139C1192.88 129.463 1192.46 129.739 1191.93 129.966C1191.4 130.193 1190.76 130.307 1190 130.307ZM1190.3 128.5C1191.1 128.5 1191.77 128.344 1192.32 128.031C1192.87 127.719 1193.28 127.315 1193.56 126.821C1193.84 126.327 1193.99 125.807 1193.99 125.261V123.42C1193.9 123.523 1193.71 123.616 1193.42 123.702C1193.14 123.781 1192.81 123.852 1192.44 123.915C1192.07 123.972 1191.71 124.023 1191.35 124.068C1191.01 124.108 1190.73 124.142 1190.51 124.17C1189.99 124.239 1189.5 124.349 1189.04 124.503C1188.59 124.651 1188.23 124.875 1187.95 125.176C1187.68 125.472 1187.54 125.875 1187.54 126.386C1187.54 127.085 1187.8 127.614 1188.32 127.972C1188.84 128.324 1189.5 128.5 1190.3 128.5ZM1205.36 116.909V118.614H1198.58V116.909H1205.36ZM1200.56 113.773H1202.57V126.25C1202.57 126.818 1202.65 127.244 1202.81 127.528C1202.98 127.807 1203.2 127.994 1203.46 128.091C1203.73 128.182 1204.01 128.227 1204.31 128.227C1204.53 128.227 1204.71 128.216 1204.85 128.193C1204.99 128.165 1205.11 128.142 1205.19 128.125L1205.6 129.932C1205.46 129.983 1205.27 130.034 1205.03 130.085C1204.79 130.142 1204.48 130.17 1204.1 130.17C1203.53 130.17 1202.98 130.048 1202.43 129.804C1201.89 129.56 1201.44 129.188 1201.08 128.688C1200.73 128.188 1200.56 127.557 1200.56 126.795V113.773ZM1212.24 130.307C1211.41 130.307 1210.66 130.151 1209.98 129.838C1209.31 129.52 1208.77 129.062 1208.37 128.466C1207.97 127.864 1207.77 127.136 1207.77 126.284C1207.77 125.534 1207.92 124.926 1208.22 124.46C1208.51 123.989 1208.91 123.619 1209.4 123.352C1209.9 123.085 1210.44 122.886 1211.04 122.756C1211.64 122.619 1212.25 122.511 1212.85 122.432C1213.65 122.33 1214.29 122.253 1214.79 122.202C1215.29 122.145 1215.65 122.051 1215.88 121.92C1216.11 121.79 1216.23 121.562 1216.23 121.239V121.17C1216.23 120.33 1216 119.676 1215.54 119.21C1215.08 118.744 1214.39 118.511 1213.47 118.511C1212.51 118.511 1211.75 118.722 1211.21 119.142C1210.66 119.562 1210.28 120.011 1210.06 120.489L1208.15 119.807C1208.49 119.011 1208.94 118.392 1209.51 117.949C1210.09 117.5 1210.71 117.187 1211.39 117.011C1212.07 116.83 1212.74 116.739 1213.4 116.739C1213.82 116.739 1214.3 116.79 1214.85 116.892C1215.4 116.989 1215.93 117.19 1216.44 117.497C1216.96 117.804 1217.39 118.267 1217.73 118.886C1218.07 119.506 1218.24 120.335 1218.24 121.375V130H1216.23V128.227H1216.13C1215.99 128.511 1215.76 128.815 1215.44 129.139C1215.13 129.463 1214.7 129.739 1214.17 129.966C1213.65 130.193 1213 130.307 1212.24 130.307ZM1212.55 128.5C1213.34 128.5 1214.01 128.344 1214.56 128.031C1215.11 127.719 1215.52 127.315 1215.8 126.821C1216.09 126.327 1216.23 125.807 1216.23 125.261V123.42C1216.14 123.523 1215.96 123.616 1215.67 123.702C1215.38 123.781 1215.05 123.852 1214.68 123.915C1214.31 123.972 1213.95 124.023 1213.6 124.068C1213.25 124.108 1212.97 124.142 1212.75 124.17C1212.23 124.239 1211.74 124.349 1211.29 124.503C1210.84 124.651 1210.47 124.875 1210.19 125.176C1209.92 125.472 1209.79 125.875 1209.79 126.386C1209.79 127.085 1210.04 127.614 1210.56 127.972C1211.08 128.324 1211.75 128.5 1212.55 128.5ZM1223.92 112.545V130H1221.91V112.545H1223.92Z" fill="white"/>
<rect x="1281" y="100" width="304" height="43" rx="21.5" fill="#A1B1A7"/>
<path d="M1306.09 130V112.545H1308.2V128.125H1316.31V130H1306.09ZM1323.17 130.307C1322.34 130.307 1321.58 130.151 1320.91 129.838C1320.23 129.52 1319.69 129.062 1319.3 128.466C1318.9 127.864 1318.7 127.136 1318.7 126.284C1318.7 125.534 1318.85 124.926 1319.14 124.46C1319.44 123.989 1319.83 123.619 1320.33 123.352C1320.82 123.085 1321.37 122.886 1321.96 122.756C1322.57 122.619 1323.17 122.511 1323.78 122.432C1324.57 122.33 1325.22 122.253 1325.71 122.202C1326.21 122.145 1326.58 122.051 1326.8 121.92C1327.04 121.79 1327.15 121.562 1327.15 121.239V121.17C1327.15 120.33 1326.92 119.676 1326.46 119.21C1326.01 118.744 1325.32 118.511 1324.39 118.511C1323.43 118.511 1322.68 118.722 1322.13 119.142C1321.59 119.562 1321.21 120.011 1320.98 120.489L1319.07 119.807C1319.42 119.011 1319.87 118.392 1320.44 117.949C1321.01 117.5 1321.64 117.187 1322.31 117.011C1323 116.83 1323.67 116.739 1324.32 116.739C1324.75 116.739 1325.23 116.79 1325.77 116.892C1326.32 116.989 1326.86 117.19 1327.37 117.497C1327.88 117.804 1328.31 118.267 1328.65 118.886C1329 119.506 1329.17 120.335 1329.17 121.375V130H1327.15V128.227H1327.05C1326.92 128.511 1326.69 128.815 1326.37 129.139C1326.05 129.463 1325.63 129.739 1325.1 129.966C1324.57 130.193 1323.93 130.307 1323.17 130.307ZM1323.47 128.5C1324.27 128.5 1324.94 128.344 1325.48 128.031C1326.03 127.719 1326.45 127.315 1326.73 126.821C1327.01 126.327 1327.15 125.807 1327.15 125.261V123.42C1327.07 123.523 1326.88 123.616 1326.59 123.702C1326.31 123.781 1325.98 123.852 1325.6 123.915C1325.23 123.972 1324.87 124.023 1324.52 124.068C1324.17 124.108 1323.89 124.142 1323.68 124.17C1323.15 124.239 1322.67 124.349 1322.21 124.503C1321.76 124.651 1321.4 124.875 1321.12 125.176C1320.85 125.472 1320.71 125.875 1320.71 126.386C1320.71 127.085 1320.97 127.614 1321.49 127.972C1322.01 128.324 1322.67 128.5 1323.47 128.5ZM1332.84 130V116.909H1334.78V118.886H1334.92C1335.15 118.239 1335.59 117.713 1336.21 117.31C1336.84 116.906 1337.54 116.705 1338.33 116.705C1338.47 116.705 1338.66 116.707 1338.88 116.713C1339.1 116.719 1339.27 116.727 1339.38 116.739V118.784C1339.31 118.767 1339.16 118.741 1338.91 118.707C1338.67 118.668 1338.42 118.648 1338.15 118.648C1337.52 118.648 1336.95 118.781 1336.45 119.048C1335.96 119.31 1335.56 119.673 1335.27 120.139C1334.99 120.599 1334.85 121.125 1334.85 121.716V130H1332.84ZM1346.86 130.273C1345.6 130.273 1344.51 129.994 1343.59 129.438C1342.68 128.875 1341.98 128.091 1341.49 127.085C1341 126.074 1340.75 124.898 1340.75 123.557C1340.75 122.216 1341 121.034 1341.49 120.011C1341.98 118.983 1342.67 118.182 1343.55 117.608C1344.44 117.028 1345.47 116.739 1346.65 116.739C1347.33 116.739 1348.01 116.852 1348.67 117.08C1349.34 117.307 1349.94 117.676 1350.49 118.188C1351.03 118.693 1351.47 119.364 1351.79 120.199C1352.12 121.034 1352.28 122.062 1352.28 123.284V124.136H1342.19V122.398H1350.23C1350.23 121.659 1350.08 121 1349.79 120.42C1349.5 119.841 1349.08 119.384 1348.54 119.048C1348.01 118.713 1347.38 118.545 1346.65 118.545C1345.85 118.545 1345.16 118.744 1344.57 119.142C1343.99 119.534 1343.55 120.045 1343.23 120.676C1342.92 121.307 1342.77 121.983 1342.77 122.705V123.864C1342.77 124.852 1342.94 125.69 1343.28 126.378C1343.62 127.06 1344.1 127.58 1344.72 127.938C1345.33 128.29 1346.04 128.466 1346.86 128.466C1347.39 128.466 1347.86 128.392 1348.29 128.244C1348.72 128.091 1349.09 127.864 1349.4 127.562C1349.72 127.256 1349.96 126.875 1350.13 126.42L1352.07 126.966C1351.87 127.625 1351.52 128.205 1351.04 128.705C1350.56 129.199 1349.96 129.585 1349.25 129.864C1348.54 130.136 1347.74 130.273 1346.86 130.273ZM1360.28 130.273C1359.19 130.273 1358.23 129.997 1357.39 129.446C1356.56 128.889 1355.9 128.105 1355.43 127.094C1354.96 126.077 1354.72 124.875 1354.72 123.489C1354.72 122.114 1354.96 120.92 1355.43 119.909C1355.9 118.898 1356.56 118.116 1357.4 117.565C1358.24 117.014 1359.21 116.739 1360.31 116.739C1361.17 116.739 1361.84 116.881 1362.33 117.165C1362.83 117.443 1363.21 117.761 1363.48 118.119C1363.74 118.472 1363.95 118.761 1364.1 118.989H1364.27V112.545H1366.28V130H1364.34V127.989H1364.1C1363.95 128.227 1363.74 128.528 1363.47 128.892C1363.19 129.25 1362.81 129.571 1362.3 129.855C1361.79 130.134 1361.12 130.273 1360.28 130.273ZM1360.55 128.466C1361.36 128.466 1362.04 128.256 1362.6 127.835C1363.15 127.409 1363.58 126.821 1363.87 126.071C1364.16 125.315 1364.3 124.443 1364.3 123.455C1364.3 122.477 1364.16 121.622 1363.88 120.889C1363.59 120.151 1363.17 119.577 1362.62 119.168C1362.06 118.753 1361.37 118.545 1360.55 118.545C1359.7 118.545 1358.99 118.764 1358.42 119.202C1357.86 119.634 1357.44 120.222 1357.15 120.966C1356.87 121.705 1356.73 122.534 1356.73 123.455C1356.73 124.386 1356.88 125.233 1357.16 125.994C1357.45 126.75 1357.88 127.352 1358.44 127.801C1359.01 128.244 1359.71 128.466 1360.55 128.466ZM1375.56 130.273C1374.38 130.273 1373.34 129.991 1372.45 129.429C1371.56 128.866 1370.87 128.08 1370.37 127.068C1369.88 126.057 1369.63 124.875 1369.63 123.523C1369.63 122.159 1369.88 120.969 1370.37 119.952C1370.87 118.935 1371.56 118.145 1372.45 117.582C1373.34 117.02 1374.38 116.739 1375.56 116.739C1376.74 116.739 1377.78 117.02 1378.66 117.582C1379.56 118.145 1380.25 118.935 1380.74 119.952C1381.24 120.969 1381.49 122.159 1381.49 123.523C1381.49 124.875 1381.24 126.057 1380.74 127.068C1380.25 128.08 1379.56 128.866 1378.66 129.429C1377.78 129.991 1376.74 130.273 1375.56 130.273ZM1375.56 128.466C1376.46 128.466 1377.2 128.236 1377.78 127.776C1378.36 127.315 1378.79 126.71 1379.06 125.96C1379.34 125.21 1379.48 124.398 1379.48 123.523C1379.48 122.648 1379.34 121.832 1379.06 121.077C1378.79 120.321 1378.36 119.71 1377.78 119.244C1377.2 118.778 1376.46 118.545 1375.56 118.545C1374.66 118.545 1373.92 118.778 1373.35 119.244C1372.77 119.71 1372.34 120.321 1372.06 121.077C1371.78 121.832 1371.64 122.648 1371.64 123.523C1371.64 124.398 1371.78 125.21 1372.06 125.96C1372.34 126.71 1372.77 127.315 1373.35 127.776C1373.92 128.236 1374.66 128.466 1375.56 128.466ZM1392.81 124.648V116.909H1394.82V130H1392.81V127.784H1392.68C1392.37 128.449 1391.89 129.014 1391.25 129.48C1390.6 129.94 1389.78 130.17 1388.79 130.17C1387.97 130.17 1387.25 129.991 1386.61 129.634C1385.97 129.27 1385.47 128.724 1385.11 127.997C1384.75 127.264 1384.56 126.341 1384.56 125.227V116.909H1386.57V125.091C1386.57 126.045 1386.84 126.807 1387.38 127.375C1387.92 127.943 1388.6 128.227 1389.44 128.227C1389.94 128.227 1390.45 128.099 1390.96 127.844C1391.49 127.588 1391.92 127.196 1392.28 126.668C1392.63 126.139 1392.81 125.466 1392.81 124.648ZM1404.2 116.909V118.614H1397.42V116.909H1404.2ZM1399.4 113.773H1401.41V126.25C1401.41 126.818 1401.49 127.244 1401.65 127.528C1401.82 127.807 1402.04 127.994 1402.3 128.091C1402.57 128.182 1402.85 128.227 1403.15 128.227C1403.37 128.227 1403.55 128.216 1403.69 128.193C1403.83 128.165 1403.95 128.142 1404.03 128.125L1404.44 129.932C1404.3 129.983 1404.11 130.034 1403.87 130.085C1403.63 130.142 1403.32 130.17 1402.94 130.17C1402.37 130.17 1401.82 130.048 1401.27 129.804C1400.73 129.56 1400.28 129.188 1399.92 128.688C1399.57 128.188 1399.4 127.557 1399.4 126.795V113.773ZM1412.58 130.273C1411.31 130.273 1410.23 129.994 1409.31 129.438C1408.4 128.875 1407.7 128.091 1407.21 127.085C1406.72 126.074 1406.47 124.898 1406.47 123.557C1406.47 122.216 1406.72 121.034 1407.21 120.011C1407.7 118.983 1408.39 118.182 1409.27 117.608C1410.15 117.028 1411.19 116.739 1412.37 116.739C1413.05 116.739 1413.73 116.852 1414.39 117.08C1415.06 117.307 1415.66 117.676 1416.21 118.188C1416.75 118.693 1417.19 119.364 1417.51 120.199C1417.83 121.034 1418 122.062 1418 123.284V124.136H1407.9V122.398H1415.95C1415.95 121.659 1415.8 121 1415.51 120.42C1415.22 119.841 1414.8 119.384 1414.26 119.048C1413.73 118.713 1413.1 118.545 1412.37 118.545C1411.57 118.545 1410.88 118.744 1410.29 119.142C1409.71 119.534 1409.27 120.045 1408.95 120.676C1408.64 121.307 1408.48 121.983 1408.48 122.705V123.864C1408.48 124.852 1408.65 125.69 1409 126.378C1409.34 127.06 1409.82 127.58 1410.44 127.938C1411.05 128.29 1411.76 128.466 1412.58 128.466C1413.1 128.466 1413.58 128.392 1414.01 128.244C1414.44 128.091 1414.81 127.864 1415.12 127.562C1415.44 127.256 1415.68 126.875 1415.85 126.42L1417.79 126.966C1417.59 127.625 1417.24 128.205 1416.76 128.705C1416.28 129.199 1415.68 129.585 1414.97 129.864C1414.26 130.136 1413.46 130.273 1412.58 130.273ZM1433.64 116.909V118.614H1426.58V116.909H1433.64ZM1428.69 130V115.102C1428.69 114.352 1428.87 113.727 1429.22 113.227C1429.57 112.727 1430.03 112.352 1430.59 112.102C1431.15 111.852 1431.75 111.727 1432.37 111.727C1432.87 111.727 1433.27 111.767 1433.58 111.847C1433.9 111.926 1434.13 112 1434.28 112.068L1433.7 113.807C1433.6 113.773 1433.46 113.73 1433.28 113.679C1433.1 113.628 1432.87 113.602 1432.58 113.602C1431.91 113.602 1431.43 113.77 1431.14 114.105C1430.85 114.44 1430.7 114.932 1430.7 115.58V130H1428.69ZM1441.23 130.273C1440.05 130.273 1439.01 129.991 1438.12 129.429C1437.24 128.866 1436.54 128.08 1436.04 127.068C1435.55 126.057 1435.3 124.875 1435.3 123.523C1435.3 122.159 1435.55 120.969 1436.04 119.952C1436.54 118.935 1437.24 118.145 1438.12 117.582C1439.01 117.02 1440.05 116.739 1441.23 116.739C1442.41 116.739 1443.45 117.02 1444.34 117.582C1445.23 118.145 1445.92 118.935 1446.41 119.952C1446.91 120.969 1447.16 122.159 1447.16 123.523C1447.16 124.875 1446.91 126.057 1446.41 127.068C1445.92 128.08 1445.23 128.866 1444.34 129.429C1443.45 129.991 1442.41 130.273 1441.23 130.273ZM1441.23 128.466C1442.13 128.466 1442.87 128.236 1443.45 127.776C1444.03 127.315 1444.46 126.71 1444.74 125.96C1445.01 125.21 1445.15 124.398 1445.15 123.523C1445.15 122.648 1445.01 121.832 1444.74 121.077C1444.46 120.321 1444.03 119.71 1443.45 119.244C1442.87 118.778 1442.13 118.545 1441.23 118.545C1440.34 118.545 1439.6 118.778 1439.02 119.244C1438.44 119.71 1438.01 120.321 1437.73 121.077C1437.45 121.832 1437.31 122.648 1437.31 123.523C1437.31 124.398 1437.45 125.21 1437.73 125.96C1438.01 126.71 1438.44 127.315 1439.02 127.776C1439.6 128.236 1440.34 128.466 1441.23 128.466ZM1450.24 130V116.909H1452.18V118.886H1452.31C1452.55 118.239 1452.99 117.713 1453.61 117.31C1454.24 116.906 1454.94 116.705 1455.72 116.705C1455.87 116.705 1456.06 116.707 1456.28 116.713C1456.5 116.719 1456.67 116.727 1456.78 116.739V118.784C1456.71 118.767 1456.56 118.741 1456.31 118.707C1456.07 118.668 1455.82 118.648 1455.55 118.648C1454.92 118.648 1454.35 118.781 1453.85 119.048C1453.35 119.31 1452.96 119.673 1452.67 120.139C1452.39 120.599 1452.25 121.125 1452.25 121.716V130H1450.24ZM1466.19 130V112.545H1468.2V118.989H1468.37C1468.52 118.761 1468.72 118.472 1468.98 118.119C1469.25 117.761 1469.63 117.443 1470.13 117.165C1470.63 116.881 1471.3 116.739 1472.15 116.739C1473.26 116.739 1474.23 117.014 1475.07 117.565C1475.91 118.116 1476.57 118.898 1477.04 119.909C1477.51 120.92 1477.74 122.114 1477.74 123.489C1477.74 124.875 1477.51 126.077 1477.04 127.094C1476.57 128.105 1475.91 128.889 1475.08 129.446C1474.24 129.997 1473.28 130.273 1472.19 130.273C1471.35 130.273 1470.67 130.134 1470.17 129.855C1469.66 129.571 1469.27 129.25 1469 128.892C1468.73 128.528 1468.52 128.227 1468.37 127.989H1468.13V130H1466.19ZM1468.16 123.455C1468.16 124.443 1468.31 125.315 1468.6 126.071C1468.89 126.821 1469.31 127.409 1469.87 127.835C1470.43 128.256 1471.11 128.466 1471.91 128.466C1472.76 128.466 1473.46 128.244 1474.02 127.801C1474.59 127.352 1475.01 126.75 1475.3 125.994C1475.59 125.233 1475.73 124.386 1475.73 123.455C1475.73 122.534 1475.59 121.705 1475.31 120.966C1475.03 120.222 1474.61 119.634 1474.04 119.202C1473.47 118.764 1472.77 118.545 1471.91 118.545C1471.1 118.545 1470.41 118.753 1469.85 119.168C1469.3 119.577 1468.88 120.151 1468.59 120.889C1468.31 121.622 1468.16 122.477 1468.16 123.455ZM1489.07 124.648V116.909H1491.08V130H1489.07V127.784H1488.93C1488.63 128.449 1488.15 129.014 1487.5 129.48C1486.86 129.94 1486.04 130.17 1485.05 130.17C1484.23 130.17 1483.5 129.991 1482.87 129.634C1482.23 129.27 1481.73 128.724 1481.37 127.997C1481 127.264 1480.82 126.341 1480.82 125.227V116.909H1482.83V125.091C1482.83 126.045 1483.1 126.807 1483.63 127.375C1484.17 127.943 1484.86 128.227 1485.7 128.227C1486.2 128.227 1486.7 128.099 1487.22 127.844C1487.74 127.588 1488.18 127.196 1488.53 126.668C1488.89 126.139 1489.07 125.466 1489.07 124.648ZM1504.04 119.841L1502.23 120.352C1502.12 120.051 1501.95 119.759 1501.73 119.474C1501.51 119.185 1501.22 118.946 1500.84 118.759C1500.47 118.571 1499.99 118.477 1499.4 118.477C1498.6 118.477 1497.93 118.662 1497.4 119.031C1496.87 119.395 1496.61 119.858 1496.61 120.42C1496.61 120.92 1496.79 121.315 1497.15 121.605C1497.52 121.895 1498.08 122.136 1498.86 122.33L1500.8 122.807C1501.97 123.091 1502.84 123.526 1503.42 124.111C1503.99 124.69 1504.28 125.437 1504.28 126.352C1504.28 127.102 1504.06 127.773 1503.63 128.364C1503.2 128.955 1502.61 129.42 1501.84 129.761C1501.07 130.102 1500.18 130.273 1499.16 130.273C1497.83 130.273 1496.72 129.983 1495.85 129.403C1494.97 128.824 1494.42 127.977 1494.19 126.864L1496.1 126.386C1496.28 127.091 1496.62 127.619 1497.13 127.972C1497.64 128.324 1498.31 128.5 1499.13 128.5C1500.07 128.5 1500.81 128.301 1501.36 127.903C1501.92 127.5 1502.2 127.017 1502.2 126.455C1502.2 126 1502.04 125.619 1501.72 125.312C1501.4 125 1500.91 124.767 1500.26 124.614L1498.07 124.102C1496.87 123.818 1495.99 123.378 1495.43 122.781C1494.87 122.179 1494.6 121.426 1494.6 120.523C1494.6 119.784 1494.8 119.131 1495.22 118.562C1495.64 117.994 1496.21 117.548 1496.93 117.224C1497.66 116.901 1498.48 116.739 1499.4 116.739C1500.7 116.739 1501.72 117.023 1502.45 117.591C1503.2 118.159 1503.73 118.909 1504.04 119.841ZM1507.31 130V116.909H1509.32V130H1507.31ZM1508.33 114.727C1507.94 114.727 1507.6 114.594 1507.31 114.327C1507.04 114.06 1506.9 113.739 1506.9 113.364C1506.9 112.989 1507.04 112.668 1507.31 112.401C1507.6 112.134 1507.94 112 1508.33 112C1508.72 112 1509.06 112.134 1509.33 112.401C1509.62 112.668 1509.76 112.989 1509.76 113.364C1509.76 113.739 1509.62 114.06 1509.33 114.327C1509.06 114.594 1508.72 114.727 1508.33 114.727ZM1515.01 122.125V130H1513V116.909H1514.94V118.955H1515.11C1515.42 118.29 1515.89 117.756 1516.51 117.352C1517.14 116.943 1517.94 116.739 1518.93 116.739C1519.82 116.739 1520.59 116.92 1521.26 117.284C1521.92 117.642 1522.44 118.188 1522.81 118.92C1523.18 119.648 1523.36 120.568 1523.36 121.682V130H1521.35V121.818C1521.35 120.79 1521.09 119.989 1520.55 119.415C1520.02 118.835 1519.28 118.545 1518.35 118.545C1517.71 118.545 1517.14 118.685 1516.63 118.963C1516.13 119.241 1515.74 119.648 1515.45 120.182C1515.16 120.716 1515.01 121.364 1515.01 122.125ZM1532.53 130.273C1531.27 130.273 1530.18 129.994 1529.26 129.438C1528.36 128.875 1527.65 128.091 1527.16 127.085C1526.67 126.074 1526.43 124.898 1526.43 123.557C1526.43 122.216 1526.67 121.034 1527.16 120.011C1527.65 118.983 1528.34 118.182 1529.22 117.608C1530.11 117.028 1531.14 116.739 1532.32 116.739C1533.01 116.739 1533.68 116.852 1534.34 117.08C1535.01 117.307 1535.61 117.676 1536.16 118.188C1536.7 118.693 1537.14 119.364 1537.46 120.199C1537.79 121.034 1537.95 122.062 1537.95 123.284V124.136H1527.86V122.398H1535.9C1535.9 121.659 1535.76 121 1535.46 120.42C1535.17 119.841 1534.76 119.384 1534.22 119.048C1533.68 118.713 1533.05 118.545 1532.32 118.545C1531.52 118.545 1530.83 118.744 1530.24 119.142C1529.66 119.534 1529.22 120.045 1528.91 120.676C1528.59 121.307 1528.44 121.983 1528.44 122.705V123.864C1528.44 124.852 1528.61 125.69 1528.95 126.378C1529.3 127.06 1529.78 127.58 1530.39 127.938C1531 128.29 1531.72 128.466 1532.53 128.466C1533.06 128.466 1533.53 128.392 1533.96 128.244C1534.39 128.091 1534.76 127.864 1535.08 127.562C1535.39 127.256 1535.63 126.875 1535.8 126.42L1537.74 126.966C1537.54 127.625 1537.2 128.205 1536.71 128.705C1536.23 129.199 1535.63 129.585 1534.92 129.864C1534.21 130.136 1533.41 130.273 1532.53 130.273ZM1550.28 119.841L1548.47 120.352C1548.36 120.051 1548.19 119.759 1547.97 119.474C1547.76 119.185 1547.46 118.946 1547.09 118.759C1546.71 118.571 1546.23 118.477 1545.65 118.477C1544.84 118.477 1544.18 118.662 1543.64 119.031C1543.11 119.395 1542.85 119.858 1542.85 120.42C1542.85 120.92 1543.03 121.315 1543.4 121.605C1543.76 121.895 1544.33 122.136 1545.1 122.33L1547.04 122.807C1548.21 123.091 1549.09 123.526 1549.66 124.111C1550.23 124.69 1550.52 125.437 1550.52 126.352C1550.52 127.102 1550.3 127.773 1549.87 128.364C1549.45 128.955 1548.85 129.42 1548.08 129.761C1547.32 130.102 1546.42 130.273 1545.41 130.273C1544.07 130.273 1542.97 129.983 1542.09 129.403C1541.22 128.824 1540.66 127.977 1540.43 126.864L1542.34 126.386C1542.52 127.091 1542.86 127.619 1543.37 127.972C1543.88 128.324 1544.55 128.5 1545.37 128.5C1546.31 128.5 1547.05 128.301 1547.61 127.903C1548.16 127.5 1548.44 127.017 1548.44 126.455C1548.44 126 1548.28 125.619 1547.96 125.312C1547.65 125 1547.16 124.767 1546.5 124.614L1544.32 124.102C1543.12 123.818 1542.24 123.378 1541.67 122.781C1541.12 122.179 1540.84 121.426 1540.84 120.523C1540.84 119.784 1541.05 119.131 1541.46 118.562C1541.88 117.994 1542.45 117.548 1543.17 117.224C1543.9 116.901 1544.72 116.739 1545.65 116.739C1546.94 116.739 1547.96 117.023 1548.7 117.591C1549.44 118.159 1549.97 118.909 1550.28 119.841ZM1562.82 119.841L1561.01 120.352C1560.9 120.051 1560.73 119.759 1560.51 119.474C1560.29 119.185 1560 118.946 1559.62 118.759C1559.25 118.571 1558.77 118.477 1558.18 118.477C1557.38 118.477 1556.72 118.662 1556.18 119.031C1555.65 119.395 1555.39 119.858 1555.39 120.42C1555.39 120.92 1555.57 121.315 1555.93 121.605C1556.3 121.895 1556.87 122.136 1557.64 122.33L1559.58 122.807C1560.75 123.091 1561.62 123.526 1562.2 124.111C1562.77 124.69 1563.06 125.437 1563.06 126.352C1563.06 127.102 1562.84 127.773 1562.41 128.364C1561.99 128.955 1561.39 129.42 1560.62 129.761C1559.85 130.102 1558.96 130.273 1557.95 130.273C1556.61 130.273 1555.51 129.983 1554.63 129.403C1553.76 128.824 1553.2 127.977 1552.97 126.864L1554.88 126.386C1555.06 127.091 1555.4 127.619 1555.91 127.972C1556.42 128.324 1557.09 128.5 1557.91 128.5C1558.85 128.5 1559.59 128.301 1560.14 127.903C1560.7 127.5 1560.98 127.017 1560.98 126.455C1560.98 126 1560.82 125.619 1560.5 125.312C1560.18 125 1559.7 124.767 1559.04 124.614L1556.85 124.102C1555.66 123.818 1554.77 123.378 1554.21 122.781C1553.66 122.179 1553.38 121.426 1553.38 120.523C1553.38 119.784 1553.58 119.131 1554 118.562C1554.42 117.994 1554.99 117.548 1555.71 117.224C1556.44 116.901 1557.26 116.739 1558.18 116.739C1559.48 116.739 1560.5 117.023 1561.24 117.591C1561.98 118.159 1562.51 118.909 1562.82 119.841Z" fill="white"/>
<rect width="367" height="92" transform="translate(1314 6)" fill="#586062"/>
<rect x="1314" y="9.58447" width="367" height="86.026" rx="43.013" fill="#586062"/>
<path d="M1417.11 55V37.5455H1427.65V39.4205H1419.23V45.3182H1427.1V47.1932H1419.23V53.125H1427.78V55H1417.11ZM1433.2 47.125V55H1431.18V41.9091H1433.13V43.9545H1433.3C1433.61 43.2898 1434.07 42.7557 1434.7 42.3523C1435.32 41.9432 1436.13 41.7386 1437.12 41.7386C1438 41.7386 1438.78 41.9205 1439.44 42.2841C1440.11 42.642 1440.63 43.1875 1440.99 43.9205C1441.36 44.6477 1441.55 45.5682 1441.55 46.6818V55H1439.54V46.8182C1439.54 45.7898 1439.27 44.9886 1438.74 44.4148C1438.2 43.8352 1437.47 43.5455 1436.54 43.5455C1435.89 43.5455 1435.32 43.6847 1434.82 43.9631C1434.32 44.2415 1433.92 44.6477 1433.63 45.1818C1433.34 45.7159 1433.2 46.3636 1433.2 47.125ZM1450.92 41.9091V43.6136H1444.13V41.9091H1450.92ZM1446.11 38.7727H1448.12V51.25C1448.12 51.8182 1448.2 52.2443 1448.37 52.5284C1448.54 52.8068 1448.75 52.9943 1449.02 53.0909C1449.28 53.1818 1449.56 53.2273 1449.86 53.2273C1450.08 53.2273 1450.26 53.2159 1450.41 53.1932C1450.55 53.1648 1450.66 53.142 1450.75 53.125L1451.16 54.9318C1451.02 54.983 1450.83 55.0341 1450.58 55.0852C1450.34 55.142 1450.03 55.1705 1449.66 55.1705C1449.09 55.1705 1448.53 55.0483 1447.99 54.804C1447.45 54.5597 1447 54.1875 1446.64 53.6875C1446.29 53.1875 1446.11 52.5568 1446.11 51.7955V38.7727ZM1453.94 55V41.9091H1455.89V43.8864H1456.02C1456.26 43.2386 1456.69 42.7131 1457.32 42.3097C1457.94 41.9062 1458.65 41.7045 1459.43 41.7045C1459.58 41.7045 1459.76 41.7074 1459.99 41.7131C1460.21 41.7187 1460.37 41.7273 1460.49 41.7386V43.7841C1460.42 43.767 1460.26 43.7415 1460.02 43.7074C1459.78 43.6676 1459.53 43.6477 1459.26 43.6477C1458.62 43.6477 1458.06 43.7812 1457.56 44.0483C1457.06 44.3097 1456.67 44.6733 1456.38 45.1392C1456.1 45.5994 1455.95 46.125 1455.95 46.7159V55H1453.94ZM1466.72 55.3068C1465.89 55.3068 1465.14 55.1506 1464.47 54.8381C1463.79 54.5199 1463.25 54.0625 1462.86 53.4659C1462.46 52.8636 1462.26 52.1364 1462.26 51.2841C1462.26 50.5341 1462.41 49.9261 1462.7 49.4602C1463 48.9886 1463.39 48.6193 1463.89 48.3523C1464.38 48.0852 1464.93 47.8864 1465.52 47.7557C1466.13 47.6193 1466.73 47.5114 1467.34 47.4318C1468.13 47.3295 1468.78 47.2528 1469.27 47.2017C1469.77 47.1449 1470.14 47.0511 1470.36 46.9205C1470.6 46.7898 1470.71 46.5625 1470.71 46.2386V46.1705C1470.71 45.3295 1470.48 44.6761 1470.02 44.2102C1469.57 43.7443 1468.88 43.5114 1467.95 43.5114C1466.99 43.5114 1466.24 43.7216 1465.69 44.142C1465.15 44.5625 1464.76 45.0114 1464.54 45.4886L1462.63 44.8068C1462.97 44.0114 1463.43 43.392 1464 42.9489C1464.57 42.5 1465.2 42.1875 1465.87 42.0114C1466.55 41.8295 1467.22 41.7386 1467.88 41.7386C1468.3 41.7386 1468.79 41.7898 1469.33 41.892C1469.88 41.9886 1470.41 42.1903 1470.93 42.4972C1471.44 42.804 1471.87 43.267 1472.21 43.8864C1472.55 44.5057 1472.72 45.3352 1472.72 46.375V55H1470.71V53.2273H1470.61C1470.47 53.5114 1470.25 53.8153 1469.93 54.1392C1469.61 54.4631 1469.19 54.7386 1468.66 54.9659C1468.13 55.1932 1467.49 55.3068 1466.72 55.3068ZM1467.03 53.5C1467.83 53.5 1468.5 53.3438 1469.04 53.0312C1469.59 52.7188 1470.01 52.3153 1470.29 51.821C1470.57 51.3267 1470.71 50.8068 1470.71 50.2614V48.4205C1470.63 48.5227 1470.44 48.6165 1470.15 48.7017C1469.87 48.7812 1469.54 48.8523 1469.16 48.9148C1468.79 48.9716 1468.43 49.0227 1468.08 49.0682C1467.73 49.108 1467.45 49.142 1467.24 49.1705C1466.71 49.2386 1466.22 49.3494 1465.77 49.5028C1465.32 49.6506 1464.96 49.875 1464.68 50.1761C1464.41 50.4716 1464.27 50.875 1464.27 51.3864C1464.27 52.0852 1464.53 52.6136 1465.05 52.9716C1465.57 53.3239 1466.23 53.5 1467.03 53.5ZM1476.4 55V41.9091H1478.34V43.8864H1478.48C1478.71 43.2386 1479.15 42.7131 1479.77 42.3097C1480.4 41.9062 1481.1 41.7045 1481.88 41.7045C1482.03 41.7045 1482.22 41.7074 1482.44 41.7131C1482.66 41.7187 1482.83 41.7273 1482.94 41.7386V43.7841C1482.87 43.767 1482.72 43.7415 1482.47 43.7074C1482.23 43.6676 1481.98 43.6477 1481.71 43.6477C1481.08 43.6477 1480.51 43.7812 1480.01 44.0483C1479.51 44.3097 1479.12 44.6733 1478.83 45.1392C1478.55 45.5994 1478.41 46.125 1478.41 46.7159V55H1476.4ZM1490.68 36.7273L1485.05 57.625H1483.21L1488.83 36.7273H1490.68ZM1493.33 55V37.5455H1499.23C1500.59 37.5455 1501.71 37.7784 1502.59 38.2443C1503.46 38.7045 1504.11 39.3381 1504.53 40.1449C1504.95 40.9517 1505.16 41.8693 1505.16 42.8977C1505.16 43.9261 1504.95 44.8381 1504.53 45.6335C1504.11 46.429 1503.47 47.054 1502.6 47.5085C1501.73 47.9574 1500.62 48.1818 1499.26 48.1818H1494.49V46.2727H1499.2C1500.13 46.2727 1500.88 46.1364 1501.45 45.8636C1502.02 45.5909 1502.43 45.2045 1502.69 44.7045C1502.95 44.1989 1503.08 43.5966 1503.08 42.8977C1503.08 42.1989 1502.95 41.5881 1502.69 41.0653C1502.43 40.5426 1502.01 40.1392 1501.44 39.8551C1500.86 39.5653 1500.11 39.4205 1499.16 39.4205H1495.45V55H1493.33ZM1501.55 47.1591L1505.84 55H1503.39L1499.16 47.1591H1501.55ZM1513.76 55.2727C1512.5 55.2727 1511.41 54.9943 1510.5 54.4375C1509.59 53.875 1508.88 53.0909 1508.39 52.0852C1507.9 51.0739 1507.66 49.8977 1507.66 48.5568C1507.66 47.2159 1507.9 46.0341 1508.39 45.0114C1508.88 43.983 1509.57 43.1818 1510.45 42.608C1511.34 42.0284 1512.37 41.7386 1513.55 41.7386C1514.24 41.7386 1514.91 41.8523 1515.57 42.0795C1516.24 42.3068 1516.84 42.6761 1517.39 43.1875C1517.94 43.6932 1518.37 44.3636 1518.69 45.1989C1519.02 46.0341 1519.18 47.0625 1519.18 48.2841V49.1364H1509.09V47.3977H1517.13C1517.13 46.6591 1516.99 46 1516.69 45.4205C1516.4 44.8409 1515.99 44.3835 1515.45 44.0483C1514.91 43.7131 1514.28 43.5455 1513.55 43.5455C1512.75 43.5455 1512.06 43.7443 1511.48 44.142C1510.9 44.5341 1510.45 45.0455 1510.14 45.6761C1509.82 46.3068 1509.67 46.983 1509.67 47.7045V48.8636C1509.67 49.8523 1509.84 50.6903 1510.18 51.3778C1510.53 52.0597 1511.01 52.5795 1511.62 52.9375C1512.23 53.2898 1512.95 53.4659 1513.76 53.4659C1514.29 53.4659 1514.76 53.392 1515.19 53.2443C1515.62 53.0909 1516 52.8636 1516.31 52.5625C1516.62 52.2557 1516.86 51.875 1517.03 51.4205L1518.98 51.9659C1518.77 52.625 1518.43 53.2045 1517.94 53.7045C1517.46 54.1989 1516.86 54.5852 1516.15 54.8636C1515.44 55.1364 1514.65 55.2727 1513.76 55.2727ZM1527.52 60.1818C1526.55 60.1818 1525.72 60.0568 1525.02 59.8068C1524.32 59.5625 1523.74 59.2386 1523.27 58.8352C1522.81 58.4375 1522.44 58.0114 1522.17 57.5568L1523.77 56.4318C1523.96 56.6705 1524.19 56.9432 1524.46 57.25C1524.74 57.5625 1525.12 57.8324 1525.61 58.0597C1526.09 58.2926 1526.73 58.4091 1527.52 58.4091C1528.58 58.4091 1529.45 58.1534 1530.14 57.642C1530.83 57.1307 1531.17 56.3295 1531.17 55.2386V52.5795H1531C1530.85 52.8182 1530.64 53.1136 1530.37 53.4659C1530.1 53.8125 1529.72 54.1222 1529.21 54.3949C1528.71 54.6619 1528.03 54.7955 1527.18 54.7955C1526.13 54.7955 1525.18 54.5455 1524.34 54.0455C1523.5 53.5455 1522.84 52.8182 1522.35 51.8636C1521.87 50.9091 1521.63 49.75 1521.63 48.3864C1521.63 47.0455 1521.86 45.8778 1522.33 44.8835C1522.8 43.8835 1523.46 43.1108 1524.3 42.5653C1525.14 42.0142 1526.11 41.7386 1527.22 41.7386C1528.07 41.7386 1528.75 41.8807 1529.25 42.1648C1529.75 42.4432 1530.14 42.7614 1530.4 43.1193C1530.68 43.4716 1530.89 43.7614 1531.03 43.9886H1531.24V41.9091H1533.18V55.375C1533.18 56.5 1532.93 57.4148 1532.42 58.1193C1531.91 58.8295 1531.23 59.3494 1530.37 59.679C1529.52 60.0142 1528.57 60.1818 1527.52 60.1818ZM1527.46 52.9886C1528.26 52.9886 1528.94 52.804 1529.5 52.4347C1530.06 52.0653 1530.48 51.5341 1530.77 50.8409C1531.06 50.1477 1531.21 49.3182 1531.21 48.3523C1531.21 47.4091 1531.06 46.5767 1530.78 45.8551C1530.5 45.1335 1530.07 44.5682 1529.52 44.1591C1528.96 43.75 1528.27 43.5455 1527.46 43.5455C1526.6 43.5455 1525.89 43.7614 1525.32 44.1932C1524.76 44.625 1524.34 45.2045 1524.05 45.9318C1523.78 46.6591 1523.64 47.4659 1523.64 48.3523C1523.64 49.2614 1523.78 50.0653 1524.06 50.7642C1524.35 51.4574 1524.78 52.0028 1525.34 52.4006C1525.91 52.7926 1526.61 52.9886 1527.46 52.9886ZM1536.86 55V41.9091H1538.88V55H1536.86ZM1537.89 39.7273C1537.5 39.7273 1537.16 39.5938 1536.87 39.3267C1536.59 39.0597 1536.46 38.7386 1536.46 38.3636C1536.46 37.9886 1536.59 37.6676 1536.87 37.4006C1537.16 37.1335 1537.5 37 1537.89 37C1538.28 37 1538.61 37.1335 1538.89 37.4006C1539.18 37.6676 1539.32 37.9886 1539.32 38.3636C1539.32 38.7386 1539.18 39.0597 1538.89 39.3267C1538.61 39.5938 1538.28 39.7273 1537.89 39.7273ZM1551.83 44.8409L1550.03 45.3523C1549.91 45.0511 1549.74 44.7585 1549.52 44.4744C1549.31 44.1847 1549.01 43.946 1548.64 43.7585C1548.26 43.571 1547.78 43.4773 1547.2 43.4773C1546.39 43.4773 1545.73 43.6619 1545.19 44.0312C1544.66 44.3949 1544.4 44.858 1544.4 45.4205C1544.4 45.9205 1544.58 46.3153 1544.95 46.6051C1545.31 46.8949 1545.88 47.1364 1546.65 47.3295L1548.59 47.8068C1549.76 48.0909 1550.64 48.5256 1551.21 49.1108C1551.78 49.6903 1552.07 50.4375 1552.07 51.3523C1552.07 52.1023 1551.86 52.7727 1551.42 53.3636C1551 53.9545 1550.4 54.4205 1549.63 54.7614C1548.87 55.1023 1547.97 55.2727 1546.96 55.2727C1545.62 55.2727 1544.52 54.983 1543.64 54.4034C1542.77 53.8239 1542.21 52.9773 1541.98 51.8636L1543.89 51.3864C1544.07 52.0909 1544.41 52.6193 1544.92 52.9716C1545.43 53.3239 1546.1 53.5 1546.92 53.5C1547.86 53.5 1548.61 53.3011 1549.16 52.9034C1549.71 52.5 1549.99 52.017 1549.99 51.4545C1549.99 51 1549.83 50.6193 1549.51 50.3125C1549.2 50 1548.71 49.767 1548.05 49.6136L1545.87 49.1023C1544.67 48.8182 1543.79 48.3778 1543.22 47.7812C1542.67 47.179 1542.39 46.4261 1542.39 45.5227C1542.39 44.7841 1542.6 44.1307 1543.01 43.5625C1543.43 42.9943 1544 42.5483 1544.72 42.2244C1545.45 41.9006 1546.28 41.7386 1547.2 41.7386C1548.49 41.7386 1549.51 42.0227 1550.25 42.5909C1550.99 43.1591 1551.52 43.9091 1551.83 44.8409ZM1560.79 41.9091V43.6136H1554.01V41.9091H1560.79ZM1555.99 38.7727H1558V51.25C1558 51.8182 1558.08 52.2443 1558.24 52.5284C1558.41 52.8068 1558.63 52.9943 1558.89 53.0909C1559.16 53.1818 1559.44 53.2273 1559.74 53.2273C1559.96 53.2273 1560.14 53.2159 1560.28 53.1932C1560.42 53.1648 1560.54 53.142 1560.62 53.125L1561.03 54.9318C1560.89 54.983 1560.7 55.0341 1560.46 55.0852C1560.22 55.142 1559.91 55.1705 1559.53 55.1705C1558.96 55.1705 1558.41 55.0483 1557.86 54.804C1557.32 54.5597 1556.87 54.1875 1556.51 53.6875C1556.16 53.1875 1555.99 52.5568 1555.99 51.7955V38.7727ZM1567.67 55.3068C1566.84 55.3068 1566.09 55.1506 1565.41 54.8381C1564.74 54.5199 1564.2 54.0625 1563.8 53.4659C1563.4 52.8636 1563.2 52.1364 1563.2 51.2841C1563.2 50.5341 1563.35 49.9261 1563.65 49.4602C1563.94 48.9886 1564.34 48.6193 1564.83 48.3523C1565.33 48.0852 1565.87 47.8864 1566.47 47.7557C1567.07 47.6193 1567.68 47.5114 1568.28 47.4318C1569.08 47.3295 1569.72 47.2528 1570.22 47.2017C1570.72 47.1449 1571.08 47.0511 1571.31 46.9205C1571.54 46.7898 1571.66 46.5625 1571.66 46.2386V46.1705C1571.66 45.3295 1571.43 44.6761 1570.97 44.2102C1570.51 43.7443 1569.82 43.5114 1568.9 43.5114C1567.94 43.5114 1567.18 43.7216 1566.64 44.142C1566.09 44.5625 1565.71 45.0114 1565.49 45.4886L1563.58 44.8068C1563.92 44.0114 1564.37 43.392 1564.94 42.9489C1565.52 42.5 1566.14 42.1875 1566.82 42.0114C1567.5 41.8295 1568.17 41.7386 1568.83 41.7386C1569.25 41.7386 1569.73 41.7898 1570.28 41.892C1570.83 41.9886 1571.36 42.1903 1571.87 42.4972C1572.39 42.804 1572.82 43.267 1573.16 43.8864C1573.5 44.5057 1573.67 45.3352 1573.67 46.375V55H1571.66V53.2273H1571.56C1571.42 53.5114 1571.19 53.8153 1570.87 54.1392C1570.56 54.4631 1570.13 54.7386 1569.6 54.9659C1569.08 55.1932 1568.43 55.3068 1567.67 55.3068ZM1567.98 53.5C1568.77 53.5 1569.44 53.3438 1569.99 53.0312C1570.54 52.7188 1570.95 52.3153 1571.23 51.821C1571.52 51.3267 1571.66 50.8068 1571.66 50.2614V48.4205C1571.57 48.5227 1571.39 48.6165 1571.1 48.7017C1570.81 48.7812 1570.48 48.8523 1570.11 48.9148C1569.74 48.9716 1569.38 49.0227 1569.02 49.0682C1568.68 49.108 1568.4 49.142 1568.18 49.1705C1567.66 49.2386 1567.17 49.3494 1566.72 49.5028C1566.27 49.6506 1565.9 49.875 1565.62 50.1761C1565.35 50.4716 1565.22 50.875 1565.22 51.3864C1565.22 52.0852 1565.47 52.6136 1565.99 52.9716C1566.51 53.3239 1567.18 53.5 1567.98 53.5ZM1577.34 55V41.9091H1579.28V43.8864H1579.42C1579.66 43.2386 1580.09 42.7131 1580.72 42.3097C1581.34 41.9062 1582.05 41.7045 1582.83 41.7045C1582.98 41.7045 1583.16 41.7074 1583.38 41.7131C1583.61 41.7187 1583.77 41.7273 1583.89 41.7386V43.7841C1583.82 43.767 1583.66 43.7415 1583.42 43.7074C1583.18 43.6676 1582.93 43.6477 1582.66 43.6477C1582.02 43.6477 1581.45 43.7812 1580.95 44.0483C1580.46 44.3097 1580.07 44.6733 1579.78 45.1392C1579.49 45.5994 1579.35 46.125 1579.35 46.7159V55H1577.34Z" fill="#A1B1A7"/>
<path d="M1368.19 45.875C1372.2 45.875 1376.04 44.1959 1378.87 41.207C1381.7 38.2182 1383.29 34.1644 1383.29 29.9375C1383.29 25.7106 1381.7 21.6568 1378.87 18.668C1376.04 15.6791 1372.2 14 1368.19 14C1364.19 14 1360.35 15.6791 1357.52 18.668C1354.69 21.6568 1353.1 25.7106 1353.1 29.9375C1353.1 34.1644 1354.69 38.2182 1357.52 41.207C1360.35 44.1959 1364.19 45.875 1368.19 45.875ZM1378.26 29.9375C1378.26 32.7554 1377.2 35.4579 1375.31 37.4505C1373.42 39.4431 1370.86 40.5625 1368.19 40.5625C1365.53 40.5625 1362.97 39.4431 1361.08 37.4505C1359.19 35.4579 1358.13 32.7554 1358.13 29.9375C1358.13 27.1196 1359.19 24.4171 1361.08 22.4245C1362.97 20.4319 1365.53 19.3125 1368.19 19.3125C1370.86 19.3125 1373.42 20.4319 1375.31 22.4245C1377.2 24.4171 1378.26 27.1196 1378.26 29.9375ZM1398.39 72.4375C1398.39 77.75 1393.36 77.75 1393.36 77.75H1343.03C1343.03 77.75 1338 77.75 1338 72.4375C1338 67.125 1343.03 51.1875 1368.19 51.1875C1393.36 51.1875 1398.39 67.125 1398.39 72.4375ZM1393.36 72.4163C1393.35 71.1094 1392.58 67.1781 1389.17 63.5762C1385.89 60.1125 1379.71 56.5 1368.19 56.5C1356.67 56.5 1350.5 60.1125 1347.22 63.5762C1343.81 67.1781 1343.04 71.1094 1343.03 72.4163H1393.36Z" fill="#A1B1A7"/>
<rect x="163" y="100" width="137" height="43" rx="21.5" fill="#A1B1A7"/>
<path d="M197.538 111.636H200.481L207.402 128.54H207.64L214.561 111.636H217.504V132H215.197V116.528H214.998L208.635 132H206.407L200.044 116.528H199.845V132H197.538V111.636ZM228.534 132.318C227.062 132.318 225.793 131.993 224.725 131.344C223.665 130.688 222.846 129.773 222.269 128.599C221.699 127.42 221.414 126.047 221.414 124.483C221.414 122.919 221.699 121.54 222.269 120.347C222.846 119.147 223.648 118.212 224.676 117.543C225.71 116.866 226.916 116.528 228.295 116.528C229.09 116.528 229.876 116.661 230.651 116.926C231.427 117.191 232.133 117.622 232.769 118.219C233.406 118.809 233.913 119.591 234.291 120.565C234.669 121.54 234.857 122.74 234.857 124.165V125.159H223.085V123.131H232.471C232.471 122.269 232.299 121.5 231.954 120.824C231.616 120.148 231.132 119.614 230.502 119.223C229.879 118.832 229.143 118.636 228.295 118.636C227.36 118.636 226.552 118.868 225.869 119.332C225.193 119.79 224.672 120.386 224.308 121.122C223.943 121.858 223.761 122.647 223.761 123.489V124.841C223.761 125.994 223.96 126.972 224.357 127.774C224.762 128.57 225.322 129.176 226.038 129.594C226.754 130.005 227.586 130.21 228.534 130.21C229.15 130.21 229.707 130.124 230.204 129.952C230.708 129.773 231.142 129.508 231.507 129.156C231.871 128.798 232.153 128.354 232.352 127.824L234.619 128.46C234.38 129.229 233.979 129.905 233.416 130.489C232.852 131.065 232.156 131.516 231.328 131.841C230.499 132.159 229.568 132.318 228.534 132.318ZM240.774 122.812V132H238.427V116.727H240.694V119.114H240.893C241.251 118.338 241.794 117.715 242.524 117.244C243.253 116.767 244.194 116.528 245.347 116.528C246.382 116.528 247.286 116.741 248.062 117.165C248.838 117.582 249.441 118.219 249.872 119.074C250.302 119.922 250.518 120.996 250.518 122.295V132H248.171V122.455C248.171 121.255 247.86 120.32 247.237 119.651C246.614 118.974 245.758 118.636 244.671 118.636C243.922 118.636 243.253 118.799 242.663 119.124C242.079 119.448 241.619 119.922 241.281 120.545C240.943 121.169 240.774 121.924 240.774 122.812ZM264.431 125.756V116.727H266.778V132H264.431V129.415H264.272C263.914 130.19 263.357 130.85 262.601 131.393C261.846 131.93 260.891 132.199 259.738 132.199C258.783 132.199 257.935 131.99 257.192 131.572C256.45 131.148 255.867 130.512 255.442 129.663C255.018 128.808 254.806 127.731 254.806 126.432V116.727H257.153V126.273C257.153 127.386 257.464 128.275 258.087 128.938C258.717 129.6 259.519 129.932 260.493 129.932C261.077 129.932 261.67 129.783 262.273 129.484C262.883 129.186 263.394 128.729 263.805 128.112C264.222 127.496 264.431 126.71 264.431 125.756Z" fill="white"/>
<defs>
<clipPath id="clip0_319_215">
<rect width="128" height="128" fill="white" transform="translate(0 11)"/>
</clipPath>
</defs>
</svg>
