<svg width="1878" height="158" viewBox="0 0 1878 158" fill="none" xmlns="http://www.w3.org/2000/svg">
<g clip-path="url(#clip0_272_422)">
<path d="M127.987 56.232V116.253C127.987 122.811 122.46 128.13 115.743 127.946C109.259 127.766 104.183 122.364 104.183 115.989V56.232C104.183 55.275 104.974 54.494 105.952 54.494H110.786C111.763 54.494 112.554 55.271 112.554 56.232V116.115C112.554 117.911 114.038 119.607 115.866 119.72C117.92 119.845 119.629 118.241 119.629 116.253V56.232C119.629 55.275 120.42 54.494 121.397 54.494H126.231C127.209 54.494 128 55.271 128 56.232H127.987ZM21.037 98.355H1.768C0.79 98.355 0 99.132 0 100.093V104.881C0 105.838 0.79 106.615 1.769 106.615H7.304V137.262C7.304 138.223 8.094 139 9.073 139H13.741C14.714 139 15.509 138.223 15.509 137.262V106.615H21.045C22.018 106.615 22.814 105.838 22.814 104.877V100.089C22.814 99.129 22.023 98.351 21.044 98.351L21.036 98.355H21.037ZM101.93 74.985C101.93 86.545 92.36 95.945 80.6 95.945H80.32C68.56 95.945 58.99 86.541 58.99 74.985C58.99 63.43 68.56 54.025 80.32 54.025H80.6C92.364 54.025 101.93 63.43 101.93 74.985V74.985ZM93.716 74.985C93.716 67.883 87.832 62.097 80.6 62.097H80.31C73.083 62.097 67.2 67.879 67.2 74.985C67.2 82.092 73.08 87.869 80.31 87.869H80.6C87.828 87.869 93.716 82.092 93.716 74.985ZM126.219 130.774H105.947C104.97 130.774 104.179 131.551 104.179 132.512V137.262C104.179 138.223 104.97 139 105.947 139H126.219C127.196 139 127.987 138.223 127.987 137.262V132.512C127.987 131.551 127.196 130.774 126.219 130.774V130.774ZM1.769 51.62H11.394C12.368 51.62 13.163 50.843 13.163 49.882V45.132C13.163 44.175 12.372 43.394 11.394 43.394H8.367V12.738C8.367 11.777 7.577 11 6.598 11H1.768C0.792 11 0 11.777 0 12.738V49.886C0 50.843 0.79 51.624 1.769 51.624V51.62V51.62ZM112.546 19.222H126.219C127.196 19.222 127.987 18.445 127.987 17.484V12.738C127.987 11.777 127.196 11 126.219 11H105.947C104.97 11 104.179 11.777 104.179 12.738V49.886C104.179 50.843 104.97 51.624 105.947 51.624H126.219C127.196 51.624 127.987 50.847 127.987 49.886V45.136C127.987 44.179 127.196 43.398 126.219 43.398H112.546V35.43H125.564C126.542 35.43 127.333 34.653 127.333 33.692V28.942C127.333 27.985 126.542 27.204 125.564 27.204H112.546V19.222V19.222ZM15.514 49.41L26.959 12.257C27.0746 11.8906 27.3046 11.5708 27.6152 11.3446C27.9258 11.1184 28.3007 10.9976 28.685 11H34.769C35.1344 10.9976 35.4915 11.1089 35.7907 11.3186C36.0899 11.5282 36.3165 11.8258 36.439 12.17L49.51 49.3C49.914 50.449 49.046 51.648 47.805 51.648H42.74C42.3748 51.6498 42.0181 51.5381 41.719 51.3286C41.4198 51.119 41.1931 50.8219 41.07 50.478L39.305 45.465C39.1791 45.1145 38.9474 44.8118 38.642 44.5986C38.3365 44.3854 37.9724 44.2724 37.6 44.275H27.167C26.372 44.275 25.671 44.784 25.441 45.532L23.936 50.412C23.8222 50.7709 23.5966 51.0841 23.2922 51.3057C22.9878 51.5273 22.6205 51.6459 22.244 51.644H17.194C16.007 51.644 15.157 50.52 15.501 49.404L15.514 49.409V49.41ZM28.37 36.058H35.998L32.435 25.935C32.277 25.484 31.623 25.497 31.482 25.952L28.37 36.054V36.058ZM52.085 49.886V12.77C52.085 11.814 52.875 11.032 53.854 11.032H86.399C94.459 11.032 101.403 17.508 101.449 25.425C101.479 30.885 98.414 35.655 93.882 38.145L100.96 48.936C101.717 50.09 100.875 51.614 99.477 51.614H93.729C93.129 51.614 92.568 51.314 92.245 50.821L85.136 39.988H62.221C61.247 39.988 60.452 40.765 60.452 41.726V49.885C60.452 50.842 59.662 51.623 58.684 51.623H53.85C52.876 51.623 52.08 50.846 52.08 49.885H52.085V49.886ZM60.452 31.771H86.718C90.536 31.771 93.584 28.446 93.018 24.59C92.564 21.482 89.694 19.26 86.493 19.26H60.453V31.77L60.452 31.771ZM0 93.743V56.236C0 55.276 0.79 54.498 1.769 54.498H35.934C47.642 54.498 57.127 64.028 56.774 75.608C56.439 86.754 46.834 95.477 35.487 95.477H1.77C0.79 95.477 0 94.7 0 93.739V93.743V93.743ZM8.201 87.418H35.623C42.473 87.418 48.314 82.196 48.573 75.466C48.846 68.393 43.072 62.556 35.933 62.556H8.202V87.418H8.201ZM33.897 106.598H99.647C100.625 106.598 101.415 105.821 101.415 104.86V100.11C101.415 99.15 100.625 98.372 99.647 98.372H27.303C26.33 98.372 25.535 99.149 25.535 100.11V137.258C25.535 138.219 26.325 138.996 27.303 138.996H99.647C100.625 138.996 101.415 138.219 101.415 137.258V132.508C101.415 131.547 100.625 130.77 99.647 130.77H33.9V122.803H99.017C99.994 122.803 100.785 122.026 100.785 121.065V116.315C100.785 115.354 99.995 114.577 99.016 114.577H33.903V106.585L33.898 106.598H33.897Z" fill="#495465"/>
</g>
<line x1="-2.57086e-07" y1="157" x2="1878" y2="157" stroke="#495465" stroke-width="2"/>
<rect x="160" y="14" width="1134" height="64" rx="32" fill="#495465"/>
<path d="M206.051 52.0796C208.33 48.651 209.351 44.4001 208.909 40.1774C208.467 35.9546 206.595 32.0715 203.668 29.3048C200.741 26.5382 196.974 25.092 193.122 25.2557C189.269 25.4193 185.614 27.1808 182.889 30.1876C180.163 33.1943 178.568 37.2247 178.423 41.4724C178.277 45.7201 179.591 49.8718 182.103 53.0969C184.615 56.322 188.138 58.3827 191.969 58.8667C195.799 59.3507 199.654 58.2223 202.763 55.7072H202.76C202.831 55.811 202.906 55.9096 202.991 56.0056L212.053 65.9959C212.494 66.4828 213.093 66.7564 213.717 66.7567C214.341 66.7569 214.94 66.4837 215.382 65.9972C215.824 65.5106 216.072 64.8505 216.072 64.1622C216.072 63.4739 215.825 62.8136 215.383 62.3267L206.321 52.3365C206.237 52.2426 206.147 52.1559 206.051 52.077V52.0796ZM206.658 42.105C206.658 43.9792 206.323 45.835 205.673 47.5665C205.022 49.298 204.069 50.8714 202.866 52.1966C201.664 53.5219 200.237 54.5731 198.667 55.2903C197.096 56.0076 195.413 56.3767 193.713 56.3767C192.013 56.3767 190.329 56.0076 188.759 55.2903C187.188 54.5731 185.761 53.5219 184.559 52.1966C183.357 50.8714 182.403 49.298 181.753 47.5665C181.102 45.835 180.767 43.9792 180.767 42.105C180.767 38.3199 182.131 34.6898 184.559 32.0133C186.987 29.3368 190.279 27.8332 193.713 27.8332C197.146 27.8332 200.439 29.3368 202.866 32.0133C205.294 34.6898 206.658 38.3199 206.658 42.105V42.105Z" fill="#F4F4F2"/>
<path d="M256.398 47.1523C256.398 49.9136 255.9 52.3 254.902 54.3113C253.905 56.3227 252.537 57.8738 250.799 58.9648C249.06 60.0557 247.074 60.6011 244.841 60.6011C242.608 60.6011 240.623 60.0557 238.884 58.9648C237.145 57.8738 235.777 56.3227 234.78 54.3113C233.783 52.3 233.284 49.9136 233.284 47.1523C233.284 44.3909 233.783 42.0045 234.78 39.9932C235.777 37.9818 237.145 36.4307 238.884 35.3398C240.623 34.2488 242.608 33.7034 244.841 33.7034C247.074 33.7034 249.06 34.2488 250.799 35.3398C252.537 36.4307 253.905 37.9818 254.902 39.9932C255.9 42.0045 256.398 44.3909 256.398 47.1523ZM253.33 47.1523C253.33 44.8852 252.951 42.9719 252.192 41.4122C251.442 39.8525 250.424 38.6721 249.137 37.871C247.858 37.0699 246.426 36.6693 244.841 36.6693C243.256 36.6693 241.82 37.0699 240.533 37.871C239.255 38.6721 238.236 39.8525 237.478 41.4122C236.728 42.9719 236.353 44.8852 236.353 47.1523C236.353 49.4193 236.728 51.3327 237.478 52.8923C238.236 54.452 239.255 55.6324 240.533 56.4335C241.82 57.2346 243.256 57.6352 244.841 57.6352C246.426 57.6352 247.858 57.2346 249.137 56.4335C250.424 55.6324 251.442 54.452 252.192 52.8923C252.951 51.3327 253.33 49.4193 253.33 47.1523ZM284.843 67.6068V57.2261H284.587C284.365 57.5841 284.05 58.0358 283.641 58.5812C283.232 59.1182 282.648 59.5997 281.89 60.0258C281.131 60.4434 280.121 60.6523 278.86 60.6523C277.223 60.6523 275.779 60.2389 274.526 59.4122C273.273 58.577 272.293 57.4008 271.586 55.8838C270.878 54.3582 270.525 52.5557 270.525 50.4761C270.525 48.4136 270.878 46.6238 271.586 45.1068C272.293 43.5898 273.277 42.4179 274.539 41.5912C275.8 40.7645 277.257 40.3511 278.911 40.3511C280.189 40.3511 281.199 40.5642 281.941 40.9903C282.691 41.4079 283.262 41.8852 283.654 42.4221C284.054 42.9505 284.365 43.3852 284.587 43.7261H284.945V40.6068H287.86V67.6068H284.843ZM279.269 57.942C280.479 57.942 281.502 57.6267 282.337 56.996C283.172 56.3568 283.807 55.4747 284.242 54.3497C284.676 53.2162 284.894 51.9079 284.894 50.425C284.894 48.9591 284.681 47.6764 284.255 46.577C283.828 45.469 283.198 44.6082 282.363 43.9946C281.527 43.3724 280.496 43.0613 279.269 43.0613C277.99 43.0613 276.925 43.3895 276.073 44.0457C275.229 44.6934 274.594 45.5756 274.168 46.692C273.75 47.8 273.542 49.0443 273.542 50.425C273.542 51.8227 273.755 53.0926 274.181 54.2346C274.615 55.3682 275.255 56.2716 276.098 56.9449C276.951 57.6096 278.007 57.942 279.269 57.942ZM305.757 52.2148V40.6068H308.775V60.2432H305.757V56.9193H305.553C305.093 57.9165 304.377 58.7645 303.405 59.4633C302.434 60.1537 301.206 60.4988 299.723 60.4988C298.496 60.4988 297.405 60.2304 296.451 59.6934C295.496 59.148 294.746 58.3298 294.201 57.2389C293.655 56.1395 293.382 54.7545 293.382 53.0841V40.6068H296.4V52.8795C296.4 54.3113 296.8 55.4534 297.601 56.3057C298.411 57.1579 299.442 57.5841 300.695 57.5841C301.445 57.5841 302.208 57.3923 302.983 57.0088C303.767 56.6253 304.424 56.0372 304.952 55.2446C305.489 54.452 305.757 53.442 305.757 52.2148ZM322.533 60.6523C320.641 60.6523 319.009 60.2346 317.637 59.3994C316.273 58.5557 315.221 57.3795 314.479 55.871C313.746 54.354 313.38 52.5898 313.38 50.5784C313.38 48.567 313.746 46.7943 314.479 45.2602C315.221 43.7176 316.252 42.5159 317.573 41.6551C318.903 40.7858 320.454 40.3511 322.227 40.3511C323.249 40.3511 324.259 40.5216 325.256 40.8625C326.254 41.2034 327.161 41.7574 327.979 42.5244C328.798 43.2829 329.45 44.2886 329.935 45.5415C330.421 46.7943 330.664 48.3369 330.664 50.1693V51.4477H315.528V48.8398H327.596C327.596 47.7318 327.374 46.7432 326.931 45.8738C326.496 45.0045 325.874 44.3184 325.065 43.8156C324.263 43.3128 323.317 43.0613 322.227 43.0613C321.025 43.0613 319.985 43.3596 319.107 43.9562C318.238 44.5443 317.569 45.3113 317.1 46.2574C316.631 47.2034 316.397 48.2176 316.397 49.3V51.0386C316.397 52.5216 316.653 53.7787 317.164 54.8099C317.684 55.8327 318.404 56.6125 319.325 57.1494C320.245 57.6778 321.315 57.942 322.533 57.942C323.326 57.942 324.042 57.8312 324.681 57.6096C325.329 57.3795 325.887 57.0386 326.356 56.5869C326.825 56.1267 327.187 55.5557 327.442 54.8738L330.357 55.692C330.05 56.6807 329.535 57.55 328.81 58.3C328.086 59.0415 327.191 59.621 326.126 60.0386C325.06 60.4477 323.863 60.6523 322.533 60.6523ZM345.379 67.6068V40.6068H348.293V43.7261H348.651C348.873 43.3852 349.18 42.9505 349.572 42.4221C349.972 41.8852 350.543 41.4079 351.285 40.9903C352.035 40.5642 353.049 40.3511 354.327 40.3511C355.981 40.3511 357.438 40.7645 358.7 41.5912C359.961 42.4179 360.945 43.5898 361.653 45.1068C362.36 46.6238 362.714 48.4136 362.714 50.4761C362.714 52.5557 362.36 54.3582 361.653 55.8838C360.945 57.4008 359.965 58.577 358.712 59.4122C357.46 60.2389 356.015 60.6523 354.379 60.6523C353.117 60.6523 352.107 60.4434 351.349 60.0258C350.59 59.5997 350.006 59.1182 349.597 58.5812C349.188 58.0358 348.873 57.5841 348.651 57.2261H348.396V67.6068H345.379ZM348.344 50.425C348.344 51.9079 348.562 53.2162 348.996 54.3497C349.431 55.4747 350.066 56.3568 350.901 56.996C351.737 57.6267 352.759 57.942 353.969 57.942C355.231 57.942 356.283 57.6096 357.127 56.9449C357.979 56.2716 358.619 55.3682 359.045 54.2346C359.479 53.0926 359.697 51.8227 359.697 50.425C359.697 49.0443 359.484 47.8 359.058 46.692C358.64 45.5756 358.005 44.6934 357.153 44.0457C356.309 43.3895 355.248 43.0613 353.969 43.0613C352.742 43.0613 351.711 43.3724 350.876 43.9946C350.04 44.6082 349.41 45.469 348.984 46.577C348.558 47.6764 348.344 48.9591 348.344 50.425ZM367.316 60.2432V40.6068H370.231V43.5727H370.435C370.793 42.6011 371.441 41.8128 372.379 41.2077C373.316 40.6025 374.373 40.3 375.549 40.3C375.771 40.3 376.048 40.3042 376.38 40.3128C376.712 40.3213 376.964 40.3341 377.134 40.3511V43.4193C377.032 43.3937 376.798 43.3554 376.431 43.3042C376.073 43.2446 375.694 43.2148 375.293 43.2148C374.339 43.2148 373.487 43.415 372.737 43.8156C371.995 44.2077 371.407 44.7531 370.972 45.452C370.546 46.1423 370.333 46.9307 370.333 47.817V60.2432H367.316ZM388.09 60.6523C386.317 60.6523 384.762 60.2304 383.424 59.3866C382.094 58.5429 381.055 57.3625 380.305 55.8454C379.563 54.3284 379.192 52.5557 379.192 50.5273C379.192 48.4818 379.563 46.6963 380.305 45.1707C381.055 43.6452 382.094 42.4605 383.424 41.6167C384.762 40.773 386.317 40.3511 388.09 40.3511C389.863 40.3511 391.414 40.773 392.744 41.6167C394.082 42.4605 395.121 43.6452 395.863 45.1707C396.613 46.6963 396.988 48.4818 396.988 50.5273C396.988 52.5557 396.613 54.3284 395.863 55.8454C395.121 57.3625 394.082 58.5429 392.744 59.3866C391.414 60.2304 389.863 60.6523 388.09 60.6523ZM388.09 57.942C389.437 57.942 390.545 57.5969 391.414 56.9065C392.283 56.2162 392.927 55.3085 393.344 54.1835C393.762 53.0585 393.971 51.8398 393.971 50.5273C393.971 49.2148 393.762 47.9917 393.344 46.8582C392.927 45.7247 392.283 44.8085 391.414 44.1096C390.545 43.4108 389.437 43.0613 388.09 43.0613C386.744 43.0613 385.636 43.4108 384.766 44.1096C383.897 44.8085 383.254 45.7247 382.836 46.8582C382.418 47.9917 382.21 49.2148 382.21 50.5273C382.21 51.8398 382.418 53.0585 382.836 54.1835C383.254 55.3085 383.897 56.2162 384.766 56.9065C385.636 57.5969 386.744 57.942 388.09 57.942ZM409.571 60.6523C407.73 60.6523 406.145 60.2176 404.815 59.3483C403.485 58.479 402.463 57.2815 401.747 55.7559C401.031 54.2304 400.673 52.4875 400.673 50.5273C400.673 48.5329 401.039 46.773 401.772 45.2474C402.514 43.7133 403.545 42.5159 404.866 41.6551C406.196 40.7858 407.747 40.3511 409.52 40.3511C410.9 40.3511 412.145 40.6068 413.252 41.1182C414.36 41.6295 415.268 42.3454 415.975 43.2659C416.683 44.1863 417.122 45.2602 417.292 46.4875H414.275C414.045 45.5926 413.534 44.8 412.741 44.1096C411.957 43.4108 410.9 43.0613 409.571 43.0613C408.395 43.0613 407.363 43.3682 406.477 43.9818C405.599 44.5869 404.913 45.4434 404.419 46.5514C403.933 47.6508 403.69 48.942 403.69 50.425C403.69 51.942 403.929 53.2631 404.406 54.3881C404.892 55.5131 405.574 56.3866 406.451 57.0088C407.338 57.6309 408.377 57.942 409.571 57.942C410.355 57.942 411.066 57.8057 411.706 57.5329C412.345 57.2602 412.886 56.8682 413.329 56.3568C413.772 55.8454 414.088 55.2318 414.275 54.5159H417.292C417.122 55.675 416.7 56.719 416.027 57.648C415.362 58.5684 414.48 59.3014 413.38 59.8469C412.289 60.3838 411.02 60.6523 409.571 60.6523ZM434.078 52.2148V40.6068H437.095V60.2432H434.078V56.9193H433.873C433.413 57.9165 432.697 58.7645 431.725 59.4633C430.754 60.1537 429.527 60.4988 428.044 60.4988C426.816 60.4988 425.725 60.2304 424.771 59.6934C423.816 59.148 423.066 58.3298 422.521 57.2389C421.975 56.1395 421.703 54.7545 421.703 53.0841V40.6068H424.72V52.8795C424.72 54.3113 425.12 55.4534 425.922 56.3057C426.731 57.1579 427.762 57.5841 429.015 57.5841C429.765 57.5841 430.528 57.3923 431.304 57.0088C432.088 56.6253 432.744 56.0372 433.272 55.2446C433.809 54.452 434.078 53.442 434.078 52.2148ZM442.621 60.2432V40.6068H445.536V43.5727H445.74C446.098 42.6011 446.746 41.8128 447.683 41.2077C448.621 40.6025 449.678 40.3 450.854 40.3C451.075 40.3 451.352 40.3042 451.685 40.3128C452.017 40.3213 452.268 40.3341 452.439 40.3511V43.4193C452.337 43.3937 452.102 43.3554 451.736 43.3042C451.378 43.2446 450.999 43.2148 450.598 43.2148C449.643 43.2148 448.791 43.415 448.041 43.8156C447.3 44.2077 446.712 44.7531 446.277 45.452C445.851 46.1423 445.638 46.9307 445.638 47.817V60.2432H442.621ZM461.794 60.7034C460.549 60.7034 459.42 60.469 458.406 60.0003C457.392 59.523 456.586 58.8369 455.99 57.942C455.393 57.0386 455.095 55.9477 455.095 54.6693C455.095 53.5443 455.316 52.6324 455.76 51.9335C456.203 51.2261 456.795 50.6721 457.537 50.2716C458.278 49.871 459.096 49.5727 459.991 49.3767C460.895 49.1721 461.802 49.0102 462.714 48.8909C463.907 48.7375 464.875 48.6224 465.616 48.5457C466.366 48.4605 466.912 48.3199 467.252 48.1238C467.602 47.9278 467.777 47.5869 467.777 47.1011V46.9988C467.777 45.7375 467.431 44.7574 466.741 44.0585C466.059 43.3596 465.024 43.0102 463.635 43.0102C462.194 43.0102 461.065 43.3256 460.247 43.9562C459.429 44.5869 458.853 45.2602 458.521 45.9761L455.657 44.9534C456.169 43.7602 456.85 42.8312 457.703 42.1665C458.564 41.4932 459.501 41.0244 460.515 40.7602C461.538 40.4875 462.544 40.3511 463.532 40.3511C464.163 40.3511 464.887 40.4278 465.706 40.5812C466.532 40.7261 467.329 41.0287 468.096 41.4889C468.872 41.9491 469.515 42.6437 470.027 43.5727C470.538 44.5017 470.794 45.746 470.794 47.3057V60.2432H467.777V57.5841H467.623C467.419 58.0102 467.078 58.4662 466.6 58.952C466.123 59.4378 465.488 59.8511 464.696 60.192C463.903 60.5329 462.936 60.7034 461.794 60.7034ZM462.254 57.9932C463.447 57.9932 464.453 57.7588 465.271 57.29C466.098 56.8213 466.72 56.2162 467.137 55.4747C467.564 54.7332 467.777 53.9534 467.777 53.1352V50.3738C467.649 50.5273 467.368 50.6679 466.933 50.7957C466.507 50.915 466.012 51.0216 465.45 51.1153C464.896 51.2006 464.355 51.2773 463.826 51.3454C463.306 51.4051 462.885 51.4562 462.561 51.4988C461.777 51.6011 461.044 51.7673 460.362 51.9974C459.689 52.219 459.143 52.5557 458.725 53.0074C458.316 53.4506 458.112 54.0557 458.112 54.8227C458.112 55.871 458.5 56.6636 459.275 57.2006C460.059 57.729 461.052 57.9932 462.254 57.9932ZM480.238 52.8795V52.7261C480.255 51.0983 480.425 49.8028 480.749 48.8398C481.073 47.8767 481.533 47.0969 482.13 46.5003C482.727 45.9037 483.442 45.354 484.278 44.8511C484.781 44.5443 485.232 44.1821 485.633 43.7645C486.033 43.3383 486.349 42.8483 486.579 42.2943C486.817 41.7403 486.937 41.1267 486.937 40.4534C486.937 39.6182 486.741 38.8937 486.349 38.2801C485.957 37.6665 485.433 37.1934 484.776 36.8611C484.12 36.5287 483.391 36.3625 482.59 36.3625C481.891 36.3625 481.218 36.5074 480.57 36.7971C479.923 37.0869 479.381 37.5429 478.947 38.165C478.512 38.7872 478.261 39.6011 478.192 40.6068H474.971C475.039 39.1579 475.414 37.9179 476.096 36.8866C476.786 35.8554 477.694 35.067 478.819 34.5216C479.952 33.9761 481.21 33.7034 482.59 33.7034C484.09 33.7034 485.394 34.0017 486.502 34.5983C487.619 35.1949 488.479 36.013 489.085 37.0528C489.698 38.0926 490.005 39.2773 490.005 40.6068C490.005 41.5443 489.86 42.3923 489.57 43.1508C489.289 43.9094 488.88 44.5869 488.343 45.1835C487.815 45.7801 487.175 46.3085 486.425 46.7687C485.675 47.2375 485.075 47.7318 484.623 48.2517C484.171 48.7631 483.843 49.3724 483.638 50.0798C483.434 50.7872 483.323 51.6693 483.306 52.7261V52.8795H480.238ZM481.874 60.4477C481.244 60.4477 480.702 60.2219 480.251 59.7702C479.799 59.3184 479.573 58.7773 479.573 58.1466C479.573 57.5159 479.799 56.9747 480.251 56.523C480.702 56.0713 481.244 55.8454 481.874 55.8454C482.505 55.8454 483.046 56.0713 483.498 56.523C483.95 56.9747 484.175 57.5159 484.175 58.1466C484.175 58.5642 484.069 58.9477 483.856 59.2971C483.651 59.6466 483.374 59.9278 483.025 60.1409C482.684 60.3454 482.3 60.4477 481.874 60.4477Z" fill="#F4F4F2"/>
<rect width="367" height="92" transform="translate(1301)" fill="#F4F4F2"/>
<rect x="1301" y="3.58447" width="367" height="86.026" rx="43.013" fill="#F4F4F2"/>
<path d="M1405.17 65V38.8182H1420.97V41.6307H1408.34V50.4773H1420.15V53.2898H1408.34V62.1875H1421.18V65H1405.17ZM1429.29 53.1875V65H1426.28V45.3636H1429.19V48.4318H1429.45C1429.91 47.4347 1430.61 46.6335 1431.54 46.0284C1432.48 45.4148 1433.69 45.108 1435.17 45.108C1436.5 45.108 1437.67 45.3807 1438.66 45.9261C1439.66 46.4631 1440.44 47.2812 1440.99 48.3807C1441.55 49.4716 1441.82 50.8523 1441.82 52.5227V65H1438.81V52.7273C1438.81 51.1847 1438.4 49.983 1437.6 49.1222C1436.8 48.2528 1435.7 47.8182 1434.31 47.8182C1433.34 47.8182 1432.48 48.027 1431.72 48.4446C1430.97 48.8622 1430.38 49.4716 1429.95 50.2727C1429.51 51.0739 1429.29 52.0455 1429.29 53.1875ZM1455.88 45.3636V47.9205H1445.7V45.3636H1455.88ZM1448.67 40.6591H1451.68V59.375C1451.68 60.2273 1451.81 60.8665 1452.05 61.2926C1452.31 61.7102 1452.63 61.9915 1453.02 62.1364C1453.43 62.2727 1453.85 62.3409 1454.29 62.3409C1454.62 62.3409 1454.9 62.3239 1455.11 62.2898C1455.32 62.2472 1455.49 62.2131 1455.62 62.1875L1456.23 64.8977C1456.03 64.9744 1455.74 65.0511 1455.38 65.1278C1455.01 65.2131 1454.55 65.2557 1453.98 65.2557C1453.13 65.2557 1452.3 65.0724 1451.48 64.706C1450.67 64.3395 1449.99 63.7812 1449.46 63.0312C1448.93 62.2812 1448.67 61.3352 1448.67 60.1932V40.6591ZM1460.41 65V45.3636H1463.33V48.3295H1463.53C1463.89 47.358 1464.54 46.5696 1465.48 45.9645C1466.41 45.3594 1467.47 45.0568 1468.65 45.0568C1468.87 45.0568 1469.15 45.0611 1469.48 45.0696C1469.81 45.0781 1470.06 45.0909 1470.23 45.108V48.1761C1470.13 48.1506 1469.9 48.1122 1469.53 48.0611C1469.17 48.0014 1468.79 47.9716 1468.39 47.9716C1467.44 47.9716 1466.58 48.1719 1465.83 48.5724C1465.09 48.9645 1464.5 49.5099 1464.07 50.2088C1463.64 50.8991 1463.43 51.6875 1463.43 52.5739V65H1460.41ZM1479.59 65.4602C1478.34 65.4602 1477.21 65.2259 1476.2 64.7571C1475.18 64.2798 1474.38 63.5938 1473.78 62.6989C1473.19 61.7955 1472.89 60.7045 1472.89 59.4261C1472.89 58.3011 1473.11 57.3892 1473.55 56.6903C1474 55.983 1474.59 55.429 1475.33 55.0284C1476.07 54.6278 1476.89 54.3295 1477.78 54.1335C1478.69 53.929 1479.6 53.767 1480.51 53.6477C1481.7 53.4943 1482.67 53.3793 1483.41 53.3026C1484.16 53.2173 1484.7 53.0767 1485.05 52.8807C1485.39 52.6847 1485.57 52.3437 1485.57 51.858V51.7557C1485.57 50.4943 1485.22 49.5142 1484.53 48.8153C1483.85 48.1165 1482.82 47.767 1481.43 47.767C1479.99 47.767 1478.86 48.0824 1478.04 48.7131C1477.22 49.3437 1476.65 50.017 1476.31 50.733L1473.45 49.7102C1473.96 48.517 1474.64 47.5881 1475.5 46.9233C1476.36 46.25 1477.29 45.7812 1478.31 45.517C1479.33 45.2443 1480.34 45.108 1481.33 45.108C1481.96 45.108 1482.68 45.1847 1483.5 45.3381C1484.33 45.483 1485.12 45.7855 1485.89 46.2457C1486.66 46.706 1487.31 47.4006 1487.82 48.3295C1488.33 49.2585 1488.59 50.5028 1488.59 52.0625V65H1485.57V62.3409H1485.42C1485.21 62.767 1484.87 63.223 1484.39 63.7088C1483.92 64.1946 1483.28 64.608 1482.49 64.9489C1481.7 65.2898 1480.73 65.4602 1479.59 65.4602ZM1480.05 62.75C1481.24 62.75 1482.25 62.5156 1483.06 62.0469C1483.89 61.5781 1484.51 60.973 1484.93 60.2315C1485.36 59.4901 1485.57 58.7102 1485.57 57.892V55.1307C1485.44 55.2841 1485.16 55.4247 1484.73 55.5526C1484.3 55.6719 1483.81 55.7784 1483.24 55.8722C1482.69 55.9574 1482.15 56.0341 1481.62 56.1023C1481.1 56.1619 1480.68 56.2131 1480.35 56.2557C1479.57 56.358 1478.84 56.5241 1478.15 56.7543C1477.48 56.9759 1476.94 57.3125 1476.52 57.7642C1476.11 58.2074 1475.9 58.8125 1475.9 59.5795C1475.9 60.6278 1476.29 61.4205 1477.07 61.9574C1477.85 62.4858 1478.85 62.75 1480.05 62.75ZM1494.09 65V45.3636H1497.01V48.3295H1497.21C1497.57 47.358 1498.22 46.5696 1499.16 45.9645C1500.09 45.3594 1501.15 45.0568 1502.33 45.0568C1502.55 45.0568 1502.82 45.0611 1503.16 45.0696C1503.49 45.0781 1503.74 45.0909 1503.91 45.108V48.1761C1503.81 48.1506 1503.57 48.1122 1503.21 48.0611C1502.85 48.0014 1502.47 47.9716 1502.07 47.9716C1501.12 47.9716 1500.26 48.1719 1499.51 48.5724C1498.77 48.9645 1498.18 49.5099 1497.75 50.2088C1497.32 50.8991 1497.11 51.6875 1497.11 52.5739V65H1494.09ZM1515.51 37.5909L1507.08 68.9375H1504.31L1512.75 37.5909H1515.51ZM1519.5 65V38.8182H1528.35C1530.39 38.8182 1532.07 39.1676 1533.38 39.8665C1534.69 40.5568 1535.67 41.5071 1536.3 42.7173C1536.93 43.9276 1537.24 45.304 1537.24 46.8466C1537.24 48.3892 1536.93 49.7571 1536.3 50.9503C1535.67 52.1435 1534.7 53.081 1533.39 53.7628C1532.09 54.4361 1530.42 54.7727 1528.4 54.7727H1521.24V51.9091H1528.29C1529.69 51.9091 1530.82 51.7045 1531.67 51.2955C1532.53 50.8864 1533.15 50.3068 1533.54 49.5568C1533.93 48.7983 1534.12 47.8949 1534.12 46.8466C1534.12 45.7983 1533.93 44.8821 1533.54 44.098C1533.14 43.3139 1532.52 42.7088 1531.66 42.2827C1530.8 41.848 1529.66 41.6307 1528.24 41.6307H1522.67V65H1519.5ZM1531.82 53.2386L1538.27 65H1534.58L1528.24 53.2386H1531.82ZM1550.14 65.4091C1548.25 65.4091 1546.61 64.9915 1545.24 64.1562C1543.88 63.3125 1542.83 62.1364 1542.08 60.6278C1541.35 59.1108 1540.99 57.3466 1540.99 55.3352C1540.99 53.3239 1541.35 51.5511 1542.08 50.017C1542.83 48.4744 1543.86 47.2727 1545.18 46.4119C1546.51 45.5426 1548.06 45.108 1549.83 45.108C1550.85 45.108 1551.86 45.2784 1552.86 45.6193C1553.86 45.9602 1554.77 46.5142 1555.58 47.2812C1556.4 48.0398 1557.06 49.0455 1557.54 50.2983C1558.03 51.5511 1558.27 53.0937 1558.27 54.9261V56.2045H1543.13V53.5966H1555.2C1555.2 52.4886 1554.98 51.5 1554.54 50.6307C1554.1 49.7614 1553.48 49.0753 1552.67 48.5724C1551.87 48.0696 1550.92 47.8182 1549.83 47.8182C1548.63 47.8182 1547.59 48.1165 1546.71 48.7131C1545.84 49.3011 1545.17 50.0682 1544.71 51.0142C1544.24 51.9602 1544 52.9744 1544 54.0568V55.7955C1544 57.2784 1544.26 58.5355 1544.77 59.5668C1545.29 60.5895 1546.01 61.3693 1546.93 61.9062C1547.85 62.4347 1548.92 62.6989 1550.14 62.6989C1550.93 62.6989 1551.65 62.5881 1552.29 62.3665C1552.93 62.1364 1553.49 61.7955 1553.96 61.3438C1554.43 60.8835 1554.79 60.3125 1555.05 59.6307L1557.96 60.4489C1557.66 61.4375 1557.14 62.3068 1556.42 63.0568C1555.69 63.7983 1554.8 64.3778 1553.73 64.7955C1552.67 65.2045 1551.47 65.4091 1550.14 65.4091ZM1570.79 72.7727C1569.33 72.7727 1568.07 72.5852 1567.03 72.2102C1565.98 71.8438 1565.1 71.358 1564.41 70.7528C1563.72 70.1563 1563.17 69.517 1562.76 68.8352L1565.16 67.1477C1565.43 67.5057 1565.78 67.9148 1566.2 68.375C1566.61 68.8438 1567.18 69.2486 1567.91 69.5895C1568.64 69.9389 1569.6 70.1136 1570.79 70.1136C1572.37 70.1136 1573.68 69.7301 1574.71 68.9631C1575.74 68.196 1576.26 66.9943 1576.26 65.358V61.3693H1576C1575.78 61.7273 1575.46 62.1705 1575.06 62.6989C1574.65 63.2188 1574.07 63.6832 1573.32 64.0923C1572.57 64.4929 1571.55 64.6932 1570.27 64.6932C1568.69 64.6932 1567.27 64.3182 1566 63.5682C1564.75 62.8182 1563.76 61.7273 1563.03 60.2955C1562.3 58.8636 1561.94 57.125 1561.94 55.0795C1561.94 53.0682 1562.29 51.3168 1563 49.8253C1563.71 48.3253 1564.69 47.1662 1565.95 46.348C1567.21 45.5213 1568.67 45.108 1570.32 45.108C1571.6 45.108 1572.62 45.321 1573.37 45.7472C1574.13 46.1648 1574.71 46.642 1575.11 47.179C1575.52 47.7074 1575.83 48.142 1576.05 48.483H1576.36V45.3636H1579.27V65.5625C1579.27 67.25 1578.89 68.6222 1578.12 69.679C1577.36 70.7443 1576.34 71.5241 1575.06 72.0185C1573.78 72.5213 1572.35 72.7727 1570.79 72.7727ZM1570.68 61.983C1571.89 61.983 1572.92 61.706 1573.75 61.152C1574.59 60.598 1575.22 59.8011 1575.66 58.7614C1576.09 57.7216 1576.31 56.4773 1576.31 55.0284C1576.31 53.6136 1576.09 52.3651 1575.67 51.2827C1575.24 50.2003 1574.61 49.3523 1573.78 48.7386C1572.94 48.125 1571.91 47.8182 1570.68 47.8182C1569.4 47.8182 1568.34 48.142 1567.49 48.7898C1566.64 49.4375 1566.01 50.3068 1565.58 51.3977C1565.16 52.4886 1564.96 53.6989 1564.96 55.0284C1564.96 56.392 1565.17 57.598 1565.59 58.6463C1566.03 59.6861 1566.67 60.5043 1567.51 61.1009C1568.36 61.6889 1569.42 61.983 1570.68 61.983ZM1584.8 65V45.3636H1587.81V65H1584.8ZM1586.33 42.0909C1585.74 42.0909 1585.24 41.8906 1584.81 41.4901C1584.39 41.0895 1584.18 40.608 1584.18 40.0455C1584.18 39.483 1584.39 39.0014 1584.81 38.6009C1585.24 38.2003 1585.74 38 1586.33 38C1586.92 38 1587.42 38.2003 1587.84 38.6009C1588.27 39.0014 1588.48 39.483 1588.48 40.0455C1588.48 40.608 1588.27 41.0895 1587.84 41.4901C1587.42 41.8906 1586.92 42.0909 1586.33 42.0909ZM1607.25 49.7614L1604.54 50.5284C1604.37 50.0767 1604.12 49.6378 1603.78 49.2116C1603.46 48.777 1603.02 48.419 1602.45 48.1378C1601.89 47.8565 1601.17 47.7159 1600.29 47.7159C1599.09 47.7159 1598.09 47.9929 1597.29 48.5469C1596.5 49.0923 1596.1 49.7869 1596.1 50.6307C1596.1 51.3807 1596.37 51.973 1596.92 52.4077C1597.46 52.8423 1598.32 53.2045 1599.48 53.4943L1602.39 54.2102C1604.15 54.6364 1605.45 55.2884 1606.32 56.1662C1607.18 57.0355 1607.61 58.1562 1607.61 59.5284C1607.61 60.6534 1607.28 61.6591 1606.63 62.5455C1606 63.4318 1605.1 64.1307 1603.95 64.642C1602.8 65.1534 1601.46 65.4091 1599.94 65.4091C1597.93 65.4091 1596.28 64.9744 1594.96 64.1051C1593.65 63.2358 1592.82 61.9659 1592.47 60.2955L1595.33 59.5795C1595.61 60.6364 1596.12 61.429 1596.88 61.9574C1597.65 62.4858 1598.65 62.75 1599.88 62.75C1601.29 62.75 1602.41 62.4517 1603.23 61.8551C1604.07 61.25 1604.49 60.5256 1604.49 59.6818C1604.49 59 1604.25 58.429 1603.77 57.9688C1603.29 57.5 1602.56 57.1506 1601.57 56.9205L1598.3 56.1534C1596.5 55.7273 1595.18 55.0668 1594.34 54.1719C1593.5 53.2685 1593.08 52.1392 1593.08 50.7841C1593.08 49.6761 1593.39 48.696 1594.02 47.8438C1594.65 46.9915 1595.5 46.3224 1596.59 45.8366C1597.68 45.3509 1598.91 45.108 1600.29 45.108C1602.24 45.108 1603.76 45.5341 1604.87 46.3864C1605.99 47.2386 1606.78 48.3636 1607.25 49.7614ZM1620.69 45.3636V47.9205H1610.51V45.3636H1620.69ZM1613.48 40.6591H1616.49V59.375C1616.49 60.2273 1616.62 60.8665 1616.87 61.2926C1617.12 61.7102 1617.44 61.9915 1617.84 62.1364C1618.24 62.2727 1618.66 62.3409 1619.1 62.3409C1619.44 62.3409 1619.71 62.3239 1619.92 62.2898C1620.13 62.2472 1620.3 62.2131 1620.43 62.1875L1621.05 64.8977C1620.84 64.9744 1620.56 65.0511 1620.19 65.1278C1619.82 65.2131 1619.36 65.2557 1618.8 65.2557C1617.94 65.2557 1617.11 65.0724 1616.29 64.706C1615.48 64.3395 1614.81 63.7812 1614.27 63.0312C1613.74 62.2812 1613.48 61.3352 1613.48 60.1932V40.6591ZM1631 65.4602C1629.76 65.4602 1628.63 65.2259 1627.62 64.7571C1626.6 64.2798 1625.8 63.5938 1625.2 62.6989C1624.6 61.7955 1624.31 60.7045 1624.31 59.4261C1624.31 58.3011 1624.53 57.3892 1624.97 56.6903C1625.41 55.983 1626.01 55.429 1626.75 55.0284C1627.49 54.6278 1628.31 54.3295 1629.2 54.1335C1630.11 53.929 1631.01 53.767 1631.93 53.6477C1633.12 53.4943 1634.09 53.3793 1634.83 53.3026C1635.58 53.2173 1636.12 53.0767 1636.46 52.8807C1636.81 52.6847 1636.99 52.3437 1636.99 51.858V51.7557C1636.99 50.4943 1636.64 49.5142 1635.95 48.8153C1635.27 48.1165 1634.23 47.767 1632.85 47.767C1631.41 47.767 1630.28 48.0824 1629.46 48.7131C1628.64 49.3437 1628.06 50.017 1627.73 50.733L1624.87 49.7102C1625.38 48.517 1626.06 47.5881 1626.91 46.9233C1627.77 46.25 1628.71 45.7812 1629.73 45.517C1630.75 45.2443 1631.75 45.108 1632.74 45.108C1633.37 45.108 1634.1 45.1847 1634.92 45.3381C1635.74 45.483 1636.54 45.7855 1637.31 46.2457C1638.08 46.706 1638.73 47.4006 1639.24 48.3295C1639.75 49.2585 1640 50.5028 1640 52.0625V65H1636.99V62.3409H1636.83C1636.63 62.767 1636.29 63.223 1635.81 63.7088C1635.33 64.1946 1634.7 64.608 1633.91 64.9489C1633.11 65.2898 1632.15 65.4602 1631 65.4602ZM1631.46 62.75C1632.66 62.75 1633.66 62.5156 1634.48 62.0469C1635.31 61.5781 1635.93 60.973 1636.35 60.2315C1636.77 59.4901 1636.99 58.7102 1636.99 57.892V55.1307C1636.86 55.2841 1636.58 55.4247 1636.14 55.5526C1635.72 55.6719 1635.22 55.7784 1634.66 55.8722C1634.11 55.9574 1633.57 56.0341 1633.04 56.1023C1632.52 56.1619 1632.1 56.2131 1631.77 56.2557C1630.99 56.358 1630.25 56.5241 1629.57 56.7543C1628.9 56.9759 1628.35 57.3125 1627.94 57.7642C1627.53 58.2074 1627.32 58.8125 1627.32 59.5795C1627.32 60.6278 1627.71 61.4205 1628.49 61.9574C1629.27 62.4858 1630.26 62.75 1631.46 62.75ZM1645.51 65V45.3636H1648.43V48.3295H1648.63C1648.99 47.358 1649.64 46.5696 1650.57 45.9645C1651.51 45.3594 1652.57 45.0568 1653.74 45.0568C1653.97 45.0568 1654.24 45.0611 1654.58 45.0696C1654.91 45.0781 1655.16 45.0909 1655.33 45.108V48.1761C1655.23 48.1506 1654.99 48.1122 1654.63 48.0611C1654.27 48.0014 1653.89 47.9716 1653.49 47.9716C1652.53 47.9716 1651.68 48.1719 1650.93 48.5724C1650.19 48.9645 1649.6 49.5099 1649.17 50.2088C1648.74 50.8991 1648.53 51.6875 1648.53 52.5739V65H1645.51Z" fill="#495465"/>
<path d="M1730 26.6796L1726.95 23.5472C1719.8 16.1945 1706.68 18.7318 1701.95 27.9759C1699.73 32.3237 1699.23 38.6012 1703.28 46.6127C1707.19 54.3267 1715.33 63.5664 1730 73.6307C1744.67 63.5664 1752.8 54.3267 1756.72 46.6127C1760.78 38.5969 1760.28 32.3237 1758.05 27.9759C1753.32 18.7318 1740.2 16.1902 1733.05 23.543L1730 26.6796ZM1730 78.7521C1664.83 35.6898 1709.94 2.07981 1729.25 19.8581C1729.51 20.0919 1729.76 20.3341 1730 20.5849C1730.24 20.3343 1730.49 20.0933 1730.75 19.8624C1750.06 2.07131 1795.17 35.6856 1730 78.7521Z" fill="#495465"/>
<path d="M1837.89 12.9844C1840.53 12.9844 1843.07 14.0338 1844.93 15.9019C1846.8 17.7699 1847.85 20.3035 1847.85 22.9453V24.9375H1827.93V22.9453C1827.93 20.3035 1828.98 17.7699 1830.85 15.9019C1832.72 14.0338 1835.25 12.9844 1837.89 12.9844ZM1851.84 24.9375V22.9453C1851.84 19.2468 1850.37 15.6997 1847.75 13.0845C1845.14 10.4692 1841.59 9 1837.89 9C1834.19 9 1830.65 10.4692 1828.03 13.0845C1825.41 15.6997 1823.95 19.2468 1823.95 22.9453V24.9375H1810V64.7812C1810 66.8947 1810.84 68.9216 1812.33 70.416C1813.83 71.9104 1815.86 72.75 1817.97 72.75H1857.81C1859.93 72.75 1861.95 71.9104 1863.45 70.416C1864.94 68.9216 1865.78 66.8947 1865.78 64.7812V24.9375H1851.84ZM1813.98 28.9219H1861.8V64.7812C1861.8 65.838 1861.38 66.8514 1860.63 67.5986C1859.88 68.3458 1858.87 68.7656 1857.81 68.7656H1817.97C1816.91 68.7656 1815.9 68.3458 1815.15 67.5986C1814.4 66.8514 1813.98 65.838 1813.98 64.7812V28.9219Z" fill="#495465"/>
<rect x="163" y="100" width="137" height="43" rx="21.5" fill="#495465"/>
<path d="M197.538 111.636H200.481L207.402 128.54H207.64L214.561 111.636H217.504V132H215.197V116.528H214.998L208.635 132H206.407L200.044 116.528H199.845V132H197.538V111.636ZM228.534 132.318C227.062 132.318 225.793 131.993 224.725 131.344C223.665 130.688 222.846 129.773 222.269 128.599C221.699 127.42 221.414 126.047 221.414 124.483C221.414 122.919 221.699 121.54 222.269 120.347C222.846 119.147 223.648 118.212 224.676 117.543C225.71 116.866 226.916 116.528 228.295 116.528C229.09 116.528 229.876 116.661 230.651 116.926C231.427 117.191 232.133 117.622 232.769 118.219C233.406 118.809 233.913 119.591 234.291 120.565C234.669 121.54 234.857 122.74 234.857 124.165V125.159H223.085V123.131H232.471C232.471 122.269 232.299 121.5 231.954 120.824C231.616 120.148 231.132 119.614 230.502 119.223C229.879 118.832 229.143 118.636 228.295 118.636C227.36 118.636 226.552 118.868 225.869 119.332C225.193 119.79 224.672 120.386 224.308 121.122C223.943 121.858 223.761 122.647 223.761 123.489V124.841C223.761 125.994 223.96 126.972 224.357 127.774C224.762 128.57 225.322 129.176 226.038 129.594C226.754 130.005 227.586 130.21 228.534 130.21C229.15 130.21 229.707 130.124 230.204 129.952C230.708 129.773 231.142 129.508 231.507 129.156C231.871 128.798 232.153 128.354 232.352 127.824L234.619 128.46C234.38 129.229 233.979 129.905 233.416 130.489C232.852 131.065 232.156 131.516 231.328 131.841C230.499 132.159 229.568 132.318 228.534 132.318ZM240.774 122.812V132H238.427V116.727H240.694V119.114H240.893C241.251 118.338 241.794 117.715 242.524 117.244C243.253 116.767 244.194 116.528 245.347 116.528C246.382 116.528 247.286 116.741 248.062 117.165C248.838 117.582 249.441 118.219 249.872 119.074C250.302 119.922 250.518 120.996 250.518 122.295V132H248.171V122.455C248.171 121.255 247.86 120.32 247.237 119.651C246.614 118.974 245.758 118.636 244.671 118.636C243.922 118.636 243.253 118.799 242.663 119.124C242.079 119.448 241.619 119.922 241.281 120.545C240.943 121.169 240.774 121.924 240.774 122.812ZM264.431 125.756V116.727H266.778V132H264.431V129.415H264.272C263.914 130.19 263.357 130.85 262.601 131.393C261.846 131.93 260.891 132.199 259.738 132.199C258.783 132.199 257.935 131.99 257.192 131.572C256.45 131.148 255.867 130.512 255.442 129.663C255.018 128.808 254.806 127.731 254.806 126.432V116.727H257.153V126.273C257.153 127.386 257.464 128.275 258.087 128.938C258.717 129.6 259.519 129.932 260.493 129.932C261.077 129.932 261.67 129.783 262.273 129.484C262.883 129.186 263.394 128.729 263.805 128.112C264.222 127.496 264.431 126.71 264.431 125.756Z" fill="#F4F4F2"/>
<rect x="317" y="100" width="108" height="43" rx="21.5" fill="#495465"/>
<path d="M359.03 118H356.916C356.791 117.392 356.573 116.858 356.26 116.398C355.953 115.938 355.578 115.551 355.135 115.239C354.698 114.92 354.212 114.682 353.678 114.523C353.144 114.364 352.587 114.284 352.007 114.284C350.95 114.284 349.993 114.551 349.135 115.085C348.283 115.619 347.604 116.406 347.098 117.446C346.598 118.486 346.348 119.761 346.348 121.273C346.348 122.784 346.598 124.06 347.098 125.099C347.604 126.139 348.283 126.926 349.135 127.46C349.993 127.994 350.95 128.261 352.007 128.261C352.587 128.261 353.144 128.182 353.678 128.023C354.212 127.864 354.698 127.628 355.135 127.315C355.578 126.997 355.953 126.608 356.26 126.148C356.573 125.682 356.791 125.148 356.916 124.545H359.03C358.871 125.437 358.581 126.236 358.161 126.94C357.74 127.645 357.217 128.244 356.592 128.739C355.967 129.227 355.266 129.599 354.487 129.855C353.715 130.111 352.888 130.239 352.007 130.239C350.519 130.239 349.195 129.875 348.036 129.148C346.876 128.42 345.965 127.386 345.3 126.045C344.635 124.705 344.303 123.114 344.303 121.273C344.303 119.432 344.635 117.841 345.3 116.5C345.965 115.159 346.876 114.125 348.036 113.398C349.195 112.67 350.519 112.307 352.007 112.307C352.888 112.307 353.715 112.435 354.487 112.69C355.266 112.946 355.967 113.321 356.592 113.815C357.217 114.304 357.74 114.901 358.161 115.605C358.581 116.304 358.871 117.102 359.03 118ZM366.025 130.307C365.195 130.307 364.443 130.151 363.766 129.838C363.09 129.52 362.553 129.062 362.156 128.466C361.758 127.864 361.559 127.136 361.559 126.284C361.559 125.534 361.707 124.926 362.002 124.46C362.298 123.989 362.693 123.619 363.187 123.352C363.681 123.085 364.227 122.886 364.823 122.756C365.426 122.619 366.031 122.511 366.639 122.432C367.434 122.33 368.079 122.253 368.573 122.202C369.073 122.145 369.437 122.051 369.664 121.92C369.897 121.79 370.014 121.562 370.014 121.239V121.17C370.014 120.33 369.783 119.676 369.323 119.21C368.869 118.744 368.178 118.511 367.252 118.511C366.292 118.511 365.539 118.722 364.994 119.142C364.448 119.562 364.065 120.011 363.843 120.489L361.934 119.807C362.275 119.011 362.729 118.392 363.298 117.949C363.872 117.5 364.497 117.187 365.173 117.011C365.854 116.83 366.525 116.739 367.184 116.739C367.604 116.739 368.087 116.79 368.633 116.892C369.184 116.989 369.715 117.19 370.227 117.497C370.744 117.804 371.173 118.267 371.514 118.886C371.854 119.506 372.025 120.335 372.025 121.375V130H370.014V128.227H369.911C369.775 128.511 369.548 128.815 369.229 129.139C368.911 129.463 368.488 129.739 367.96 129.966C367.431 130.193 366.786 130.307 366.025 130.307ZM366.332 128.5C367.127 128.5 367.798 128.344 368.343 128.031C368.894 127.719 369.309 127.315 369.587 126.821C369.872 126.327 370.014 125.807 370.014 125.261V123.42C369.928 123.523 369.741 123.616 369.451 123.702C369.167 123.781 368.837 123.852 368.462 123.915C368.093 123.972 367.732 124.023 367.38 124.068C367.033 124.108 366.752 124.142 366.536 124.17C366.014 124.239 365.525 124.349 365.07 124.503C364.622 124.651 364.258 124.875 363.979 125.176C363.707 125.472 363.57 125.875 363.57 126.386C363.57 127.085 363.829 127.614 364.346 127.972C364.869 128.324 365.531 128.5 366.332 128.5ZM384.969 119.841L383.162 120.352C383.048 120.051 382.881 119.759 382.659 119.474C382.443 119.185 382.148 118.946 381.773 118.759C381.398 118.571 380.918 118.477 380.332 118.477C379.531 118.477 378.864 118.662 378.33 119.031C377.801 119.395 377.537 119.858 377.537 120.42C377.537 120.92 377.719 121.315 378.082 121.605C378.446 121.895 379.014 122.136 379.787 122.33L381.73 122.807C382.901 123.091 383.773 123.526 384.347 124.111C384.921 124.69 385.207 125.437 385.207 126.352C385.207 127.102 384.992 127.773 384.56 128.364C384.134 128.955 383.537 129.42 382.77 129.761C382.003 130.102 381.111 130.273 380.094 130.273C378.759 130.273 377.653 129.983 376.778 129.403C375.903 128.824 375.35 127.977 375.117 126.864L377.026 126.386C377.207 127.091 377.551 127.619 378.057 127.972C378.568 128.324 379.236 128.5 380.06 128.5C380.997 128.5 381.742 128.301 382.293 127.903C382.85 127.5 383.128 127.017 383.128 126.455C383.128 126 382.969 125.619 382.651 125.312C382.332 125 381.844 124.767 381.185 124.614L379.003 124.102C377.804 123.818 376.923 123.378 376.361 122.781C375.804 122.179 375.526 121.426 375.526 120.523C375.526 119.784 375.733 119.131 376.148 118.562C376.568 117.994 377.139 117.548 377.861 117.224C378.588 116.901 379.412 116.739 380.332 116.739C381.628 116.739 382.645 117.023 383.384 117.591C384.128 118.159 384.656 118.909 384.969 119.841ZM392.087 130.307C391.258 130.307 390.505 130.151 389.829 129.838C389.153 129.52 388.616 129.062 388.218 128.466C387.82 127.864 387.622 127.136 387.622 126.284C387.622 125.534 387.769 124.926 388.065 124.46C388.36 123.989 388.755 123.619 389.249 123.352C389.744 123.085 390.289 122.886 390.886 122.756C391.488 122.619 392.093 122.511 392.701 122.432C393.497 122.33 394.141 122.253 394.636 122.202C395.136 122.145 395.499 122.051 395.727 121.92C395.96 121.79 396.076 121.562 396.076 121.239V121.17C396.076 120.33 395.846 119.676 395.386 119.21C394.931 118.744 394.241 118.511 393.315 118.511C392.354 118.511 391.602 118.722 391.056 119.142C390.511 119.562 390.127 120.011 389.906 120.489L387.997 119.807C388.337 119.011 388.792 118.392 389.36 117.949C389.934 117.5 390.559 117.187 391.235 117.011C391.917 116.83 392.587 116.739 393.247 116.739C393.667 116.739 394.15 116.79 394.695 116.892C395.247 116.989 395.778 117.19 396.289 117.497C396.806 117.804 397.235 118.267 397.576 118.886C397.917 119.506 398.087 120.335 398.087 121.375V130H396.076V128.227H395.974C395.837 128.511 395.61 128.815 395.292 129.139C394.974 129.463 394.551 129.739 394.022 129.966C393.494 130.193 392.849 130.307 392.087 130.307ZM392.394 128.5C393.19 128.5 393.86 128.344 394.406 128.031C394.957 127.719 395.372 127.315 395.65 126.821C395.934 126.327 396.076 125.807 396.076 125.261V123.42C395.991 123.523 395.803 123.616 395.514 123.702C395.229 123.781 394.9 123.852 394.525 123.915C394.156 123.972 393.795 124.023 393.443 124.068C393.096 124.108 392.815 124.142 392.599 124.17C392.076 124.239 391.587 124.349 391.133 124.503C390.684 124.651 390.32 124.875 390.042 125.176C389.769 125.472 389.633 125.875 389.633 126.386C389.633 127.085 389.891 127.614 390.408 127.972C390.931 128.324 391.593 128.5 392.394 128.5Z" fill="#F4F4F2"/>
<rect x="442" y="100" width="117" height="43" rx="21.5" fill="#495465"/>
<path d="M470.99 112.545H473.512L479.444 127.034H479.649L485.581 112.545H488.103V130H486.126V116.739H485.956L480.501 130H478.592L473.137 116.739H472.967V130H470.99V112.545ZM497.387 130.273C496.205 130.273 495.168 129.991 494.276 129.429C493.39 128.866 492.696 128.08 492.196 127.068C491.702 126.057 491.455 124.875 491.455 123.523C491.455 122.159 491.702 120.969 492.196 119.952C492.696 118.935 493.39 118.145 494.276 117.582C495.168 117.02 496.205 116.739 497.387 116.739C498.569 116.739 499.603 117.02 500.489 117.582C501.381 118.145 502.074 118.935 502.569 119.952C503.069 120.969 503.319 122.159 503.319 123.523C503.319 124.875 503.069 126.057 502.569 127.068C502.074 128.08 501.381 128.866 500.489 129.429C499.603 129.991 498.569 130.273 497.387 130.273ZM497.387 128.466C498.284 128.466 499.023 128.236 499.603 127.776C500.182 127.315 500.611 126.71 500.89 125.96C501.168 125.21 501.307 124.398 501.307 123.523C501.307 122.648 501.168 121.832 500.89 121.077C500.611 120.321 500.182 119.71 499.603 119.244C499.023 118.778 498.284 118.545 497.387 118.545C496.489 118.545 495.75 118.778 495.171 119.244C494.591 119.71 494.162 120.321 493.884 121.077C493.606 121.832 493.466 122.648 493.466 123.523C493.466 124.398 493.606 125.21 493.884 125.96C494.162 126.71 494.591 127.315 495.171 127.776C495.75 128.236 496.489 128.466 497.387 128.466ZM511.332 130.273C510.241 130.273 509.278 129.997 508.443 129.446C507.608 128.889 506.954 128.105 506.483 127.094C506.011 126.077 505.775 124.875 505.775 123.489C505.775 122.114 506.011 120.92 506.483 119.909C506.954 118.898 507.61 118.116 508.451 117.565C509.292 117.014 510.264 116.739 511.366 116.739C512.218 116.739 512.892 116.881 513.386 117.165C513.886 117.443 514.267 117.761 514.528 118.119C514.795 118.472 515.003 118.761 515.15 118.989H515.321V112.545H517.332V130H515.389V127.989H515.15C515.003 128.227 514.792 128.528 514.52 128.892C514.247 129.25 513.858 129.571 513.352 129.855C512.846 130.134 512.173 130.273 511.332 130.273ZM511.605 128.466C512.412 128.466 513.093 128.256 513.65 127.835C514.207 127.409 514.63 126.821 514.92 126.071C515.21 125.315 515.355 124.443 515.355 123.455C515.355 122.477 515.213 121.622 514.929 120.889C514.645 120.151 514.224 119.577 513.667 119.168C513.11 118.753 512.423 118.545 511.605 118.545C510.753 118.545 510.042 118.764 509.474 119.202C508.912 119.634 508.488 120.222 508.204 120.966C507.926 121.705 507.787 122.534 507.787 123.455C507.787 124.386 507.929 125.233 508.213 125.994C508.503 126.75 508.929 127.352 509.491 127.801C510.059 128.244 510.764 128.466 511.605 128.466ZM525.147 130.307C524.318 130.307 523.565 130.151 522.889 129.838C522.213 129.52 521.676 129.062 521.278 128.466C520.88 127.864 520.682 127.136 520.682 126.284C520.682 125.534 520.829 124.926 521.125 124.46C521.42 123.989 521.815 123.619 522.309 123.352C522.804 123.085 523.349 122.886 523.946 122.756C524.548 122.619 525.153 122.511 525.761 122.432C526.557 122.33 527.201 122.253 527.696 122.202C528.196 122.145 528.559 122.051 528.787 121.92C529.02 121.79 529.136 121.562 529.136 121.239V121.17C529.136 120.33 528.906 119.676 528.446 119.21C527.991 118.744 527.301 118.511 526.375 118.511C525.414 118.511 524.662 118.722 524.116 119.142C523.571 119.562 523.187 120.011 522.966 120.489L521.057 119.807C521.397 119.011 521.852 118.392 522.42 117.949C522.994 117.5 523.619 117.187 524.295 117.011C524.977 116.83 525.647 116.739 526.307 116.739C526.727 116.739 527.21 116.79 527.755 116.892C528.307 116.989 528.838 117.19 529.349 117.497C529.866 117.804 530.295 118.267 530.636 118.886C530.977 119.506 531.147 120.335 531.147 121.375V130H529.136V128.227H529.034C528.897 128.511 528.67 128.815 528.352 129.139C528.034 129.463 527.61 129.739 527.082 129.966C526.554 130.193 525.909 130.307 525.147 130.307ZM525.454 128.5C526.25 128.5 526.92 128.344 527.466 128.031C528.017 127.719 528.432 127.315 528.71 126.821C528.994 126.327 529.136 125.807 529.136 125.261V123.42C529.051 123.523 528.863 123.616 528.574 123.702C528.289 123.781 527.96 123.852 527.585 123.915C527.216 123.972 526.855 124.023 526.503 124.068C526.156 124.108 525.875 124.142 525.659 124.17C525.136 124.239 524.647 124.349 524.193 124.503C523.744 124.651 523.38 124.875 523.102 125.176C522.829 125.472 522.693 125.875 522.693 126.386C522.693 127.085 522.951 127.614 523.468 127.972C523.991 128.324 524.653 128.5 525.454 128.5Z" fill="#F4F4F2"/>
<rect x="576" y="100" width="128" height="43" rx="21.5" fill="#495465"/>
<path d="M622.504 121.273C622.504 123.114 622.171 124.705 621.506 126.045C620.842 127.386 619.93 128.42 618.771 129.148C617.612 129.875 616.288 130.239 614.799 130.239C613.31 130.239 611.987 129.875 610.827 129.148C609.668 128.42 608.756 127.386 608.092 126.045C607.427 124.705 607.094 123.114 607.094 121.273C607.094 119.432 607.427 117.841 608.092 116.5C608.756 115.159 609.668 114.125 610.827 113.398C611.987 112.67 613.31 112.307 614.799 112.307C616.288 112.307 617.612 112.67 618.771 113.398C619.93 114.125 620.842 115.159 621.506 116.5C622.171 117.841 622.504 119.432 622.504 121.273ZM620.458 121.273C620.458 119.761 620.205 118.486 619.7 117.446C619.2 116.406 618.521 115.619 617.663 115.085C616.81 114.551 615.856 114.284 614.799 114.284C613.742 114.284 612.785 114.551 611.927 115.085C611.075 115.619 610.396 116.406 609.89 117.446C609.39 118.486 609.14 119.761 609.14 121.273C609.14 122.784 609.39 124.06 609.89 125.099C610.396 126.139 611.075 126.926 611.927 127.46C612.785 127.994 613.742 128.261 614.799 128.261C615.856 128.261 616.81 127.994 617.663 127.46C618.521 126.926 619.2 126.139 619.7 125.099C620.205 124.06 620.458 122.784 620.458 121.273ZM634.035 124.648V116.909H636.046V130H634.035V127.784H633.898C633.592 128.449 633.114 129.014 632.467 129.48C631.819 129.94 631.001 130.17 630.012 130.17C629.194 130.17 628.467 129.991 627.83 129.634C627.194 129.27 626.694 128.724 626.33 127.997C625.967 127.264 625.785 126.341 625.785 125.227V116.909H627.796V125.091C627.796 126.045 628.063 126.807 628.597 127.375C629.137 127.943 629.825 128.227 630.66 128.227C631.16 128.227 631.668 128.099 632.185 127.844C632.708 127.588 633.146 127.196 633.498 126.668C633.856 126.139 634.035 125.466 634.035 124.648ZM645.423 116.909V118.614H638.639V116.909H645.423ZM640.616 113.773H642.628V126.25C642.628 126.818 642.71 127.244 642.875 127.528C643.045 127.807 643.261 127.994 643.523 128.091C643.79 128.182 644.071 128.227 644.366 128.227C644.588 128.227 644.77 128.216 644.912 128.193C645.054 128.165 645.168 128.142 645.253 128.125L645.662 129.932C645.526 129.983 645.335 130.034 645.091 130.085C644.847 130.142 644.537 130.17 644.162 130.17C643.594 130.17 643.037 130.048 642.491 129.804C641.952 129.56 641.503 129.188 641.145 128.688C640.793 128.188 640.616 127.557 640.616 126.795V113.773ZM650.741 112.545V130H648.73V112.545H650.741ZM659.914 130.273C658.653 130.273 657.565 129.994 656.65 129.438C655.741 128.875 655.039 128.091 654.545 127.085C654.056 126.074 653.812 124.898 653.812 123.557C653.812 122.216 654.056 121.034 654.545 120.011C655.039 118.983 655.727 118.182 656.607 117.608C657.494 117.028 658.528 116.739 659.71 116.739C660.391 116.739 661.065 116.852 661.729 117.08C662.394 117.307 662.999 117.676 663.545 118.188C664.09 118.693 664.525 119.364 664.849 120.199C665.173 121.034 665.335 122.062 665.335 123.284V124.136H655.244V122.398H663.289C663.289 121.659 663.141 121 662.846 120.42C662.556 119.841 662.141 119.384 661.602 119.048C661.067 118.713 660.437 118.545 659.71 118.545C658.908 118.545 658.215 118.744 657.63 119.142C657.05 119.534 656.604 120.045 656.292 120.676C655.979 121.307 655.823 121.983 655.823 122.705V123.864C655.823 124.852 655.994 125.69 656.335 126.378C656.681 127.06 657.161 127.58 657.775 127.938C658.389 128.29 659.102 128.466 659.914 128.466C660.442 128.466 660.92 128.392 661.346 128.244C661.778 128.091 662.15 127.864 662.462 127.562C662.775 127.256 663.016 126.875 663.187 126.42L665.13 126.966C664.925 127.625 664.582 128.205 664.099 128.705C663.616 129.199 663.019 129.585 662.309 129.864C661.599 130.136 660.8 130.273 659.914 130.273ZM674.087 116.909V118.614H667.303V116.909H674.087ZM669.281 113.773H671.292V126.25C671.292 126.818 671.374 127.244 671.539 127.528C671.71 127.807 671.925 127.994 672.187 128.091C672.454 128.182 672.735 128.227 673.031 128.227C673.252 128.227 673.434 128.216 673.576 128.193C673.718 128.165 673.832 128.142 673.917 128.125L674.326 129.932C674.19 129.983 673.999 130.034 673.755 130.085C673.511 130.142 673.201 130.17 672.826 130.17C672.258 130.17 671.701 130.048 671.156 129.804C670.616 129.56 670.167 129.188 669.809 128.688C669.457 128.188 669.281 127.557 669.281 126.795V113.773Z" fill="#F4F4F2"/>
<rect x="721" y="100" width="151" height="43" rx="21.5" fill="#495465"/>
<path d="M757.727 112.545H760.25L766.182 127.034H766.386L772.318 112.545H774.841V130H772.864V116.739H772.693L767.239 130H765.33L759.875 116.739H759.705V130H757.727V112.545ZM782.658 130.307C781.829 130.307 781.076 130.151 780.4 129.838C779.724 129.52 779.187 129.062 778.789 128.466C778.391 127.864 778.193 127.136 778.193 126.284C778.193 125.534 778.34 124.926 778.636 124.46C778.931 123.989 779.326 123.619 779.82 123.352C780.315 123.085 780.86 122.886 781.457 122.756C782.059 122.619 782.664 122.511 783.272 122.432C784.068 122.33 784.712 122.253 785.207 122.202C785.707 122.145 786.07 122.051 786.298 121.92C786.531 121.79 786.647 121.562 786.647 121.239V121.17C786.647 120.33 786.417 119.676 785.957 119.21C785.502 118.744 784.812 118.511 783.886 118.511C782.925 118.511 782.173 118.722 781.627 119.142C781.082 119.562 780.698 120.011 780.477 120.489L778.568 119.807C778.908 119.011 779.363 118.392 779.931 117.949C780.505 117.5 781.13 117.187 781.806 117.011C782.488 116.83 783.158 116.739 783.818 116.739C784.238 116.739 784.721 116.79 785.266 116.892C785.818 116.989 786.349 117.19 786.86 117.497C787.377 117.804 787.806 118.267 788.147 118.886C788.488 119.506 788.658 120.335 788.658 121.375V130H786.647V128.227H786.545C786.408 128.511 786.181 128.815 785.863 129.139C785.545 129.463 785.121 129.739 784.593 129.966C784.065 130.193 783.42 130.307 782.658 130.307ZM782.965 128.5C783.761 128.5 784.431 128.344 784.977 128.031C785.528 127.719 785.943 127.315 786.221 126.821C786.505 126.327 786.647 125.807 786.647 125.261V123.42C786.562 123.523 786.374 123.616 786.085 123.702C785.8 123.781 785.471 123.852 785.096 123.915C784.727 123.972 784.366 124.023 784.014 124.068C783.667 124.108 783.386 124.142 783.17 124.17C782.647 124.239 782.158 124.349 781.704 124.503C781.255 124.651 780.891 124.875 780.613 125.176C780.34 125.472 780.204 125.875 780.204 126.386C780.204 127.085 780.462 127.614 780.979 127.972C781.502 128.324 782.164 128.5 782.965 128.5ZM792.33 130V116.909H794.273V118.886H794.409C794.648 118.239 795.08 117.713 795.705 117.31C796.33 116.906 797.034 116.705 797.818 116.705C797.966 116.705 798.151 116.707 798.372 116.713C798.594 116.719 798.761 116.727 798.875 116.739V118.784C798.807 118.767 798.651 118.741 798.406 118.707C798.168 118.668 797.915 118.648 797.648 118.648C797.011 118.648 796.443 118.781 795.943 119.048C795.449 119.31 795.057 119.673 794.767 120.139C794.483 120.599 794.341 121.125 794.341 121.716V130H792.33ZM806.179 130.273C804.952 130.273 803.895 129.983 803.009 129.403C802.122 128.824 801.44 128.026 800.963 127.009C800.486 125.991 800.247 124.83 800.247 123.523C800.247 122.193 800.492 121.02 800.98 120.003C801.474 118.98 802.162 118.182 803.043 117.608C803.929 117.028 804.963 116.739 806.145 116.739C807.065 116.739 807.895 116.909 808.634 117.25C809.372 117.591 809.977 118.068 810.449 118.682C810.92 119.295 811.213 120.011 811.327 120.83H809.315C809.162 120.233 808.821 119.705 808.293 119.244C807.77 118.778 807.065 118.545 806.179 118.545C805.395 118.545 804.707 118.75 804.117 119.159C803.531 119.562 803.074 120.134 802.744 120.872C802.42 121.605 802.259 122.466 802.259 123.455C802.259 124.466 802.418 125.347 802.736 126.097C803.06 126.847 803.514 127.429 804.099 127.844C804.69 128.259 805.384 128.466 806.179 128.466C806.702 128.466 807.176 128.375 807.602 128.193C808.028 128.011 808.389 127.75 808.685 127.409C808.98 127.068 809.19 126.659 809.315 126.182H811.327C811.213 126.955 810.932 127.651 810.483 128.27C810.04 128.884 809.452 129.372 808.719 129.736C807.992 130.094 807.145 130.273 806.179 130.273ZM818.119 130.307C817.29 130.307 816.537 130.151 815.861 129.838C815.185 129.52 814.648 129.062 814.25 128.466C813.852 127.864 813.653 127.136 813.653 126.284C813.653 125.534 813.801 124.926 814.097 124.46C814.392 123.989 814.787 123.619 815.281 123.352C815.776 123.085 816.321 122.886 816.918 122.756C817.52 122.619 818.125 122.511 818.733 122.432C819.528 122.33 820.173 122.253 820.668 122.202C821.168 122.145 821.531 122.051 821.759 121.92C821.992 121.79 822.108 121.562 822.108 121.239V121.17C822.108 120.33 821.878 119.676 821.418 119.21C820.963 118.744 820.273 118.511 819.347 118.511C818.386 118.511 817.634 118.722 817.088 119.142C816.543 119.562 816.159 120.011 815.938 120.489L814.028 119.807C814.369 119.011 814.824 118.392 815.392 117.949C815.966 117.5 816.591 117.187 817.267 117.011C817.949 116.83 818.619 116.739 819.278 116.739C819.699 116.739 820.182 116.79 820.727 116.892C821.278 116.989 821.81 117.19 822.321 117.497C822.838 117.804 823.267 118.267 823.608 118.886C823.949 119.506 824.119 120.335 824.119 121.375V130H822.108V128.227H822.006C821.869 128.511 821.642 128.815 821.324 129.139C821.006 129.463 820.582 129.739 820.054 129.966C819.526 130.193 818.881 130.307 818.119 130.307ZM818.426 128.5C819.222 128.5 819.892 128.344 820.438 128.031C820.989 127.719 821.403 127.315 821.682 126.821C821.966 126.327 822.108 125.807 822.108 125.261V123.42C822.023 123.523 821.835 123.616 821.545 123.702C821.261 123.781 820.932 123.852 820.557 123.915C820.188 123.972 819.827 124.023 819.474 124.068C819.128 124.108 818.847 124.142 818.631 124.17C818.108 124.239 817.619 124.349 817.165 124.503C816.716 124.651 816.352 124.875 816.074 125.176C815.801 125.472 815.665 125.875 815.665 126.386C815.665 127.085 815.923 127.614 816.44 127.972C816.963 128.324 817.625 128.5 818.426 128.5ZM837.063 119.841L835.256 120.352C835.143 120.051 834.975 119.759 834.754 119.474C834.538 119.185 834.242 118.946 833.867 118.759C833.492 118.571 833.012 118.477 832.427 118.477C831.626 118.477 830.958 118.662 830.424 119.031C829.896 119.395 829.631 119.858 829.631 120.42C829.631 120.92 829.813 121.315 830.177 121.605C830.541 121.895 831.109 122.136 831.881 122.33L833.825 122.807C834.995 123.091 835.867 123.526 836.441 124.111C837.015 124.69 837.302 125.437 837.302 126.352C837.302 127.102 837.086 127.773 836.654 128.364C836.228 128.955 835.631 129.42 834.864 129.761C834.097 130.102 833.205 130.273 832.188 130.273C830.853 130.273 829.748 129.983 828.873 129.403C827.998 128.824 827.444 127.977 827.211 126.864L829.12 126.386C829.302 127.091 829.646 127.619 830.151 127.972C830.663 128.324 831.33 128.5 832.154 128.5C833.092 128.5 833.836 128.301 834.387 127.903C834.944 127.5 835.222 127.017 835.222 126.455C835.222 126 835.063 125.619 834.745 125.312C834.427 125 833.938 124.767 833.279 124.614L831.097 124.102C829.898 123.818 829.018 123.378 828.455 122.781C827.898 122.179 827.62 121.426 827.62 120.523C827.62 119.784 827.827 119.131 828.242 118.562C828.663 117.994 829.234 117.548 829.955 117.224C830.683 116.901 831.506 116.739 832.427 116.739C833.722 116.739 834.739 117.023 835.478 117.591C836.222 118.159 836.751 118.909 837.063 119.841Z" fill="#F4F4F2"/>
<rect x="889" y="100" width="221" height="43" rx="21.5" fill="#495465"/>
<path d="M917.846 119.841L916.039 120.352C915.925 120.051 915.758 119.759 915.536 119.474C915.32 119.185 915.025 118.946 914.65 118.759C914.275 118.571 913.795 118.477 913.21 118.477C912.408 118.477 911.741 118.662 911.207 119.031C910.678 119.395 910.414 119.858 910.414 120.42C910.414 120.92 910.596 121.315 910.96 121.605C911.323 121.895 911.891 122.136 912.664 122.33L914.607 122.807C915.778 123.091 916.65 123.526 917.224 124.111C917.798 124.69 918.085 125.437 918.085 126.352C918.085 127.102 917.869 127.773 917.437 128.364C917.011 128.955 916.414 129.42 915.647 129.761C914.88 130.102 913.988 130.273 912.971 130.273C911.636 130.273 910.531 129.983 909.656 129.403C908.781 128.824 908.227 127.977 907.994 126.864L909.903 126.386C910.085 127.091 910.428 127.619 910.934 127.972C911.445 128.324 912.113 128.5 912.937 128.5C913.874 128.5 914.619 128.301 915.17 127.903C915.727 127.5 916.005 127.017 916.005 126.455C916.005 126 915.846 125.619 915.528 125.312C915.21 125 914.721 124.767 914.062 124.614L911.88 124.102C910.681 123.818 909.8 123.378 909.238 122.781C908.681 122.179 908.403 121.426 908.403 120.523C908.403 119.784 908.61 119.131 909.025 118.562C909.445 117.994 910.016 117.548 910.738 117.224C911.465 116.901 912.289 116.739 913.21 116.739C914.505 116.739 915.522 117.023 916.261 117.591C917.005 118.159 917.533 118.909 917.846 119.841ZM929.362 124.648V116.909H931.374V130H929.362V127.784H929.226C928.919 128.449 928.442 129.014 927.794 129.48C927.146 129.94 926.328 130.17 925.34 130.17C924.521 130.17 923.794 129.991 923.158 129.634C922.521 129.27 922.021 128.724 921.658 127.997C921.294 127.264 921.112 126.341 921.112 125.227V116.909H923.124V125.091C923.124 126.045 923.391 126.807 923.925 127.375C924.465 127.943 925.152 128.227 925.987 128.227C926.487 128.227 926.996 128.099 927.513 127.844C928.036 127.588 928.473 127.196 928.825 126.668C929.183 126.139 929.362 125.466 929.362 124.648ZM944.33 119.841L942.524 120.352C942.41 120.051 942.242 119.759 942.021 119.474C941.805 119.185 941.509 118.946 941.134 118.759C940.759 118.571 940.279 118.477 939.694 118.477C938.893 118.477 938.225 118.662 937.691 119.031C937.163 119.395 936.899 119.858 936.899 120.42C936.899 120.92 937.08 121.315 937.444 121.605C937.808 121.895 938.376 122.136 939.149 122.33L941.092 122.807C942.262 123.091 943.134 123.526 943.708 124.111C944.282 124.69 944.569 125.437 944.569 126.352C944.569 127.102 944.353 127.773 943.921 128.364C943.495 128.955 942.899 129.42 942.131 129.761C941.364 130.102 940.472 130.273 939.455 130.273C938.12 130.273 937.015 129.983 936.14 129.403C935.265 128.824 934.711 127.977 934.478 126.864L936.387 126.386C936.569 127.091 936.913 127.619 937.418 127.972C937.93 128.324 938.597 128.5 939.421 128.5C940.359 128.5 941.103 128.301 941.654 127.903C942.211 127.5 942.489 127.017 942.489 126.455C942.489 126 942.33 125.619 942.012 125.312C941.694 125 941.205 124.767 940.546 124.614L938.364 124.102C937.166 123.818 936.285 123.378 935.722 122.781C935.166 122.179 934.887 121.426 934.887 120.523C934.887 119.784 935.095 119.131 935.509 118.562C935.93 117.994 936.501 117.548 937.222 117.224C937.95 116.901 938.774 116.739 939.694 116.739C940.989 116.739 942.006 117.023 942.745 117.591C943.489 118.159 944.018 118.909 944.33 119.841ZM953.29 116.909V118.614H946.506V116.909H953.29ZM948.483 113.773H950.494V126.25C950.494 126.818 950.577 127.244 950.742 127.528C950.912 127.807 951.128 127.994 951.389 128.091C951.656 128.182 951.938 128.227 952.233 128.227C952.455 128.227 952.636 128.216 952.778 128.193C952.921 128.165 953.034 128.142 953.119 128.125L953.528 129.932C953.392 129.983 953.202 130.034 952.957 130.085C952.713 130.142 952.403 130.17 952.028 130.17C951.46 130.17 950.903 130.048 950.358 129.804C949.818 129.56 949.369 129.188 949.011 128.688C948.659 128.188 948.483 127.557 948.483 126.795V113.773ZM961.663 130.273C960.402 130.273 959.314 129.994 958.399 129.438C957.49 128.875 956.788 128.091 956.294 127.085C955.805 126.074 955.561 124.898 955.561 123.557C955.561 122.216 955.805 121.034 956.294 120.011C956.788 118.983 957.476 118.182 958.357 117.608C959.243 117.028 960.277 116.739 961.459 116.739C962.141 116.739 962.814 116.852 963.479 117.08C964.144 117.307 964.749 117.676 965.294 118.188C965.84 118.693 966.274 119.364 966.598 120.199C966.922 121.034 967.084 122.062 967.084 123.284V124.136H956.993V122.398H965.038C965.038 121.659 964.891 121 964.595 120.42C964.305 119.841 963.891 119.384 963.351 119.048C962.817 118.713 962.186 118.545 961.459 118.545C960.658 118.545 959.965 118.744 959.379 119.142C958.8 119.534 958.354 120.045 958.041 120.676C957.729 121.307 957.573 121.983 957.573 122.705V123.864C957.573 124.852 957.743 125.69 958.084 126.378C958.43 127.06 958.911 127.58 959.524 127.938C960.138 128.29 960.851 128.466 961.663 128.466C962.192 128.466 962.669 128.392 963.095 128.244C963.527 128.091 963.899 127.864 964.212 127.562C964.524 127.256 964.766 126.875 964.936 126.42L966.879 126.966C966.675 127.625 966.331 128.205 965.848 128.705C965.365 129.199 964.769 129.585 964.058 129.864C963.348 130.136 962.55 130.273 961.663 130.273ZM972.155 122.125V130H970.144V116.909H972.087V118.955H972.257C972.564 118.29 973.03 117.756 973.655 117.352C974.28 116.943 975.087 116.739 976.075 116.739C976.962 116.739 977.737 116.92 978.402 117.284C979.067 117.642 979.584 118.188 979.953 118.92C980.323 119.648 980.507 120.568 980.507 121.682V130H978.496V121.818C978.496 120.79 978.229 119.989 977.695 119.415C977.161 118.835 976.428 118.545 975.496 118.545C974.854 118.545 974.28 118.685 973.774 118.963C973.274 119.241 972.879 119.648 972.59 120.182C972.3 120.716 972.155 121.364 972.155 122.125ZM989.876 116.909V118.614H983.092V116.909H989.876ZM985.069 113.773H987.08V126.25C987.08 126.818 987.163 127.244 987.327 127.528C987.498 127.807 987.714 127.994 987.975 128.091C988.242 128.182 988.524 128.227 988.819 128.227C989.041 128.227 989.222 128.216 989.364 128.193C989.506 128.165 989.62 128.142 989.705 128.125L990.114 129.932C989.978 129.983 989.788 130.034 989.543 130.085C989.299 130.142 988.989 130.17 988.614 130.17C988.046 130.17 987.489 130.048 986.944 129.804C986.404 129.56 985.955 129.188 985.597 128.688C985.245 128.188 985.069 127.557 985.069 126.795V113.773ZM996.754 130.307C995.924 130.307 995.171 130.151 994.495 129.838C993.819 129.52 993.282 129.062 992.884 128.466C992.487 127.864 992.288 127.136 992.288 126.284C992.288 125.534 992.435 124.926 992.731 124.46C993.026 123.989 993.421 123.619 993.916 123.352C994.41 123.085 994.955 122.886 995.552 122.756C996.154 122.619 996.759 122.511 997.367 122.432C998.163 122.33 998.808 122.253 999.302 122.202C999.802 122.145 1000.17 122.051 1000.39 121.92C1000.63 121.79 1000.74 121.562 1000.74 121.239V121.17C1000.74 120.33 1000.51 119.676 1000.05 119.21C999.597 118.744 998.907 118.511 997.981 118.511C997.021 118.511 996.268 118.722 995.722 119.142C995.177 119.562 994.793 120.011 994.572 120.489L992.663 119.807C993.004 119.011 993.458 118.392 994.026 117.949C994.6 117.5 995.225 117.187 995.901 117.011C996.583 116.83 997.254 116.739 997.913 116.739C998.333 116.739 998.816 116.79 999.362 116.892C999.913 116.989 1000.44 117.19 1000.96 117.497C1001.47 117.804 1001.9 118.267 1002.24 118.886C1002.58 119.506 1002.75 120.335 1002.75 121.375V130H1000.74V128.227H1000.64C1000.5 128.511 1000.28 128.815 999.958 129.139C999.64 129.463 999.217 129.739 998.688 129.966C998.16 130.193 997.515 130.307 996.754 130.307ZM997.06 128.5C997.856 128.5 998.526 128.344 999.072 128.031C999.623 127.719 1000.04 127.315 1000.32 126.821C1000.6 126.327 1000.74 125.807 1000.74 125.261V123.42C1000.66 123.523 1000.47 123.616 1000.18 123.702C999.896 123.781 999.566 123.852 999.191 123.915C998.822 123.972 998.461 124.023 998.109 124.068C997.762 124.108 997.481 124.142 997.265 124.17C996.742 124.239 996.254 124.349 995.799 124.503C995.35 124.651 994.987 124.875 994.708 125.176C994.435 125.472 994.299 125.875 994.299 126.386C994.299 127.085 994.558 127.614 995.075 127.972C995.597 128.324 996.259 128.5 997.06 128.5ZM1006.7 130V112.545H1008.71V118.989H1008.88C1009.03 118.761 1009.23 118.472 1009.49 118.119C1009.76 117.761 1010.14 117.443 1010.64 117.165C1011.14 116.881 1011.81 116.739 1012.66 116.739C1013.77 116.739 1014.74 117.014 1015.58 117.565C1016.42 118.116 1017.08 118.898 1017.55 119.909C1018.02 120.92 1018.25 122.114 1018.25 123.489C1018.25 124.875 1018.02 126.077 1017.55 127.094C1017.08 128.105 1016.42 128.889 1015.59 129.446C1014.75 129.997 1013.79 130.273 1012.7 130.273C1011.86 130.273 1011.18 130.134 1010.68 129.855C1010.17 129.571 1009.78 129.25 1009.51 128.892C1009.24 128.528 1009.03 128.227 1008.88 127.989H1008.64V130H1006.7ZM1008.67 123.455C1008.67 124.443 1008.82 125.315 1009.11 126.071C1009.4 126.821 1009.82 127.409 1010.38 127.835C1010.94 128.256 1011.62 128.466 1012.42 128.466C1013.27 128.466 1013.97 128.244 1014.53 127.801C1015.1 127.352 1015.52 126.75 1015.81 125.994C1016.1 125.233 1016.24 124.386 1016.24 123.455C1016.24 122.534 1016.1 121.705 1015.82 120.966C1015.54 120.222 1015.12 119.634 1014.55 119.202C1013.98 118.764 1013.28 118.545 1012.42 118.545C1011.61 118.545 1010.92 118.753 1010.36 119.168C1009.81 119.577 1009.39 120.151 1009.1 120.889C1008.82 121.622 1008.67 122.477 1008.67 123.455ZM1021.33 130V116.909H1023.34V130H1021.33ZM1022.35 114.727C1021.96 114.727 1021.62 114.594 1021.34 114.327C1021.06 114.06 1020.92 113.739 1020.92 113.364C1020.92 112.989 1021.06 112.668 1021.34 112.401C1021.62 112.134 1021.96 112 1022.35 112C1022.75 112 1023.08 112.134 1023.36 112.401C1023.64 112.668 1023.79 112.989 1023.79 113.364C1023.79 113.739 1023.64 114.06 1023.36 114.327C1023.08 114.594 1022.75 114.727 1022.35 114.727ZM1029.04 112.545V130H1027.03V112.545H1029.04ZM1032.72 130V116.909H1034.73V130H1032.72ZM1033.74 114.727C1033.35 114.727 1033.01 114.594 1032.73 114.327C1032.45 114.06 1032.31 113.739 1032.31 113.364C1032.31 112.989 1032.45 112.668 1032.73 112.401C1033.01 112.134 1033.35 112 1033.74 112C1034.14 112 1034.47 112.134 1034.75 112.401C1035.03 112.668 1035.18 112.989 1035.18 113.364C1035.18 113.739 1035.03 114.06 1034.75 114.327C1034.47 114.594 1034.14 114.727 1033.74 114.727ZM1043.36 130.273C1042.27 130.273 1041.31 129.997 1040.47 129.446C1039.64 128.889 1038.98 128.105 1038.51 127.094C1038.04 126.077 1037.8 124.875 1037.8 123.489C1037.8 122.114 1038.04 120.92 1038.51 119.909C1038.98 118.898 1039.64 118.116 1040.48 117.565C1041.32 117.014 1042.29 116.739 1043.39 116.739C1044.25 116.739 1044.92 116.881 1045.41 117.165C1045.91 117.443 1046.29 117.761 1046.56 118.119C1046.82 118.472 1047.03 118.761 1047.18 118.989H1047.35V112.545H1049.36V130H1047.42V127.989H1047.18C1047.03 128.227 1046.82 128.528 1046.55 128.892C1046.27 129.25 1045.89 129.571 1045.38 129.855C1044.87 130.134 1044.2 130.273 1043.36 130.273ZM1043.63 128.466C1044.44 128.466 1045.12 128.256 1045.68 127.835C1046.24 127.409 1046.66 126.821 1046.95 126.071C1047.24 125.315 1047.38 124.443 1047.38 123.455C1047.38 122.477 1047.24 121.622 1046.96 120.889C1046.67 120.151 1046.25 119.577 1045.7 119.168C1045.14 118.753 1044.45 118.545 1043.63 118.545C1042.78 118.545 1042.07 118.764 1041.5 119.202C1040.94 119.634 1040.52 120.222 1040.23 120.966C1039.95 121.705 1039.81 122.534 1039.81 123.455C1039.81 124.386 1039.96 125.233 1040.24 125.994C1040.53 126.75 1040.96 127.352 1041.52 127.801C1042.09 128.244 1042.79 128.466 1043.63 128.466ZM1057.18 130.307C1056.35 130.307 1055.59 130.151 1054.92 129.838C1054.24 129.52 1053.7 129.062 1053.31 128.466C1052.91 127.864 1052.71 127.136 1052.71 126.284C1052.71 125.534 1052.86 124.926 1053.15 124.46C1053.45 123.989 1053.84 123.619 1054.34 123.352C1054.83 123.085 1055.38 122.886 1055.97 122.756C1056.58 122.619 1057.18 122.511 1057.79 122.432C1058.58 122.33 1059.23 122.253 1059.72 122.202C1060.22 122.145 1060.59 122.051 1060.81 121.92C1061.05 121.79 1061.16 121.562 1061.16 121.239V121.17C1061.16 120.33 1060.93 119.676 1060.47 119.21C1060.02 118.744 1059.33 118.511 1058.4 118.511C1057.44 118.511 1056.69 118.722 1056.14 119.142C1055.6 119.562 1055.22 120.011 1054.99 120.489L1053.08 119.807C1053.43 119.011 1053.88 118.392 1054.45 117.949C1055.02 117.5 1055.65 117.187 1056.32 117.011C1057.01 116.83 1057.68 116.739 1058.33 116.739C1058.76 116.739 1059.24 116.79 1059.78 116.892C1060.33 116.989 1060.87 117.19 1061.38 117.497C1061.89 117.804 1062.32 118.267 1062.66 118.886C1063.01 119.506 1063.18 120.335 1063.18 121.375V130H1061.16V128.227H1061.06C1060.93 128.511 1060.7 128.815 1060.38 129.139C1060.06 129.463 1059.64 129.739 1059.11 129.966C1058.58 130.193 1057.94 130.307 1057.18 130.307ZM1057.48 128.5C1058.28 128.5 1058.95 128.344 1059.49 128.031C1060.04 127.719 1060.46 127.315 1060.74 126.821C1061.02 126.327 1061.16 125.807 1061.16 125.261V123.42C1061.08 123.523 1060.89 123.616 1060.6 123.702C1060.32 123.781 1059.99 123.852 1059.61 123.915C1059.24 123.972 1058.88 124.023 1058.53 124.068C1058.18 124.108 1057.9 124.142 1057.69 124.17C1057.16 124.239 1056.68 124.349 1056.22 124.503C1055.77 124.651 1055.41 124.875 1055.13 125.176C1054.86 125.472 1054.72 125.875 1054.72 126.386C1054.72 127.085 1054.98 127.614 1055.5 127.972C1056.02 128.324 1056.68 128.5 1057.48 128.5ZM1071.79 130.273C1070.7 130.273 1069.74 129.997 1068.9 129.446C1068.07 128.889 1067.41 128.105 1066.94 127.094C1066.47 126.077 1066.23 124.875 1066.23 123.489C1066.23 122.114 1066.47 120.92 1066.94 119.909C1067.41 118.898 1068.07 118.116 1068.91 117.565C1069.75 117.014 1070.72 116.739 1071.82 116.739C1072.68 116.739 1073.35 116.881 1073.84 117.165C1074.34 117.443 1074.72 117.761 1074.99 118.119C1075.25 118.472 1075.46 118.761 1075.61 118.989H1075.78V112.545H1077.79V130H1075.85V127.989H1075.61C1075.46 128.227 1075.25 128.528 1074.98 128.892C1074.7 129.25 1074.32 129.571 1073.81 129.855C1073.3 130.134 1072.63 130.273 1071.79 130.273ZM1072.06 128.466C1072.87 128.466 1073.55 128.256 1074.11 127.835C1074.66 127.409 1075.09 126.821 1075.38 126.071C1075.67 125.315 1075.81 124.443 1075.81 123.455C1075.81 122.477 1075.67 121.622 1075.39 120.889C1075.1 120.151 1074.68 119.577 1074.13 119.168C1073.57 118.753 1072.88 118.545 1072.06 118.545C1071.21 118.545 1070.5 118.764 1069.93 119.202C1069.37 119.634 1068.95 120.222 1068.66 120.966C1068.38 121.705 1068.24 122.534 1068.24 123.455C1068.24 124.386 1068.39 125.233 1068.67 125.994C1068.96 126.75 1069.39 127.352 1069.95 127.801C1070.52 128.244 1071.22 128.466 1072.06 128.466ZM1087.24 130.273C1085.98 130.273 1084.89 129.994 1083.98 129.438C1083.07 128.875 1082.37 128.091 1081.87 127.085C1081.38 126.074 1081.14 124.898 1081.14 123.557C1081.14 122.216 1081.38 121.034 1081.87 120.011C1082.37 118.983 1083.05 118.182 1083.93 117.608C1084.82 117.028 1085.86 116.739 1087.04 116.739C1087.72 116.739 1088.39 116.852 1089.06 117.08C1089.72 117.307 1090.33 117.676 1090.87 118.188C1091.42 118.693 1091.85 119.364 1092.18 120.199C1092.5 121.034 1092.66 122.062 1092.66 123.284V124.136H1082.57V122.398H1090.62C1090.62 121.659 1090.47 121 1090.17 120.42C1089.88 119.841 1089.47 119.384 1088.93 119.048C1088.39 118.713 1087.76 118.545 1087.04 118.545C1086.24 118.545 1085.54 118.744 1084.96 119.142C1084.38 119.534 1083.93 120.045 1083.62 120.676C1083.31 121.307 1083.15 121.983 1083.15 122.705V123.864C1083.15 124.852 1083.32 125.69 1083.66 126.378C1084.01 127.06 1084.49 127.58 1085.1 127.938C1085.72 128.29 1086.43 128.466 1087.24 128.466C1087.77 128.466 1088.25 128.392 1088.67 128.244C1089.11 128.091 1089.48 127.864 1089.79 127.562C1090.1 127.256 1090.34 126.875 1090.51 126.42L1092.46 126.966C1092.25 127.625 1091.91 128.205 1091.43 128.705C1090.94 129.199 1090.35 129.585 1089.64 129.864C1088.93 130.136 1088.13 130.273 1087.24 130.273Z" fill="#F4F4F2"/>
<rect x="1127" y="100" width="137" height="43" rx="21.5" fill="#495465"/>
<path d="M1182.19 112.545V130H1180.14L1170.63 116.295H1170.46V130H1168.35V112.545H1170.39L1179.94 126.284H1180.11V112.545H1182.19ZM1190 130.307C1189.17 130.307 1188.42 130.151 1187.74 129.838C1187.06 129.52 1186.53 129.062 1186.13 128.466C1185.73 127.864 1185.53 127.136 1185.53 126.284C1185.53 125.534 1185.68 124.926 1185.98 124.46C1186.27 123.989 1186.67 123.619 1187.16 123.352C1187.65 123.085 1188.2 122.886 1188.8 122.756C1189.4 122.619 1190 122.511 1190.61 122.432C1191.41 122.33 1192.05 122.253 1192.55 122.202C1193.05 122.145 1193.41 122.051 1193.64 121.92C1193.87 121.79 1193.99 121.562 1193.99 121.239V121.17C1193.99 120.33 1193.76 119.676 1193.3 119.21C1192.84 118.744 1192.15 118.511 1191.23 118.511C1190.26 118.511 1189.51 118.722 1188.97 119.142C1188.42 119.562 1188.04 120.011 1187.82 120.489L1185.91 119.807C1186.25 119.011 1186.7 118.392 1187.27 117.949C1187.84 117.5 1188.47 117.187 1189.15 117.011C1189.83 116.83 1190.5 116.739 1191.16 116.739C1191.58 116.739 1192.06 116.79 1192.61 116.892C1193.16 116.989 1193.69 117.19 1194.2 117.497C1194.72 117.804 1195.15 118.267 1195.49 118.886C1195.83 119.506 1196 120.335 1196 121.375V130H1193.99V128.227H1193.88C1193.75 128.511 1193.52 128.815 1193.2 129.139C1192.88 129.463 1192.46 129.739 1191.93 129.966C1191.4 130.193 1190.76 130.307 1190 130.307ZM1190.3 128.5C1191.1 128.5 1191.77 128.344 1192.32 128.031C1192.87 127.719 1193.28 127.315 1193.56 126.821C1193.84 126.327 1193.99 125.807 1193.99 125.261V123.42C1193.9 123.523 1193.71 123.616 1193.42 123.702C1193.14 123.781 1192.81 123.852 1192.44 123.915C1192.07 123.972 1191.71 124.023 1191.35 124.068C1191.01 124.108 1190.73 124.142 1190.51 124.17C1189.99 124.239 1189.5 124.349 1189.04 124.503C1188.59 124.651 1188.23 124.875 1187.95 125.176C1187.68 125.472 1187.54 125.875 1187.54 126.386C1187.54 127.085 1187.8 127.614 1188.32 127.972C1188.84 128.324 1189.5 128.5 1190.3 128.5ZM1205.36 116.909V118.614H1198.58V116.909H1205.36ZM1200.56 113.773H1202.57V126.25C1202.57 126.818 1202.65 127.244 1202.81 127.528C1202.98 127.807 1203.2 127.994 1203.46 128.091C1203.73 128.182 1204.01 128.227 1204.31 128.227C1204.53 128.227 1204.71 128.216 1204.85 128.193C1204.99 128.165 1205.11 128.142 1205.19 128.125L1205.6 129.932C1205.46 129.983 1205.27 130.034 1205.03 130.085C1204.79 130.142 1204.48 130.17 1204.1 130.17C1203.53 130.17 1202.98 130.048 1202.43 129.804C1201.89 129.56 1201.44 129.188 1201.08 128.688C1200.73 128.188 1200.56 127.557 1200.56 126.795V113.773ZM1212.24 130.307C1211.41 130.307 1210.66 130.151 1209.98 129.838C1209.31 129.52 1208.77 129.062 1208.37 128.466C1207.97 127.864 1207.77 127.136 1207.77 126.284C1207.77 125.534 1207.92 124.926 1208.22 124.46C1208.51 123.989 1208.91 123.619 1209.4 123.352C1209.9 123.085 1210.44 122.886 1211.04 122.756C1211.64 122.619 1212.25 122.511 1212.85 122.432C1213.65 122.33 1214.29 122.253 1214.79 122.202C1215.29 122.145 1215.65 122.051 1215.88 121.92C1216.11 121.79 1216.23 121.562 1216.23 121.239V121.17C1216.23 120.33 1216 119.676 1215.54 119.21C1215.08 118.744 1214.39 118.511 1213.47 118.511C1212.51 118.511 1211.75 118.722 1211.21 119.142C1210.66 119.562 1210.28 120.011 1210.06 120.489L1208.15 119.807C1208.49 119.011 1208.94 118.392 1209.51 117.949C1210.09 117.5 1210.71 117.187 1211.39 117.011C1212.07 116.83 1212.74 116.739 1213.4 116.739C1213.82 116.739 1214.3 116.79 1214.85 116.892C1215.4 116.989 1215.93 117.19 1216.44 117.497C1216.96 117.804 1217.39 118.267 1217.73 118.886C1218.07 119.506 1218.24 120.335 1218.24 121.375V130H1216.23V128.227H1216.13C1215.99 128.511 1215.76 128.815 1215.44 129.139C1215.13 129.463 1214.7 129.739 1214.17 129.966C1213.65 130.193 1213 130.307 1212.24 130.307ZM1212.55 128.5C1213.34 128.5 1214.01 128.344 1214.56 128.031C1215.11 127.719 1215.52 127.315 1215.8 126.821C1216.09 126.327 1216.23 125.807 1216.23 125.261V123.42C1216.14 123.523 1215.96 123.616 1215.67 123.702C1215.38 123.781 1215.05 123.852 1214.68 123.915C1214.31 123.972 1213.95 124.023 1213.6 124.068C1213.25 124.108 1212.97 124.142 1212.75 124.17C1212.23 124.239 1211.74 124.349 1211.29 124.503C1210.84 124.651 1210.47 124.875 1210.19 125.176C1209.92 125.472 1209.79 125.875 1209.79 126.386C1209.79 127.085 1210.04 127.614 1210.56 127.972C1211.08 128.324 1211.75 128.5 1212.55 128.5ZM1223.92 112.545V130H1221.91V112.545H1223.92Z" fill="#F4F4F2"/>
<rect x="1281" y="100" width="304" height="43" rx="21.5" fill="#495465"/>
<path d="M1306.09 130V112.545H1308.2V128.125H1316.31V130H1306.09ZM1323.17 130.307C1322.34 130.307 1321.58 130.151 1320.91 129.838C1320.23 129.52 1319.69 129.062 1319.3 128.466C1318.9 127.864 1318.7 127.136 1318.7 126.284C1318.7 125.534 1318.85 124.926 1319.14 124.46C1319.44 123.989 1319.83 123.619 1320.33 123.352C1320.82 123.085 1321.37 122.886 1321.96 122.756C1322.57 122.619 1323.17 122.511 1323.78 122.432C1324.58 122.33 1325.22 122.253 1325.71 122.202C1326.21 122.145 1326.58 122.051 1326.81 121.92C1327.04 121.79 1327.15 121.562 1327.15 121.239V121.17C1327.15 120.33 1326.92 119.676 1326.46 119.21C1326.01 118.744 1325.32 118.511 1324.39 118.511C1323.43 118.511 1322.68 118.722 1322.13 119.142C1321.59 119.562 1321.21 120.011 1320.98 120.489L1319.08 119.807C1319.42 119.011 1319.87 118.392 1320.44 117.949C1321.01 117.5 1321.64 117.187 1322.31 117.011C1323 116.83 1323.67 116.739 1324.33 116.739C1324.75 116.739 1325.23 116.79 1325.77 116.892C1326.33 116.989 1326.86 117.19 1327.37 117.497C1327.88 117.804 1328.31 118.267 1328.65 118.886C1329 119.506 1329.17 120.335 1329.17 121.375V130H1327.15V128.227H1327.05C1326.92 128.511 1326.69 128.815 1326.37 129.139C1326.05 129.463 1325.63 129.739 1325.1 129.966C1324.57 130.193 1323.93 130.307 1323.17 130.307ZM1323.47 128.5C1324.27 128.5 1324.94 128.344 1325.48 128.031C1326.04 127.719 1326.45 127.315 1326.73 126.821C1327.01 126.327 1327.15 125.807 1327.15 125.261V123.42C1327.07 123.523 1326.88 123.616 1326.59 123.702C1326.31 123.781 1325.98 123.852 1325.6 123.915C1325.23 123.972 1324.87 124.023 1324.52 124.068C1324.17 124.108 1323.89 124.142 1323.68 124.17C1323.15 124.239 1322.67 124.349 1322.21 124.503C1321.76 124.651 1321.4 124.875 1321.12 125.176C1320.85 125.472 1320.71 125.875 1320.71 126.386C1320.71 127.085 1320.97 127.614 1321.49 127.972C1322.01 128.324 1322.67 128.5 1323.47 128.5ZM1332.84 130V116.909H1334.78V118.886H1334.92C1335.16 118.239 1335.59 117.713 1336.21 117.31C1336.84 116.906 1337.54 116.705 1338.33 116.705C1338.47 116.705 1338.66 116.707 1338.88 116.713C1339.1 116.719 1339.27 116.727 1339.38 116.739V118.784C1339.31 118.767 1339.16 118.741 1338.91 118.707C1338.68 118.668 1338.42 118.648 1338.16 118.648C1337.52 118.648 1336.95 118.781 1336.45 119.048C1335.96 119.31 1335.56 119.673 1335.27 120.139C1334.99 120.599 1334.85 121.125 1334.85 121.716V130H1332.84ZM1346.86 130.273C1345.6 130.273 1344.51 129.994 1343.59 129.438C1342.68 128.875 1341.98 128.091 1341.49 127.085C1341 126.074 1340.75 124.898 1340.75 123.557C1340.75 122.216 1341 121.034 1341.49 120.011C1341.98 118.983 1342.67 118.182 1343.55 117.608C1344.44 117.028 1345.47 116.739 1346.65 116.739C1347.33 116.739 1348.01 116.852 1348.67 117.08C1349.34 117.307 1349.94 117.676 1350.49 118.188C1351.03 118.693 1351.47 119.364 1351.79 120.199C1352.12 121.034 1352.28 122.062 1352.28 123.284V124.136H1342.19V122.398H1350.23C1350.23 121.659 1350.08 121 1349.79 120.42C1349.5 119.841 1349.08 119.384 1348.54 119.048C1348.01 118.713 1347.38 118.545 1346.65 118.545C1345.85 118.545 1345.16 118.744 1344.57 119.142C1343.99 119.534 1343.55 120.045 1343.24 120.676C1342.92 121.307 1342.77 121.983 1342.77 122.705V123.864C1342.77 124.852 1342.94 125.69 1343.28 126.378C1343.62 127.06 1344.1 127.58 1344.72 127.938C1345.33 128.29 1346.04 128.466 1346.86 128.466C1347.39 128.466 1347.86 128.392 1348.29 128.244C1348.72 128.091 1349.09 127.864 1349.41 127.562C1349.72 127.256 1349.96 126.875 1350.13 126.42L1352.07 126.966C1351.87 127.625 1351.52 128.205 1351.04 128.705C1350.56 129.199 1349.96 129.585 1349.25 129.864C1348.54 130.136 1347.74 130.273 1346.86 130.273ZM1360.28 130.273C1359.19 130.273 1358.23 129.997 1357.39 129.446C1356.56 128.889 1355.9 128.105 1355.43 127.094C1354.96 126.077 1354.72 124.875 1354.72 123.489C1354.72 122.114 1354.96 120.92 1355.43 119.909C1355.9 118.898 1356.56 118.116 1357.4 117.565C1358.24 117.014 1359.21 116.739 1360.31 116.739C1361.17 116.739 1361.84 116.881 1362.33 117.165C1362.83 117.443 1363.22 117.761 1363.48 118.119C1363.74 118.472 1363.95 118.761 1364.1 118.989H1364.27V112.545H1366.28V130H1364.34V127.989H1364.1C1363.95 128.227 1363.74 128.528 1363.47 128.892C1363.2 129.25 1362.81 129.571 1362.3 129.855C1361.79 130.134 1361.12 130.273 1360.28 130.273ZM1360.55 128.466C1361.36 128.466 1362.04 128.256 1362.6 127.835C1363.16 127.409 1363.58 126.821 1363.87 126.071C1364.16 125.315 1364.3 124.443 1364.3 123.455C1364.3 122.477 1364.16 121.622 1363.88 120.889C1363.59 120.151 1363.17 119.577 1362.62 119.168C1362.06 118.753 1361.37 118.545 1360.55 118.545C1359.7 118.545 1358.99 118.764 1358.42 119.202C1357.86 119.634 1357.44 120.222 1357.15 120.966C1356.87 121.705 1356.74 122.534 1356.74 123.455C1356.74 124.386 1356.88 125.233 1357.16 125.994C1357.45 126.75 1357.88 127.352 1358.44 127.801C1359.01 128.244 1359.71 128.466 1360.55 128.466ZM1375.56 130.273C1374.38 130.273 1373.34 129.991 1372.45 129.429C1371.56 128.866 1370.87 128.08 1370.37 127.068C1369.88 126.057 1369.63 124.875 1369.63 123.523C1369.63 122.159 1369.88 120.969 1370.37 119.952C1370.87 118.935 1371.56 118.145 1372.45 117.582C1373.34 117.02 1374.38 116.739 1375.56 116.739C1376.74 116.739 1377.78 117.02 1378.66 117.582C1379.56 118.145 1380.25 118.935 1380.74 119.952C1381.24 120.969 1381.49 122.159 1381.49 123.523C1381.49 124.875 1381.24 126.057 1380.74 127.068C1380.25 128.08 1379.56 128.866 1378.66 129.429C1377.78 129.991 1376.74 130.273 1375.56 130.273ZM1375.56 128.466C1376.46 128.466 1377.2 128.236 1377.78 127.776C1378.36 127.315 1378.79 126.71 1379.06 125.96C1379.34 125.21 1379.48 124.398 1379.48 123.523C1379.48 122.648 1379.34 121.832 1379.06 121.077C1378.79 120.321 1378.36 119.71 1377.78 119.244C1377.2 118.778 1376.46 118.545 1375.56 118.545C1374.66 118.545 1373.93 118.778 1373.35 119.244C1372.77 119.71 1372.34 120.321 1372.06 121.077C1371.78 121.832 1371.64 122.648 1371.64 123.523C1371.64 124.398 1371.78 125.21 1372.06 125.96C1372.34 126.71 1372.77 127.315 1373.35 127.776C1373.93 128.236 1374.66 128.466 1375.56 128.466ZM1392.81 124.648V116.909H1394.83V130H1392.81V127.784H1392.68C1392.37 128.449 1391.89 129.014 1391.25 129.48C1390.6 129.94 1389.78 130.17 1388.79 130.17C1387.97 130.17 1387.25 129.991 1386.61 129.634C1385.97 129.27 1385.47 128.724 1385.11 127.997C1384.75 127.264 1384.56 126.341 1384.56 125.227V116.909H1386.58V125.091C1386.58 126.045 1386.84 126.807 1387.38 127.375C1387.92 127.943 1388.6 128.227 1389.44 128.227C1389.94 128.227 1390.45 128.099 1390.96 127.844C1391.49 127.588 1391.92 127.196 1392.28 126.668C1392.63 126.139 1392.81 125.466 1392.81 124.648ZM1404.2 116.909V118.614H1397.42V116.909H1404.2ZM1399.4 113.773H1401.41V126.25C1401.41 126.818 1401.49 127.244 1401.65 127.528C1401.82 127.807 1402.04 127.994 1402.3 128.091C1402.57 128.182 1402.85 128.227 1403.15 128.227C1403.37 128.227 1403.55 128.216 1403.69 128.193C1403.83 128.165 1403.95 128.142 1404.03 128.125L1404.44 129.932C1404.3 129.983 1404.11 130.034 1403.87 130.085C1403.63 130.142 1403.32 130.17 1402.94 130.17C1402.37 130.17 1401.82 130.048 1401.27 129.804C1400.73 129.56 1400.28 129.188 1399.92 128.688C1399.57 128.188 1399.4 127.557 1399.4 126.795V113.773ZM1412.58 130.273C1411.31 130.273 1410.23 129.994 1409.31 129.438C1408.4 128.875 1407.7 128.091 1407.21 127.085C1406.72 126.074 1406.47 124.898 1406.47 123.557C1406.47 122.216 1406.72 121.034 1407.21 120.011C1407.7 118.983 1408.39 118.182 1409.27 117.608C1410.16 117.028 1411.19 116.739 1412.37 116.739C1413.05 116.739 1413.73 116.852 1414.39 117.08C1415.06 117.307 1415.66 117.676 1416.21 118.188C1416.75 118.693 1417.19 119.364 1417.51 120.199C1417.83 121.034 1418 122.062 1418 123.284V124.136H1407.91V122.398H1415.95C1415.95 121.659 1415.8 121 1415.51 120.42C1415.22 119.841 1414.8 119.384 1414.26 119.048C1413.73 118.713 1413.1 118.545 1412.37 118.545C1411.57 118.545 1410.88 118.744 1410.29 119.142C1409.71 119.534 1409.27 120.045 1408.95 120.676C1408.64 121.307 1408.49 121.983 1408.49 122.705V123.864C1408.49 124.852 1408.66 125.69 1409 126.378C1409.34 127.06 1409.82 127.58 1410.44 127.938C1411.05 128.29 1411.76 128.466 1412.58 128.466C1413.1 128.466 1413.58 128.392 1414.01 128.244C1414.44 128.091 1414.81 127.864 1415.12 127.562C1415.44 127.256 1415.68 126.875 1415.85 126.42L1417.79 126.966C1417.59 127.625 1417.24 128.205 1416.76 128.705C1416.28 129.199 1415.68 129.585 1414.97 129.864C1414.26 130.136 1413.46 130.273 1412.58 130.273ZM1433.64 116.909V118.614H1426.58V116.909H1433.64ZM1428.69 130V115.102C1428.69 114.352 1428.87 113.727 1429.22 113.227C1429.57 112.727 1430.03 112.352 1430.59 112.102C1431.16 111.852 1431.75 111.727 1432.37 111.727C1432.87 111.727 1433.27 111.767 1433.58 111.847C1433.9 111.926 1434.13 112 1434.28 112.068L1433.7 113.807C1433.6 113.773 1433.46 113.73 1433.28 113.679C1433.1 113.628 1432.87 113.602 1432.58 113.602C1431.91 113.602 1431.43 113.77 1431.14 114.105C1430.85 114.44 1430.7 114.932 1430.7 115.58V130H1428.69ZM1441.23 130.273C1440.05 130.273 1439.01 129.991 1438.12 129.429C1437.24 128.866 1436.54 128.08 1436.04 127.068C1435.55 126.057 1435.3 124.875 1435.3 123.523C1435.3 122.159 1435.55 120.969 1436.04 119.952C1436.54 118.935 1437.24 118.145 1438.12 117.582C1439.01 117.02 1440.05 116.739 1441.23 116.739C1442.42 116.739 1443.45 117.02 1444.34 117.582C1445.23 118.145 1445.92 118.935 1446.42 119.952C1446.92 120.969 1447.17 122.159 1447.17 123.523C1447.17 124.875 1446.92 126.057 1446.42 127.068C1445.92 128.08 1445.23 128.866 1444.34 129.429C1443.45 129.991 1442.42 130.273 1441.23 130.273ZM1441.23 128.466C1442.13 128.466 1442.87 128.236 1443.45 127.776C1444.03 127.315 1444.46 126.71 1444.74 125.96C1445.01 125.21 1445.15 124.398 1445.15 123.523C1445.15 122.648 1445.01 121.832 1444.74 121.077C1444.46 120.321 1444.03 119.71 1443.45 119.244C1442.87 118.778 1442.13 118.545 1441.23 118.545C1440.34 118.545 1439.6 118.778 1439.02 119.244C1438.44 119.71 1438.01 120.321 1437.73 121.077C1437.45 121.832 1437.31 122.648 1437.31 123.523C1437.31 124.398 1437.45 125.21 1437.73 125.96C1438.01 126.71 1438.44 127.315 1439.02 127.776C1439.6 128.236 1440.34 128.466 1441.23 128.466ZM1450.24 130V116.909H1452.18V118.886H1452.32C1452.55 118.239 1452.99 117.713 1453.61 117.31C1454.24 116.906 1454.94 116.705 1455.72 116.705C1455.87 116.705 1456.06 116.707 1456.28 116.713C1456.5 116.719 1456.67 116.727 1456.78 116.739V118.784C1456.71 118.767 1456.56 118.741 1456.31 118.707C1456.07 118.668 1455.82 118.648 1455.55 118.648C1454.92 118.648 1454.35 118.781 1453.85 119.048C1453.36 119.31 1452.96 119.673 1452.67 120.139C1452.39 120.599 1452.25 121.125 1452.25 121.716V130H1450.24ZM1466.19 130V112.545H1468.2V118.989H1468.37C1468.52 118.761 1468.72 118.472 1468.98 118.119C1469.25 117.761 1469.63 117.443 1470.13 117.165C1470.63 116.881 1471.3 116.739 1472.15 116.739C1473.26 116.739 1474.23 117.014 1475.07 117.565C1475.91 118.116 1476.57 118.898 1477.04 119.909C1477.51 120.92 1477.74 122.114 1477.74 123.489C1477.74 124.875 1477.51 126.077 1477.04 127.094C1476.57 128.105 1475.91 128.889 1475.08 129.446C1474.24 129.997 1473.28 130.273 1472.19 130.273C1471.35 130.273 1470.67 130.134 1470.17 129.855C1469.66 129.571 1469.27 129.25 1469 128.892C1468.73 128.528 1468.52 128.227 1468.37 127.989H1468.13V130H1466.19ZM1468.17 123.455C1468.17 124.443 1468.31 125.315 1468.6 126.071C1468.89 126.821 1469.31 127.409 1469.87 127.835C1470.43 128.256 1471.11 128.466 1471.92 128.466C1472.76 128.466 1473.46 128.244 1474.02 127.801C1474.59 127.352 1475.01 126.75 1475.3 125.994C1475.59 125.233 1475.73 124.386 1475.73 123.455C1475.73 122.534 1475.59 121.705 1475.31 120.966C1475.03 120.222 1474.61 119.634 1474.04 119.202C1473.48 118.764 1472.77 118.545 1471.92 118.545C1471.1 118.545 1470.41 118.753 1469.85 119.168C1469.3 119.577 1468.88 120.151 1468.59 120.889C1468.31 121.622 1468.17 122.477 1468.17 123.455ZM1489.07 124.648V116.909H1491.08V130H1489.07V127.784H1488.94C1488.63 128.449 1488.15 129.014 1487.5 129.48C1486.86 129.94 1486.04 130.17 1485.05 130.17C1484.23 130.17 1483.5 129.991 1482.87 129.634C1482.23 129.27 1481.73 128.724 1481.37 127.997C1481 127.264 1480.82 126.341 1480.82 125.227V116.909H1482.83V125.091C1482.83 126.045 1483.1 126.807 1483.63 127.375C1484.17 127.943 1484.86 128.227 1485.7 128.227C1486.2 128.227 1486.71 128.099 1487.22 127.844C1487.74 127.588 1488.18 127.196 1488.53 126.668C1488.89 126.139 1489.07 125.466 1489.07 124.648ZM1504.04 119.841L1502.23 120.352C1502.12 120.051 1501.95 119.759 1501.73 119.474C1501.51 119.185 1501.22 118.946 1500.84 118.759C1500.47 118.571 1499.99 118.477 1499.4 118.477C1498.6 118.477 1497.93 118.662 1497.4 119.031C1496.87 119.395 1496.61 119.858 1496.61 120.42C1496.61 120.92 1496.79 121.315 1497.15 121.605C1497.52 121.895 1498.09 122.136 1498.86 122.33L1500.8 122.807C1501.97 123.091 1502.84 123.526 1503.42 124.111C1503.99 124.69 1504.28 125.437 1504.28 126.352C1504.28 127.102 1504.06 127.773 1503.63 128.364C1503.2 128.955 1502.61 129.42 1501.84 129.761C1501.07 130.102 1500.18 130.273 1499.16 130.273C1497.83 130.273 1496.72 129.983 1495.85 129.403C1494.97 128.824 1494.42 127.977 1494.19 126.864L1496.1 126.386C1496.28 127.091 1496.62 127.619 1497.13 127.972C1497.64 128.324 1498.31 128.5 1499.13 128.5C1500.07 128.5 1500.81 128.301 1501.36 127.903C1501.92 127.5 1502.2 127.017 1502.2 126.455C1502.2 126 1502.04 125.619 1501.72 125.312C1501.4 125 1500.91 124.767 1500.26 124.614L1498.07 124.102C1496.87 123.818 1495.99 123.378 1495.43 122.781C1494.87 122.179 1494.6 121.426 1494.6 120.523C1494.6 119.784 1494.8 119.131 1495.22 118.562C1495.64 117.994 1496.21 117.548 1496.93 117.224C1497.66 116.901 1498.48 116.739 1499.4 116.739C1500.7 116.739 1501.72 117.023 1502.45 117.591C1503.2 118.159 1503.73 118.909 1504.04 119.841ZM1507.31 130V116.909H1509.32V130H1507.31ZM1508.33 114.727C1507.94 114.727 1507.6 114.594 1507.31 114.327C1507.04 114.06 1506.9 113.739 1506.9 113.364C1506.9 112.989 1507.04 112.668 1507.31 112.401C1507.6 112.134 1507.94 112 1508.33 112C1508.72 112 1509.06 112.134 1509.33 112.401C1509.62 112.668 1509.76 112.989 1509.76 113.364C1509.76 113.739 1509.62 114.06 1509.33 114.327C1509.06 114.594 1508.72 114.727 1508.33 114.727ZM1515.01 122.125V130H1513V116.909H1514.94V118.955H1515.11C1515.42 118.29 1515.89 117.756 1516.51 117.352C1517.14 116.943 1517.94 116.739 1518.93 116.739C1519.82 116.739 1520.6 116.92 1521.26 117.284C1521.92 117.642 1522.44 118.188 1522.81 118.92C1523.18 119.648 1523.36 120.568 1523.36 121.682V130H1521.35V121.818C1521.35 120.79 1521.09 119.989 1520.55 119.415C1520.02 118.835 1519.29 118.545 1518.35 118.545C1517.71 118.545 1517.14 118.685 1516.63 118.963C1516.13 119.241 1515.74 119.648 1515.45 120.182C1515.16 120.716 1515.01 121.364 1515.01 122.125ZM1532.53 130.273C1531.27 130.273 1530.18 129.994 1529.26 129.438C1528.36 128.875 1527.65 128.091 1527.16 127.085C1526.67 126.074 1526.43 124.898 1526.43 123.557C1526.43 122.216 1526.67 121.034 1527.16 120.011C1527.65 118.983 1528.34 118.182 1529.22 117.608C1530.11 117.028 1531.14 116.739 1532.32 116.739C1533.01 116.739 1533.68 116.852 1534.34 117.08C1535.01 117.307 1535.61 117.676 1536.16 118.188C1536.71 118.693 1537.14 119.364 1537.46 120.199C1537.79 121.034 1537.95 122.062 1537.95 123.284V124.136H1527.86V122.398H1535.9C1535.9 121.659 1535.76 121 1535.46 120.42C1535.17 119.841 1534.76 119.384 1534.22 119.048C1533.68 118.713 1533.05 118.545 1532.32 118.545C1531.52 118.545 1530.83 118.744 1530.24 119.142C1529.67 119.534 1529.22 120.045 1528.91 120.676C1528.59 121.307 1528.44 121.983 1528.44 122.705V123.864C1528.44 124.852 1528.61 125.69 1528.95 126.378C1529.3 127.06 1529.78 127.58 1530.39 127.938C1531 128.29 1531.72 128.466 1532.53 128.466C1533.06 128.466 1533.53 128.392 1533.96 128.244C1534.39 128.091 1534.76 127.864 1535.08 127.562C1535.39 127.256 1535.63 126.875 1535.8 126.42L1537.74 126.966C1537.54 127.625 1537.2 128.205 1536.71 128.705C1536.23 129.199 1535.63 129.585 1534.92 129.864C1534.21 130.136 1533.42 130.273 1532.53 130.273ZM1550.28 119.841L1548.48 120.352C1548.36 120.051 1548.19 119.759 1547.97 119.474C1547.76 119.185 1547.46 118.946 1547.09 118.759C1546.71 118.571 1546.23 118.477 1545.65 118.477C1544.84 118.477 1544.18 118.662 1543.64 119.031C1543.11 119.395 1542.85 119.858 1542.85 120.42C1542.85 120.92 1543.03 121.315 1543.4 121.605C1543.76 121.895 1544.33 122.136 1545.1 122.33L1547.04 122.807C1548.21 123.091 1549.09 123.526 1549.66 124.111C1550.23 124.69 1550.52 125.437 1550.52 126.352C1550.52 127.102 1550.3 127.773 1549.87 128.364C1549.45 128.955 1548.85 129.42 1548.08 129.761C1547.32 130.102 1546.42 130.273 1545.41 130.273C1544.07 130.273 1542.97 129.983 1542.09 129.403C1541.22 128.824 1540.66 127.977 1540.43 126.864L1542.34 126.386C1542.52 127.091 1542.86 127.619 1543.37 127.972C1543.88 128.324 1544.55 128.5 1545.37 128.5C1546.31 128.5 1547.05 128.301 1547.61 127.903C1548.16 127.5 1548.44 127.017 1548.44 126.455C1548.44 126 1548.28 125.619 1547.96 125.312C1547.65 125 1547.16 124.767 1546.5 124.614L1544.32 124.102C1543.12 123.818 1542.24 123.378 1541.67 122.781C1541.12 122.179 1540.84 121.426 1540.84 120.523C1540.84 119.784 1541.05 119.131 1541.46 118.562C1541.88 117.994 1542.45 117.548 1543.17 117.224C1543.9 116.901 1544.73 116.739 1545.65 116.739C1546.94 116.739 1547.96 117.023 1548.7 117.591C1549.44 118.159 1549.97 118.909 1550.28 119.841ZM1562.82 119.841L1561.01 120.352C1560.9 120.051 1560.73 119.759 1560.51 119.474C1560.3 119.185 1560 118.946 1559.62 118.759C1559.25 118.571 1558.77 118.477 1558.18 118.477C1557.38 118.477 1556.72 118.662 1556.18 119.031C1555.65 119.395 1555.39 119.858 1555.39 120.42C1555.39 120.92 1555.57 121.315 1555.93 121.605C1556.3 121.895 1556.87 122.136 1557.64 122.33L1559.58 122.807C1560.75 123.091 1561.62 123.526 1562.2 124.111C1562.77 124.69 1563.06 125.437 1563.06 126.352C1563.06 127.102 1562.84 127.773 1562.41 128.364C1561.99 128.955 1561.39 129.42 1560.62 129.761C1559.86 130.102 1558.96 130.273 1557.95 130.273C1556.61 130.273 1555.51 129.983 1554.63 129.403C1553.76 128.824 1553.2 127.977 1552.97 126.864L1554.88 126.386C1555.06 127.091 1555.4 127.619 1555.91 127.972C1556.42 128.324 1557.09 128.5 1557.91 128.5C1558.85 128.5 1559.59 128.301 1560.14 127.903C1560.7 127.5 1560.98 127.017 1560.98 126.455C1560.98 126 1560.82 125.619 1560.5 125.312C1560.18 125 1559.7 124.767 1559.04 124.614L1556.86 124.102C1555.66 123.818 1554.78 123.378 1554.21 122.781C1553.66 122.179 1553.38 121.426 1553.38 120.523C1553.38 119.784 1553.59 119.131 1554 118.562C1554.42 117.994 1554.99 117.548 1555.71 117.224C1556.44 116.901 1557.26 116.739 1558.18 116.739C1559.48 116.739 1560.5 117.023 1561.24 117.591C1561.98 118.159 1562.51 118.909 1562.82 119.841Z" fill="#F4F4F2"/>
<path d="M1372.19 45.875C1376.2 45.875 1380.04 44.1959 1382.87 41.207C1385.7 38.2182 1387.29 34.1644 1387.29 29.9375C1387.29 25.7106 1385.7 21.6568 1382.87 18.668C1380.04 15.6791 1376.2 14 1372.19 14C1368.19 14 1364.35 15.6791 1361.52 18.668C1358.69 21.6568 1357.1 25.7106 1357.1 29.9375C1357.1 34.1644 1358.69 38.2182 1361.52 41.207C1364.35 44.1959 1368.19 45.875 1372.19 45.875V45.875ZM1382.26 29.9375C1382.26 32.7554 1381.2 35.4579 1379.31 37.4505C1377.42 39.4431 1374.86 40.5625 1372.19 40.5625C1369.53 40.5625 1366.97 39.4431 1365.08 37.4505C1363.19 35.4579 1362.13 32.7554 1362.13 29.9375C1362.13 27.1196 1363.19 24.4171 1365.08 22.4245C1366.97 20.4319 1369.53 19.3125 1372.19 19.3125C1374.86 19.3125 1377.42 20.4319 1379.31 22.4245C1381.2 24.4171 1382.26 27.1196 1382.26 29.9375V29.9375ZM1402.39 72.4375C1402.39 77.75 1397.36 77.75 1397.36 77.75H1347.03C1347.03 77.75 1342 77.75 1342 72.4375C1342 67.125 1347.03 51.1875 1372.19 51.1875C1397.36 51.1875 1402.39 67.125 1402.39 72.4375ZM1397.36 72.4163C1397.35 71.1094 1396.58 67.1781 1393.17 63.5762C1389.89 60.1125 1383.71 56.5 1372.19 56.5C1360.67 56.5 1354.5 60.1125 1351.22 63.5762C1347.81 67.1781 1347.04 71.1094 1347.03 72.4163H1397.36Z" fill="#495465"/>
<defs>
<clipPath id="clip0_272_422">
<rect width="128" height="128" fill="white" transform="translate(0 11)"/>
</clipPath>
</defs>
</svg>
