<svg width="516" height="25" viewBox="0 0 516 25" fill="none" xmlns="http://www.w3.org/2000/svg">
<path d="M1.76136 20V5.45455H3.52273V18.4375H10.2841V20H1.76136ZM15.9943 20.2557C15.303 20.2557 14.6757 20.1255 14.1122 19.8651C13.5488 19.5999 13.1013 19.2188 12.7699 18.7216C12.4384 18.2197 12.2727 17.6136 12.2727 16.9034C12.2727 16.2784 12.3958 15.7718 12.642 15.3835C12.8883 14.9905 13.2173 14.6828 13.6293 14.4602C14.0412 14.2377 14.4957 14.072 14.9929 13.9631C15.4948 13.8494 15.9991 13.7595 16.5057 13.6932C17.1686 13.608 17.706 13.544 18.1179 13.5014C18.5346 13.4541 18.8376 13.3759 19.027 13.267C19.2211 13.1581 19.3182 12.9687 19.3182 12.6989V12.642C19.3182 11.9413 19.1264 11.3968 18.7429 11.0085C18.3641 10.6203 17.7888 10.4261 17.017 10.4261C16.2169 10.4261 15.5895 10.6013 15.1349 10.9517C14.6804 11.3021 14.3608 11.6761 14.1761 12.0739L12.5852 11.5057C12.8693 10.8428 13.2481 10.3267 13.7216 9.95739C14.1998 9.58333 14.7206 9.32292 15.2841 9.17614C15.8523 9.02462 16.411 8.94886 16.9602 8.94886C17.3106 8.94886 17.7131 8.99148 18.1676 9.0767C18.6269 9.1572 19.0696 9.32528 19.4957 9.58097C19.9266 9.83665 20.2841 10.2225 20.5682 10.7386C20.8523 11.2547 20.9943 11.946 20.9943 12.8125V20H19.3182V18.5227H19.233C19.1193 18.7595 18.9299 19.0128 18.6648 19.2827C18.3996 19.5526 18.0469 19.7822 17.6065 19.9716C17.1662 20.161 16.6288 20.2557 15.9943 20.2557ZM16.25 18.75C16.9129 18.75 17.4716 18.6198 17.9261 18.3594C18.3854 18.099 18.7311 17.7628 18.9631 17.3509C19.1998 16.9389 19.3182 16.5057 19.3182 16.0511V14.517C19.2472 14.6023 19.0909 14.6804 18.8494 14.7514C18.6127 14.8177 18.3381 14.8769 18.0256 14.929C17.7178 14.9763 17.4171 15.0189 17.1236 15.0568C16.8348 15.09 16.6004 15.1184 16.4205 15.142C15.9848 15.1989 15.5777 15.2912 15.1989 15.419C14.8248 15.5421 14.5218 15.7292 14.2898 15.9801C14.0625 16.2263 13.9489 16.5625 13.9489 16.9886C13.9489 17.571 14.1643 18.0114 14.5952 18.3097C15.0308 18.6032 15.5824 18.75 16.25 18.75ZM29.9059 20V5.45455H34.8207C35.957 5.45455 36.8898 5.64867 37.619 6.03693C38.3481 6.42045 38.8879 6.94839 39.2383 7.62074C39.5887 8.29309 39.7638 9.05777 39.7638 9.91477C39.7638 10.7718 39.5887 11.5317 39.2383 12.1946C38.8879 12.8575 38.3505 13.3783 37.6261 13.7571C36.9016 14.1312 35.976 14.3182 34.8491 14.3182H30.8718V12.7273H34.7923C35.5688 12.7273 36.1938 12.6136 36.6673 12.3864C37.1455 12.1591 37.4911 11.8371 37.7042 11.4205C37.922 10.9991 38.0309 10.4972 38.0309 9.91477C38.0309 9.33239 37.922 8.82339 37.7042 8.38778C37.4864 7.95218 37.1384 7.616 36.6602 7.37926C36.1819 7.13778 35.5498 7.01705 34.7638 7.01705H31.6673V20H29.9059ZM36.7525 13.4659L40.332 20H38.2866L34.7638 13.4659H36.7525ZM46.9283 20.2273C45.8771 20.2273 44.9704 19.9953 44.2081 19.5312C43.4505 19.0625 42.8658 18.4091 42.4538 17.571C42.0466 16.7282 41.843 15.7481 41.843 14.6307C41.843 13.5133 42.0466 12.5284 42.4538 11.6761C42.8658 10.8191 43.4387 10.1515 44.1726 9.6733C44.9112 9.19034 45.773 8.94886 46.7578 8.94886C47.326 8.94886 47.8871 9.04356 48.4411 9.23295C48.995 9.42235 49.4993 9.73011 49.9538 10.1562C50.4084 10.5777 50.7706 11.1364 51.0405 11.8324C51.3104 12.5284 51.4453 13.3854 51.4453 14.4034V15.1136H43.0362V13.6648H49.7408C49.7408 13.0492 49.6177 12.5 49.3714 12.017C49.13 11.5341 48.7843 11.1529 48.3345 10.8736C47.8894 10.5942 47.3639 10.4545 46.7578 10.4545C46.0902 10.4545 45.5125 10.6203 45.0249 10.9517C44.5419 11.2784 44.1702 11.7045 43.9098 12.2301C43.6494 12.7557 43.5192 13.3191 43.5192 13.9205V14.8864C43.5192 15.7102 43.6612 16.4086 43.9453 16.9815C44.2341 17.5497 44.6342 17.983 45.1456 18.2812C45.657 18.5748 46.2512 18.7216 46.9283 18.7216C47.3686 18.7216 47.7663 18.66 48.1214 18.5369C48.4813 18.4091 48.7914 18.2197 49.0518 17.9688C49.3123 17.7131 49.5135 17.3958 49.6555 17.017L51.2749 17.4716C51.1044 18.0208 50.8179 18.5038 50.4155 18.9205C50.013 19.3324 49.5159 19.6544 48.924 19.8864C48.3321 20.1136 47.6669 20.2273 46.9283 20.2273ZM58.1143 20.2273C57.2053 20.2273 56.4027 19.9976 55.7067 19.5384C55.0107 19.0743 54.4661 18.4209 54.0732 17.5781C53.6802 16.7306 53.4837 15.7292 53.4837 14.5739C53.4837 13.428 53.6802 12.4337 54.0732 11.5909C54.4661 10.7481 55.013 10.0971 55.7138 9.63778C56.4145 9.1785 57.2242 8.94886 58.1428 8.94886C58.853 8.94886 59.4141 9.06723 59.826 9.30398C60.2427 9.53598 60.5599 9.80114 60.7777 10.0994C61.0002 10.393 61.1731 10.6345 61.2962 10.8239H61.4382V5.45455H63.1143V20H61.495V18.3239H61.2962C61.1731 18.5227 60.9979 18.7737 60.7706 19.0767C60.5433 19.375 60.219 19.6425 59.7976 19.8793C59.3762 20.1113 58.8151 20.2273 58.1143 20.2273ZM58.3416 18.7216C59.014 18.7216 59.5821 18.5464 60.0462 18.196C60.5102 17.8409 60.8629 17.3509 61.1044 16.7259C61.3459 16.0961 61.4666 15.3693 61.4666 14.5455C61.4666 13.7311 61.3482 13.0185 61.1115 12.4077C60.8748 11.7921 60.5244 11.3139 60.0604 10.973C59.5964 10.6274 59.0234 10.4545 58.3416 10.4545C57.6314 10.4545 57.0395 10.6368 56.5661 11.0014C56.0973 11.3613 55.7446 11.8513 55.5078 12.4716C55.2758 13.0871 55.1598 13.7784 55.1598 14.5455C55.1598 15.322 55.2782 16.0275 55.5149 16.6619C55.7564 17.2917 56.1115 17.7936 56.5803 18.1676C57.0537 18.5369 57.6409 18.7216 58.3416 18.7216ZM70.8487 20.2273C69.8639 20.2273 68.9998 19.9929 68.2564 19.5241C67.5178 19.0554 66.9401 18.3996 66.5234 17.5568C66.1115 16.714 65.9055 15.7292 65.9055 14.6023C65.9055 13.4659 66.1115 12.474 66.5234 11.6264C66.9401 10.7789 67.5178 10.1207 68.2564 9.65199C68.9998 9.18324 69.8639 8.94886 70.8487 8.94886C71.8336 8.94886 72.6953 9.18324 73.4339 9.65199C74.1773 10.1207 74.755 10.7789 75.1669 11.6264C75.5836 12.474 75.7919 13.4659 75.7919 14.6023C75.7919 15.7292 75.5836 16.714 75.1669 17.5568C74.755 18.3996 74.1773 19.0554 73.4339 19.5241C72.6953 19.9929 71.8336 20.2273 70.8487 20.2273ZM70.8487 18.7216C71.5968 18.7216 72.2124 18.5298 72.6953 18.1463C73.1783 17.7628 73.5357 17.2585 73.7678 16.6335C73.9998 16.0085 74.1158 15.3314 74.1158 14.6023C74.1158 13.8731 73.9998 13.1937 73.7678 12.5639C73.5357 11.9342 73.1783 11.4252 72.6953 11.0369C72.2124 10.6487 71.5968 10.4545 70.8487 10.4545C70.1006 10.4545 69.4851 10.6487 69.0021 11.0369C68.5192 11.4252 68.1617 11.9342 67.9297 12.5639C67.6977 13.1937 67.5817 13.8731 67.5817 14.6023C67.5817 15.3314 67.6977 16.0085 67.9297 16.6335C68.1617 17.2585 68.5192 17.7628 69.0021 18.1463C69.4851 18.5298 70.1006 18.7216 70.8487 18.7216ZM85.2255 15.5398V9.09091H86.9016V20H85.2255V18.1534H85.1119C84.8562 18.7074 84.4585 19.1785 83.9187 19.5668C83.3789 19.9503 82.6971 20.142 81.8732 20.142C81.1914 20.142 80.5853 19.9929 80.055 19.6946C79.5247 19.3916 79.1081 18.937 78.805 18.331C78.502 17.7202 78.3505 16.9508 78.3505 16.0227V9.09091H80.0266V15.9091C80.0266 16.7045 80.2492 17.339 80.6942 17.8125C81.1441 18.286 81.717 18.5227 82.413 18.5227C82.8297 18.5227 83.2534 18.4162 83.6843 18.2031C84.1199 17.9901 84.4845 17.6634 84.7781 17.223C85.0763 16.7827 85.2255 16.2216 85.2255 15.5398ZM94.7159 9.09091V10.5114H89.0625V9.09091H94.7159ZM90.7102 6.47727H92.3864V16.875C92.3864 17.3485 92.455 17.7036 92.5923 17.9403C92.7344 18.1723 92.9143 18.3286 93.1321 18.4091C93.3546 18.4848 93.589 18.5227 93.8352 18.5227C94.0199 18.5227 94.1714 18.5133 94.2898 18.4943C94.4081 18.4706 94.5028 18.4517 94.5739 18.4375L94.9148 19.9432C94.8011 19.9858 94.6425 20.0284 94.4389 20.071C94.2353 20.1184 93.9773 20.142 93.6648 20.142C93.1913 20.142 92.7273 20.0402 92.2727 19.8366C91.8229 19.633 91.4489 19.3229 91.1506 18.9062C90.857 18.4896 90.7102 17.964 90.7102 17.3295V6.47727ZM101.694 20.2273C100.643 20.2273 99.736 19.9953 98.9737 19.5312C98.2161 19.0625 97.6314 18.4091 97.2195 17.571C96.8123 16.7282 96.6087 15.7481 96.6087 14.6307C96.6087 13.5133 96.8123 12.5284 97.2195 11.6761C97.6314 10.8191 98.2043 10.1515 98.9382 9.6733C99.6768 9.19034 100.539 8.94886 101.523 8.94886C102.092 8.94886 102.653 9.04356 103.207 9.23295C103.761 9.42235 104.265 9.73011 104.719 10.1562C105.174 10.5777 105.536 11.1364 105.806 11.8324C106.076 12.5284 106.211 13.3854 106.211 14.4034V15.1136H97.8018V13.6648H104.506C104.506 13.0492 104.383 12.5 104.137 12.017C103.896 11.5341 103.55 11.1529 103.1 10.8736C102.655 10.5942 102.129 10.4545 101.523 10.4545C100.856 10.4545 100.278 10.6203 99.7905 10.9517C99.3075 11.2784 98.9358 11.7045 98.6754 12.2301C98.415 12.7557 98.2848 13.3191 98.2848 13.9205V14.8864C98.2848 15.7102 98.4268 16.4086 98.7109 16.9815C98.9998 17.5497 99.3999 17.983 99.9112 18.2812C100.423 18.5748 101.017 18.7216 101.694 18.7216C102.134 18.7216 102.532 18.66 102.887 18.5369C103.247 18.4091 103.557 18.2197 103.817 17.9688C104.078 17.7131 104.279 17.3958 104.421 17.017L106.04 17.4716C105.87 18.0208 105.584 18.5038 105.181 18.9205C104.779 19.3324 104.281 19.6544 103.69 19.8864C103.098 20.1136 102.433 20.2273 101.694 20.2273ZM119.528 4.77273L114.84 22.1875H113.306L117.994 4.77273H119.528ZM127.367 5.45455H129.469L134.412 17.5284H134.583L139.526 5.45455H141.628V20H139.98V8.94886H139.838L135.293 20H133.702L129.157 8.94886H129.015V20H127.367V5.45455ZM149.364 20.2273C148.379 20.2273 147.515 19.9929 146.772 19.5241C146.033 19.0554 145.456 18.3996 145.039 17.5568C144.627 16.714 144.421 15.7292 144.421 14.6023C144.421 13.4659 144.627 12.474 145.039 11.6264C145.456 10.7789 146.033 10.1207 146.772 9.65199C147.515 9.18324 148.379 8.94886 149.364 8.94886C150.349 8.94886 151.211 9.18324 151.95 9.65199C152.693 10.1207 153.271 10.7789 153.683 11.6264C154.099 12.474 154.308 13.4659 154.308 14.6023C154.308 15.7292 154.099 16.714 153.683 17.5568C153.271 18.3996 152.693 19.0554 151.95 19.5241C151.211 19.9929 150.349 20.2273 149.364 20.2273ZM149.364 18.7216C150.112 18.7216 150.728 18.5298 151.211 18.1463C151.694 17.7628 152.051 17.2585 152.283 16.6335C152.515 16.0085 152.631 15.3314 152.631 14.6023C152.631 13.8731 152.515 13.1937 152.283 12.5639C152.051 11.9342 151.694 11.4252 151.211 11.0369C150.728 10.6487 150.112 10.4545 149.364 10.4545C148.616 10.4545 148.001 10.6487 147.518 11.0369C147.035 11.4252 146.677 11.9342 146.445 12.5639C146.213 13.1937 146.097 13.8731 146.097 14.6023C146.097 15.3314 146.213 16.0085 146.445 16.6335C146.677 17.2585 147.035 17.7628 147.518 18.1463C148.001 18.5298 148.616 18.7216 149.364 18.7216ZM148.597 7.61364L150.33 4.31818H152.29L150.075 7.61364H148.597ZM165.396 9.09091L161.362 20H159.657L155.623 9.09091H157.441L160.453 17.7841H160.566L163.578 9.09091H165.396ZM171.792 20.2273C170.74 20.2273 169.834 19.9953 169.071 19.5312C168.314 19.0625 167.729 18.4091 167.317 17.571C166.91 16.7282 166.706 15.7481 166.706 14.6307C166.706 13.5133 166.91 12.5284 167.317 11.6761C167.729 10.8191 168.302 10.1515 169.036 9.6733C169.775 9.19034 170.636 8.94886 171.621 8.94886C172.189 8.94886 172.75 9.04356 173.304 9.23295C173.858 9.42235 174.363 9.73011 174.817 10.1562C175.272 10.5777 175.634 11.1364 175.904 11.8324C176.174 12.5284 176.309 13.3854 176.309 14.4034V15.1136H167.9V13.6648H174.604C174.604 13.0492 174.481 12.5 174.235 12.017C173.993 11.5341 173.648 11.1529 173.198 10.8736C172.753 10.5942 172.227 10.4545 171.621 10.4545C170.953 10.4545 170.376 10.6203 169.888 10.9517C169.405 11.2784 169.033 11.7045 168.773 12.2301C168.513 12.7557 168.382 13.3191 168.382 13.9205V14.8864C168.382 15.7102 168.525 16.4086 168.809 16.9815C169.097 17.5497 169.498 17.983 170.009 18.2812C170.52 18.5748 171.114 18.7216 171.792 18.7216C172.232 18.7216 172.63 18.66 172.985 18.5369C173.345 18.4091 173.655 18.2197 173.915 17.9688C174.176 17.7131 174.377 17.3958 174.519 17.017L176.138 17.4716C175.968 18.0208 175.681 18.5038 175.279 18.9205C174.876 19.3324 174.379 19.6544 173.787 19.8864C173.195 20.1136 172.53 20.2273 171.792 20.2273ZM178.858 20V9.09091H180.534V20H178.858ZM179.711 7.27273C179.384 7.27273 179.102 7.16146 178.865 6.93892C178.633 6.71638 178.517 6.44886 178.517 6.13636C178.517 5.82386 178.633 5.55634 178.865 5.33381C179.102 5.11127 179.384 5 179.711 5C180.037 5 180.317 5.11127 180.549 5.33381C180.785 5.55634 180.904 5.82386 180.904 6.13636C180.904 6.44886 180.785 6.71638 180.549 6.93892C180.317 7.16146 180.037 7.27273 179.711 7.27273ZM191.332 11.5341L189.826 11.9602C189.731 11.7093 189.592 11.4654 189.407 11.2287C189.227 10.9872 188.981 10.7884 188.668 10.6321C188.356 10.4759 187.956 10.3977 187.468 10.3977C186.8 10.3977 186.244 10.5516 185.799 10.8594C185.359 11.1624 185.138 11.5483 185.138 12.017C185.138 12.4337 185.29 12.7628 185.593 13.0043C185.896 13.2457 186.37 13.447 187.013 13.608L188.633 14.0057C189.608 14.2424 190.335 14.6046 190.813 15.0923C191.291 15.5753 191.531 16.1979 191.531 16.9602C191.531 17.5852 191.351 18.1439 190.991 18.6364C190.636 19.1288 190.138 19.517 189.499 19.8011C188.86 20.0852 188.117 20.2273 187.269 20.2273C186.156 20.2273 185.236 19.9858 184.506 19.5028C183.777 19.0199 183.316 18.3144 183.121 17.3864L184.712 16.9886C184.864 17.5758 185.15 18.0161 185.572 18.3097C185.998 18.6032 186.554 18.75 187.241 18.75C188.022 18.75 188.642 18.5843 189.102 18.2528C189.566 17.9167 189.798 17.5142 189.798 17.0455C189.798 16.6667 189.665 16.3494 189.4 16.0938C189.135 15.8333 188.728 15.6392 188.178 15.5114L186.36 15.0852C185.361 14.8485 184.627 14.4815 184.158 13.9844C183.694 13.4825 183.462 12.8551 183.462 12.1023C183.462 11.4867 183.635 10.9422 183.981 10.4688C184.331 9.99527 184.807 9.62358 185.408 9.35369C186.014 9.08381 186.701 8.94886 187.468 8.94886C188.548 8.94886 189.395 9.18561 190.011 9.65909C190.631 10.1326 191.071 10.7576 191.332 11.5341ZM204.821 4.77273L200.133 22.1875H198.599L203.287 4.77273H204.821ZM220.614 9.09091C220.529 8.37121 220.183 7.8125 219.577 7.41477C218.971 7.01705 218.228 6.81818 217.347 6.81818C216.703 6.81818 216.14 6.92235 215.657 7.13068C215.179 7.33901 214.805 7.62547 214.535 7.99006C214.27 8.35464 214.137 8.76894 214.137 9.23295C214.137 9.62121 214.229 9.95502 214.414 10.2344C214.603 10.509 214.845 10.7386 215.138 10.9233C215.432 11.1032 215.74 11.2524 216.062 11.3707C216.384 11.4844 216.68 11.5767 216.95 11.6477L218.427 12.0455C218.806 12.1449 219.227 12.2822 219.691 12.4574C220.16 12.6326 220.607 12.8717 221.033 13.1747C221.464 13.473 221.819 13.8565 222.099 14.3253C222.378 14.794 222.518 15.3693 222.518 16.0511C222.518 16.8371 222.312 17.5473 221.9 18.1818C221.493 18.8163 220.896 19.3205 220.11 19.6946C219.329 20.0687 218.379 20.2557 217.262 20.2557C216.22 20.2557 215.318 20.0876 214.556 19.7514C213.799 19.4152 213.202 18.9465 212.766 18.3452C212.335 17.7438 212.092 17.0455 212.035 16.25H213.853C213.9 16.7992 214.085 17.2538 214.407 17.6136C214.734 17.9687 215.146 18.2339 215.643 18.4091C216.145 18.5795 216.684 18.6648 217.262 18.6648C217.934 18.6648 218.538 18.5559 219.073 18.3381C219.608 18.1155 220.032 17.8078 220.344 17.4148C220.657 17.017 220.813 16.553 220.813 16.0227C220.813 15.5398 220.678 15.1468 220.408 14.8438C220.138 14.5407 219.783 14.2945 219.343 14.1051C218.903 13.9157 218.427 13.75 217.915 13.608L216.126 13.0966C214.989 12.7699 214.09 12.3035 213.427 11.6974C212.764 11.0914 212.433 10.2983 212.433 9.31818C212.433 8.50379 212.653 7.79356 213.093 7.1875C213.538 6.5767 214.135 6.10322 214.883 5.76705C215.636 5.42614 216.476 5.25568 217.404 5.25568C218.342 5.25568 219.175 5.42377 219.904 5.75994C220.633 6.09138 221.211 6.54593 221.637 7.12358C222.068 7.70123 222.295 8.35701 222.319 9.09091H220.614ZM228.397 20.2557C227.705 20.2557 227.078 20.1255 226.515 19.8651C225.951 19.5999 225.504 19.2188 225.172 18.7216C224.841 18.2197 224.675 17.6136 224.675 16.9034C224.675 16.2784 224.798 15.7718 225.044 15.3835C225.291 14.9905 225.62 14.6828 226.032 14.4602C226.444 14.2377 226.898 14.072 227.395 13.9631C227.897 13.8494 228.401 13.7595 228.908 13.6932C229.571 13.608 230.108 13.544 230.52 13.5014C230.937 13.4541 231.24 13.3759 231.429 13.267C231.623 13.1581 231.721 12.9687 231.721 12.6989V12.642C231.721 11.9413 231.529 11.3968 231.145 11.0085C230.766 10.6203 230.191 10.4261 229.419 10.4261C228.619 10.4261 227.992 10.6013 227.537 10.9517C227.083 11.3021 226.763 11.6761 226.578 12.0739L224.988 11.5057C225.272 10.8428 225.65 10.3267 226.124 9.95739C226.602 9.58333 227.123 9.32292 227.686 9.17614C228.255 9.02462 228.813 8.94886 229.363 8.94886C229.713 8.94886 230.115 8.99148 230.57 9.0767C231.029 9.1572 231.472 9.32528 231.898 9.58097C232.329 9.83665 232.686 10.2225 232.971 10.7386C233.255 11.2547 233.397 11.946 233.397 12.8125V20H231.721V18.5227H231.635C231.522 18.7595 231.332 19.0128 231.067 19.2827C230.802 19.5526 230.449 19.7822 230.009 19.9716C229.569 20.161 229.031 20.2557 228.397 20.2557ZM228.652 18.75C229.315 18.75 229.874 18.6198 230.328 18.3594C230.788 18.099 231.133 17.7628 231.365 17.3509C231.602 16.9389 231.721 16.5057 231.721 16.0511V14.517C231.65 14.6023 231.493 14.6804 231.252 14.7514C231.015 14.8177 230.74 14.8769 230.428 14.929C230.12 14.9763 229.819 15.0189 229.526 15.0568C229.237 15.09 229.003 15.1184 228.823 15.142C228.387 15.1989 227.98 15.2912 227.601 15.419C227.227 15.5421 226.924 15.7292 226.692 15.9801C226.465 16.2263 226.351 16.5625 226.351 16.9886C226.351 17.571 226.567 18.0114 226.998 18.3097C227.433 18.6032 227.985 18.75 228.652 18.75ZM238.132 5.45455V20H236.456V5.45455H238.132ZM244.412 20.2557C243.721 20.2557 243.094 20.1255 242.53 19.8651C241.967 19.5999 241.519 19.2188 241.188 18.7216C240.856 18.2197 240.691 17.6136 240.691 16.9034C240.691 16.2784 240.814 15.7718 241.06 15.3835C241.306 14.9905 241.635 14.6828 242.047 14.4602C242.459 14.2377 242.914 14.072 243.411 13.9631C243.913 13.8494 244.417 13.7595 244.924 13.6932C245.587 13.608 246.124 13.544 246.536 13.5014C246.953 13.4541 247.256 13.3759 247.445 13.267C247.639 13.1581 247.736 12.9687 247.736 12.6989V12.642C247.736 11.9413 247.544 11.3968 247.161 11.0085C246.782 10.6203 246.207 10.4261 245.435 10.4261C244.635 10.4261 244.007 10.6013 243.553 10.9517C243.098 11.3021 242.779 11.6761 242.594 12.0739L241.003 11.5057C241.287 10.8428 241.666 10.3267 242.14 9.95739C242.618 9.58333 243.139 9.32292 243.702 9.17614C244.27 9.02462 244.829 8.94886 245.378 8.94886C245.729 8.94886 246.131 8.99148 246.586 9.0767C247.045 9.1572 247.488 9.32528 247.914 9.58097C248.345 9.83665 248.702 10.2225 248.986 10.7386C249.27 11.2547 249.412 11.946 249.412 12.8125V20H247.736V18.5227H247.651C247.537 18.7595 247.348 19.0128 247.083 19.2827C246.818 19.5526 246.465 19.7822 246.025 19.9716C245.584 20.161 245.047 20.2557 244.412 20.2557ZM244.668 18.75C245.331 18.75 245.89 18.6198 246.344 18.3594C246.803 18.099 247.149 17.7628 247.381 17.3509C247.618 16.9389 247.736 16.5057 247.736 16.0511V14.517C247.665 14.6023 247.509 14.6804 247.267 14.7514C247.031 14.8177 246.756 14.8769 246.444 14.929C246.136 14.9763 245.835 15.0189 245.542 15.0568C245.253 15.09 245.018 15.1184 244.838 15.142C244.403 15.1989 243.996 15.2912 243.617 15.419C243.243 15.5421 242.94 15.7292 242.708 15.9801C242.48 16.2263 242.367 16.5625 242.367 16.9886C242.367 17.571 242.582 18.0114 243.013 18.3097C243.449 18.6032 244 18.75 244.668 18.75ZM262.216 20.2273C261.307 20.2273 260.504 19.9976 259.808 19.5384C259.112 19.0743 258.568 18.4209 258.175 17.5781C257.782 16.7306 257.585 15.7292 257.585 14.5739C257.585 13.428 257.782 12.4337 258.175 11.5909C258.568 10.7481 259.115 10.0971 259.815 9.63778C260.516 9.1785 261.326 8.94886 262.244 8.94886C262.955 8.94886 263.516 9.06723 263.928 9.30398C264.344 9.53598 264.661 9.80114 264.879 10.0994C265.102 10.393 265.275 10.6345 265.398 10.8239H265.54V5.45455H267.216V20H265.597V18.3239H265.398C265.275 18.5227 265.099 18.7737 264.872 19.0767C264.645 19.375 264.321 19.6425 263.899 19.8793C263.478 20.1113 262.917 20.2273 262.216 20.2273ZM262.443 18.7216C263.116 18.7216 263.684 18.5464 264.148 18.196C264.612 17.8409 264.964 17.3509 265.206 16.7259C265.447 16.0961 265.568 15.3693 265.568 14.5455C265.568 13.7311 265.45 13.0185 265.213 12.4077C264.976 11.7921 264.626 11.3139 264.162 10.973C263.698 10.6274 263.125 10.4545 262.443 10.4545C261.733 10.4545 261.141 10.6368 260.668 11.0014C260.199 11.3613 259.846 11.8513 259.609 12.4716C259.377 13.0871 259.261 13.7784 259.261 14.5455C259.261 15.322 259.38 16.0275 259.616 16.6619C259.858 17.2917 260.213 17.7936 260.682 18.1676C261.155 18.5369 261.742 18.7216 262.443 18.7216ZM275.092 20.2273C274.041 20.2273 273.134 19.9953 272.372 19.5312C271.615 19.0625 271.03 18.4091 270.618 17.571C270.211 16.7282 270.007 15.7481 270.007 14.6307C270.007 13.5133 270.211 12.5284 270.618 11.6761C271.03 10.8191 271.603 10.1515 272.337 9.6733C273.075 9.19034 273.937 8.94886 274.922 8.94886C275.49 8.94886 276.051 9.04356 276.605 9.23295C277.159 9.42235 277.663 9.73011 278.118 10.1562C278.572 10.5777 278.935 11.1364 279.205 11.8324C279.474 12.5284 279.609 13.3854 279.609 14.4034V15.1136H271.2V13.6648H277.905C277.905 13.0492 277.782 12.5 277.536 12.017C277.294 11.5341 276.948 11.1529 276.499 10.8736C276.054 10.5942 275.528 10.4545 274.922 10.4545C274.254 10.4545 273.677 10.6203 273.189 10.9517C272.706 11.2784 272.334 11.7045 272.074 12.2301C271.813 12.7557 271.683 13.3191 271.683 13.9205V14.8864C271.683 15.7102 271.825 16.4086 272.109 16.9815C272.398 17.5497 272.798 17.983 273.31 18.2812C273.821 18.5748 274.415 18.7216 275.092 18.7216C275.533 18.7216 275.93 18.66 276.286 18.5369C276.645 18.4091 276.955 18.2197 277.216 17.9688C277.476 17.7131 277.678 17.3958 277.82 17.017L279.439 17.4716C279.268 18.0208 278.982 18.5038 278.58 18.9205C278.177 19.3324 277.68 19.6544 277.088 19.8864C276.496 20.1136 275.831 20.2273 275.092 20.2273ZM292.358 20.2273C291.307 20.2273 290.4 19.9953 289.638 19.5312C288.88 19.0625 288.295 18.4091 287.884 17.571C287.476 16.7282 287.273 15.7481 287.273 14.6307C287.273 13.5133 287.476 12.5284 287.884 11.6761C288.295 10.8191 288.868 10.1515 289.602 9.6733C290.341 9.19034 291.203 8.94886 292.188 8.94886C292.756 8.94886 293.317 9.04356 293.871 9.23295C294.425 9.42235 294.929 9.73011 295.384 10.1562C295.838 10.5777 296.2 11.1364 296.47 11.8324C296.74 12.5284 296.875 13.3854 296.875 14.4034V15.1136H288.466V13.6648H295.17C295.17 13.0492 295.047 12.5 294.801 12.017C294.56 11.5341 294.214 11.1529 293.764 10.8736C293.319 10.5942 292.794 10.4545 292.188 10.4545C291.52 10.4545 290.942 10.6203 290.455 10.9517C289.972 11.2784 289.6 11.7045 289.339 12.2301C289.079 12.7557 288.949 13.3191 288.949 13.9205V14.8864C288.949 15.7102 289.091 16.4086 289.375 16.9815C289.664 17.5497 290.064 17.983 290.575 18.2812C291.087 18.5748 291.681 18.7216 292.358 18.7216C292.798 18.7216 293.196 18.66 293.551 18.5369C293.911 18.4091 294.221 18.2197 294.482 17.9688C294.742 17.7131 294.943 17.3958 295.085 17.017L296.705 17.4716C296.534 18.0208 296.248 18.5038 295.845 18.9205C295.443 19.3324 294.946 19.6544 294.354 19.8864C293.762 20.1136 293.097 20.2273 292.358 20.2273ZM307.152 11.5341L305.646 11.9602C305.552 11.7093 305.412 11.4654 305.227 11.2287C305.047 10.9872 304.801 10.7884 304.489 10.6321C304.176 10.4759 303.776 10.3977 303.288 10.3977C302.621 10.3977 302.064 10.5516 301.619 10.8594C301.179 11.1624 300.959 11.5483 300.959 12.017C300.959 12.4337 301.11 12.7628 301.413 13.0043C301.716 13.2457 302.19 13.447 302.834 13.608L304.453 14.0057C305.429 14.2424 306.155 14.6046 306.634 15.0923C307.112 15.5753 307.351 16.1979 307.351 16.9602C307.351 17.5852 307.171 18.1439 306.811 18.6364C306.456 19.1288 305.959 19.517 305.32 19.8011C304.68 20.0852 303.937 20.2273 303.089 20.2273C301.977 20.2273 301.056 19.9858 300.327 19.5028C299.598 19.0199 299.136 18.3144 298.942 17.3864L300.533 16.9886C300.684 17.5758 300.971 18.0161 301.392 18.3097C301.818 18.6032 302.375 18.75 303.061 18.75C303.842 18.75 304.463 18.5843 304.922 18.2528C305.386 17.9167 305.618 17.5142 305.618 17.0455C305.618 16.6667 305.485 16.3494 305.22 16.0938C304.955 15.8333 304.548 15.6392 303.999 15.5114L302.18 15.0852C301.181 14.8485 300.447 14.4815 299.979 13.9844C299.515 13.4825 299.283 12.8551 299.283 12.1023C299.283 11.4867 299.455 10.9422 299.801 10.4688C300.152 9.99527 300.627 9.62358 301.229 9.35369C301.835 9.08381 302.521 8.94886 303.288 8.94886C304.368 8.94886 305.215 9.18561 305.831 9.65909C306.451 10.1326 306.892 10.7576 307.152 11.5341ZM314.618 9.09091V10.5114H308.965V9.09091H314.618ZM310.613 6.47727H312.289V16.875C312.289 17.3485 312.357 17.7036 312.495 17.9403C312.637 18.1723 312.817 18.3286 313.034 18.4091C313.257 18.4848 313.491 18.5227 313.738 18.5227C313.922 18.5227 314.074 18.5133 314.192 18.4943C314.31 18.4706 314.405 18.4517 314.476 18.4375L314.817 19.9432C314.703 19.9858 314.545 20.0284 314.341 20.071C314.138 20.1184 313.88 20.142 313.567 20.142C313.094 20.142 312.63 20.0402 312.175 19.8366C311.725 19.633 311.351 19.3229 311.053 18.9062C310.759 18.4896 310.613 17.964 310.613 17.3295V6.47727ZM320.35 20.2557C319.658 20.2557 319.031 20.1255 318.468 19.8651C317.904 19.5999 317.457 19.2188 317.125 18.7216C316.794 18.2197 316.628 17.6136 316.628 16.9034C316.628 16.2784 316.751 15.7718 316.998 15.3835C317.244 14.9905 317.573 14.6828 317.985 14.4602C318.397 14.2377 318.851 14.072 319.348 13.9631C319.85 13.8494 320.355 13.7595 320.861 13.6932C321.524 13.608 322.061 13.544 322.473 13.5014C322.89 13.4541 323.193 13.3759 323.382 13.267C323.577 13.1581 323.674 12.9687 323.674 12.6989V12.642C323.674 11.9413 323.482 11.3968 323.098 11.0085C322.72 10.6203 322.144 10.4261 321.373 10.4261C320.572 10.4261 319.945 10.6013 319.49 10.9517C319.036 11.3021 318.716 11.6761 318.532 12.0739L316.941 11.5057C317.225 10.8428 317.604 10.3267 318.077 9.95739C318.555 9.58333 319.076 9.32292 319.64 9.17614C320.208 9.02462 320.766 8.94886 321.316 8.94886C321.666 8.94886 322.069 8.99148 322.523 9.0767C322.982 9.1572 323.425 9.32528 323.851 9.58097C324.282 9.83665 324.64 10.2225 324.924 10.7386C325.208 11.2547 325.35 11.946 325.35 12.8125V20H323.674V18.5227H323.588C323.475 18.7595 323.285 19.0128 323.02 19.2827C322.755 19.5526 322.402 19.7822 321.962 19.9716C321.522 20.161 320.984 20.2557 320.35 20.2557ZM320.605 18.75C321.268 18.75 321.827 18.6198 322.282 18.3594C322.741 18.099 323.087 17.7628 323.319 17.3509C323.555 16.9389 323.674 16.5057 323.674 16.0511V14.517C323.603 14.6023 323.446 14.6804 323.205 14.7514C322.968 14.8177 322.694 14.8769 322.381 14.929C322.073 14.9763 321.773 15.0189 321.479 15.0568C321.19 15.09 320.956 15.1184 320.776 15.142C320.34 15.1989 319.933 15.2912 319.554 15.419C319.18 15.5421 318.877 15.7292 318.645 15.9801C318.418 16.2263 318.304 16.5625 318.304 16.9886C318.304 17.571 318.52 18.0114 318.951 18.3097C319.386 18.6032 319.938 18.75 320.605 18.75ZM328.409 20V9.09091H330.028V10.7386H330.142C330.341 10.1989 330.701 9.76089 331.222 9.42472C331.742 9.08854 332.33 8.92045 332.983 8.92045C333.106 8.92045 333.26 8.92282 333.445 8.92756C333.629 8.93229 333.769 8.93939 333.864 8.94886V10.6534C333.807 10.6392 333.677 10.6179 333.473 10.5895C333.274 10.5563 333.063 10.5398 332.841 10.5398C332.311 10.5398 331.837 10.651 331.42 10.8736C331.009 11.0914 330.682 11.3944 330.44 11.7827C330.204 12.1662 330.085 12.6042 330.085 13.0966V20H328.409ZM337.1 18.0114L336.987 18.7784C336.906 19.3182 336.783 19.8958 336.618 20.5114C336.457 21.1269 336.288 21.7069 336.113 22.2514C335.938 22.7959 335.794 23.2292 335.68 23.5511H334.402C334.463 23.2481 334.544 22.848 334.643 22.3509C334.743 21.8537 334.842 21.2973 334.941 20.6818C335.046 20.071 335.131 19.446 335.197 18.8068L335.282 18.0114H337.1ZM353.558 11.5341L352.053 11.9602C351.958 11.7093 351.818 11.4654 351.634 11.2287C351.454 10.9872 351.207 10.7884 350.895 10.6321C350.582 10.4759 350.182 10.3977 349.695 10.3977C349.027 10.3977 348.471 10.5516 348.026 10.8594C347.585 11.1624 347.365 11.5483 347.365 12.017C347.365 12.4337 347.517 12.7628 347.82 13.0043C348.123 13.2457 348.596 13.447 349.24 13.608L350.859 14.0057C351.835 14.2424 352.562 14.6046 353.04 15.0923C353.518 15.5753 353.757 16.1979 353.757 16.9602C353.757 17.5852 353.577 18.1439 353.217 18.6364C352.862 19.1288 352.365 19.517 351.726 19.8011C351.087 20.0852 350.343 20.2273 349.496 20.2273C348.383 20.2273 347.462 19.9858 346.733 19.5028C346.004 19.0199 345.542 18.3144 345.348 17.3864L346.939 16.9886C347.09 17.5758 347.377 18.0161 347.798 18.3097C348.224 18.6032 348.781 18.75 349.467 18.75C350.249 18.75 350.869 18.5843 351.328 18.2528C351.792 17.9167 352.024 17.5142 352.024 17.0455C352.024 16.6667 351.892 16.3494 351.626 16.0938C351.361 15.8333 350.954 15.6392 350.405 15.5114L348.587 15.0852C347.588 14.8485 346.854 14.4815 346.385 13.9844C345.921 13.4825 345.689 12.8551 345.689 12.1023C345.689 11.4867 345.862 10.9422 346.207 10.4688C346.558 9.99527 347.034 9.62358 347.635 9.35369C348.241 9.08381 348.928 8.94886 349.695 8.94886C350.774 8.94886 351.622 9.18561 352.237 9.65909C352.857 10.1326 353.298 10.7576 353.558 11.5341ZM360.712 20.2273C359.727 20.2273 358.863 19.9929 358.12 19.5241C357.381 19.0554 356.803 18.3996 356.387 17.5568C355.975 16.714 355.769 15.7292 355.769 14.6023C355.769 13.4659 355.975 12.474 356.387 11.6264C356.803 10.7789 357.381 10.1207 358.12 9.65199C358.863 9.18324 359.727 8.94886 360.712 8.94886C361.697 8.94886 362.559 9.18324 363.297 9.65199C364.041 10.1207 364.618 10.7789 365.03 11.6264C365.447 12.474 365.655 13.4659 365.655 14.6023C365.655 15.7292 365.447 16.714 365.03 17.5568C364.618 18.3996 364.041 19.0554 363.297 19.5241C362.559 19.9929 361.697 20.2273 360.712 20.2273ZM360.712 18.7216C361.46 18.7216 362.076 18.5298 362.559 18.1463C363.042 17.7628 363.399 17.2585 363.631 16.6335C363.863 16.0085 363.979 15.3314 363.979 14.6023C363.979 13.8731 363.863 13.1937 363.631 12.5639C363.399 11.9342 363.042 11.4252 362.559 11.0369C362.076 10.6487 361.46 10.4545 360.712 10.4545C359.964 10.4545 359.348 10.6487 358.865 11.0369C358.382 11.4252 358.025 11.9342 357.793 12.5639C357.561 13.1937 357.445 13.8731 357.445 14.6023C357.445 15.3314 357.561 16.0085 357.793 16.6335C358.025 17.2585 358.382 17.7628 358.865 18.1463C359.348 18.5298 359.964 18.7216 360.712 18.7216ZM373.072 9.09091V10.5114H367.191V9.09091H373.072ZM368.952 20V7.58523C368.952 6.96023 369.099 6.43939 369.393 6.02273C369.686 5.60606 370.067 5.29356 370.536 5.08523C371.005 4.87689 371.5 4.77273 372.021 4.77273C372.433 4.77273 372.769 4.80587 373.029 4.87216C373.29 4.93845 373.484 5 373.612 5.05682L373.129 6.50568C373.043 6.47727 372.925 6.44176 372.773 6.39915C372.627 6.35653 372.433 6.33523 372.191 6.33523C371.637 6.33523 371.237 6.4749 370.991 6.75426C370.749 7.03362 370.629 7.44318 370.629 7.98295V20H368.952ZM378.319 20.2557C377.627 20.2557 377 20.1255 376.436 19.8651C375.873 19.5999 375.426 19.2188 375.094 18.7216C374.763 18.2197 374.597 17.6136 374.597 16.9034C374.597 16.2784 374.72 15.7718 374.966 15.3835C375.212 14.9905 375.542 14.6828 375.953 14.4602C376.365 14.2377 376.82 14.072 377.317 13.9631C377.819 13.8494 378.323 13.7595 378.83 13.6932C379.493 13.608 380.03 13.544 380.442 13.5014C380.859 13.4541 381.162 13.3759 381.351 13.267C381.545 13.1581 381.642 12.9687 381.642 12.6989V12.642C381.642 11.9413 381.451 11.3968 381.067 11.0085C380.688 10.6203 380.113 10.4261 379.341 10.4261C378.541 10.4261 377.914 10.6013 377.459 10.9517C377.005 11.3021 376.685 11.6761 376.5 12.0739L374.909 11.5057C375.194 10.8428 375.572 10.3267 376.046 9.95739C376.524 9.58333 377.045 9.32292 377.608 9.17614C378.176 9.02462 378.735 8.94886 379.284 8.94886C379.635 8.94886 380.037 8.99148 380.492 9.0767C380.951 9.1572 381.394 9.32528 381.82 9.58097C382.251 9.83665 382.608 10.2225 382.892 10.7386C383.176 11.2547 383.319 11.946 383.319 12.8125V20H381.642V18.5227H381.557C381.444 18.7595 381.254 19.0128 380.989 19.2827C380.724 19.5526 380.371 19.7822 379.931 19.9716C379.49 20.161 378.953 20.2557 378.319 20.2557ZM378.574 18.75C379.237 18.75 379.796 18.6198 380.25 18.3594C380.71 18.099 381.055 17.7628 381.287 17.3509C381.524 16.9389 381.642 16.5057 381.642 16.0511V14.517C381.571 14.6023 381.415 14.6804 381.174 14.7514C380.937 14.8177 380.662 14.8769 380.35 14.929C380.042 14.9763 379.741 15.0189 379.448 15.0568C379.159 15.09 378.925 15.1184 378.745 15.142C378.309 15.1989 377.902 15.2912 377.523 15.419C377.149 15.5421 376.846 15.7292 376.614 15.9801C376.387 16.2263 376.273 16.5625 376.273 16.9886C376.273 17.571 376.489 18.0114 376.919 18.3097C377.355 18.6032 377.907 18.75 378.574 18.75ZM378.631 7.61364L380.364 4.31818H382.324L380.108 7.61364H378.631ZM394.105 11.5341L392.599 11.9602C392.505 11.7093 392.365 11.4654 392.18 11.2287C392 10.9872 391.754 10.7884 391.442 10.6321C391.129 10.4759 390.729 10.3977 390.241 10.3977C389.574 10.3977 389.018 10.5516 388.572 10.8594C388.132 11.1624 387.912 11.5483 387.912 12.017C387.912 12.4337 388.063 12.7628 388.366 13.0043C388.67 13.2457 389.143 13.447 389.787 13.608L391.406 14.0057C392.382 14.2424 393.108 14.6046 393.587 15.0923C394.065 15.5753 394.304 16.1979 394.304 16.9602C394.304 17.5852 394.124 18.1439 393.764 18.6364C393.409 19.1288 392.912 19.517 392.273 19.8011C391.634 20.0852 390.89 20.2273 390.043 20.2273C388.93 20.2273 388.009 19.9858 387.28 19.5028C386.551 19.0199 386.089 18.3144 385.895 17.3864L387.486 16.9886C387.637 17.5758 387.924 18.0161 388.345 18.3097C388.771 18.6032 389.328 18.75 390.014 18.75C390.795 18.75 391.416 18.5843 391.875 18.2528C392.339 17.9167 392.571 17.5142 392.571 17.0455C392.571 16.6667 392.438 16.3494 392.173 16.0938C391.908 15.8333 391.501 15.6392 390.952 15.5114L389.134 15.0852C388.134 14.8485 387.401 14.4815 386.932 13.9844C386.468 13.4825 386.236 12.8551 386.236 12.1023C386.236 11.4867 386.409 10.9422 386.754 10.4688C387.105 9.99527 387.58 9.62358 388.182 9.35369C388.788 9.08381 389.474 8.94886 390.241 8.94886C391.321 8.94886 392.169 9.18561 392.784 9.65909C393.404 10.1326 393.845 10.7576 394.105 11.5341ZM407.594 4.77273L402.907 22.1875H401.373L406.06 4.77273H407.594Z" fill="#436E99"/>
<path d="M418.761 4.45455H420.864L425.807 16.5284H425.977L430.92 4.45455H433.023V19H431.375V7.94886H431.233L426.688 19H425.097L420.551 7.94886H420.409V19H418.761V4.45455ZM440.759 19.2273C439.774 19.2273 438.91 18.9929 438.167 18.5241C437.428 18.0554 436.85 17.3996 436.434 16.5568C436.022 15.714 435.816 14.7292 435.816 13.6023C435.816 12.4659 436.022 11.474 436.434 10.6264C436.85 9.77888 437.428 9.12074 438.167 8.65199C438.91 8.18324 439.774 7.94886 440.759 7.94886C441.744 7.94886 442.605 8.18324 443.344 8.65199C444.087 9.12074 444.665 9.77888 445.077 10.6264C445.494 11.474 445.702 12.4659 445.702 13.6023C445.702 14.7292 445.494 15.714 445.077 16.5568C444.665 17.3996 444.087 18.0554 443.344 18.5241C442.605 18.9929 441.744 19.2273 440.759 19.2273ZM440.759 17.7216C441.507 17.7216 442.123 17.5298 442.605 17.1463C443.088 16.7628 443.446 16.2585 443.678 15.6335C443.91 15.0085 444.026 14.3314 444.026 13.6023C444.026 12.8731 443.91 12.1937 443.678 11.5639C443.446 10.9342 443.088 10.4252 442.605 10.0369C442.123 9.64867 441.507 9.45455 440.759 9.45455C440.011 9.45455 439.395 9.64867 438.912 10.0369C438.429 10.4252 438.072 10.9342 437.84 11.5639C437.608 12.1937 437.492 12.8731 437.492 13.6023C437.492 14.3314 437.608 15.0085 437.84 15.6335C438.072 16.2585 438.429 16.7628 438.912 17.1463C439.395 17.5298 440.011 17.7216 440.759 17.7216ZM439.992 6.61364L441.725 3.31818H443.685L441.469 6.61364H439.992ZM456.79 8.09091L452.756 19H451.052L447.018 8.09091H448.836L451.847 16.7841H451.961L454.972 8.09091H456.79ZM463.186 19.2273C462.135 19.2273 461.228 18.9953 460.466 18.5312C459.708 18.0625 459.124 17.4091 458.712 16.571C458.304 15.7282 458.101 14.7481 458.101 13.6307C458.101 12.5133 458.304 11.5284 458.712 10.6761C459.124 9.81913 459.696 9.15152 460.43 8.6733C461.169 8.19034 462.031 7.94886 463.016 7.94886C463.584 7.94886 464.145 8.04356 464.699 8.23295C465.253 8.42235 465.757 8.73011 466.212 9.15625C466.666 9.57765 467.028 10.1364 467.298 10.8324C467.568 11.5284 467.703 12.3854 467.703 13.4034V14.1136H459.294V12.6648H465.999C465.999 12.0492 465.875 11.5 465.629 11.017C465.388 10.5341 465.042 10.1529 464.592 9.87358C464.147 9.59422 463.622 9.45455 463.016 9.45455C462.348 9.45455 461.77 9.62026 461.283 9.9517C460.8 10.2784 460.428 10.7045 460.168 11.2301C459.907 11.7557 459.777 12.3191 459.777 12.9205V13.8864C459.777 14.7102 459.919 15.4086 460.203 15.9815C460.492 16.5497 460.892 16.983 461.403 17.2812C461.915 17.5748 462.509 17.7216 463.186 17.7216C463.626 17.7216 464.024 17.66 464.379 17.5369C464.739 17.4091 465.049 17.2197 465.31 16.9688C465.57 16.7131 465.771 16.3958 465.913 16.017L467.533 16.4716C467.362 17.0208 467.076 17.5038 466.673 17.9205C466.271 18.3324 465.774 18.6544 465.182 18.8864C464.59 19.1136 463.925 19.2273 463.186 19.2273ZM470.253 19V8.09091H471.929V19H470.253ZM471.105 6.27273C470.778 6.27273 470.497 6.16146 470.26 5.93892C470.028 5.71638 469.912 5.44886 469.912 5.13636C469.912 4.82386 470.028 4.55634 470.26 4.33381C470.497 4.11127 470.778 4 471.105 4C471.432 4 471.711 4.11127 471.943 4.33381C472.18 4.55634 472.298 4.82386 472.298 5.13636C472.298 5.44886 472.18 5.71638 471.943 5.93892C471.711 6.16146 471.432 6.27273 471.105 6.27273ZM482.726 10.5341L481.221 10.9602C481.126 10.7093 480.986 10.4654 480.801 10.2287C480.622 9.98722 480.375 9.78835 480.063 9.6321C479.75 9.47585 479.35 9.39773 478.863 9.39773C478.195 9.39773 477.639 9.55161 477.194 9.85938C476.753 10.1624 476.533 10.5483 476.533 11.017C476.533 11.4337 476.685 11.7628 476.988 12.0043C477.291 12.2457 477.764 12.447 478.408 12.608L480.027 13.0057C481.003 13.2424 481.73 13.6046 482.208 14.0923C482.686 14.5753 482.925 15.1979 482.925 15.9602C482.925 16.5852 482.745 17.1439 482.385 17.6364C482.03 18.1288 481.533 18.517 480.894 18.8011C480.255 19.0852 479.511 19.2273 478.664 19.2273C477.551 19.2273 476.63 18.9858 475.901 18.5028C475.172 18.0199 474.71 17.3144 474.516 16.3864L476.107 15.9886C476.258 16.5758 476.545 17.0161 476.966 17.3097C477.392 17.6032 477.949 17.75 478.635 17.75C479.417 17.75 480.037 17.5843 480.496 17.2528C480.96 16.9167 481.192 16.5142 481.192 16.0455C481.192 15.6667 481.06 15.3494 480.794 15.0938C480.529 14.8333 480.122 14.6392 479.573 14.5114L477.755 14.0852C476.756 13.8485 476.022 13.4815 475.553 12.9844C475.089 12.4825 474.857 11.8551 474.857 11.1023C474.857 10.4867 475.03 9.94223 475.375 9.46875C475.726 8.99527 476.202 8.62358 476.803 8.35369C477.409 8.08381 478.096 7.94886 478.863 7.94886C479.942 7.94886 480.79 8.18561 481.405 8.65909C482.025 9.13258 482.466 9.75758 482.726 10.5341ZM490.505 6.01705V4.45455H501.414V6.01705H496.84V19H495.079V6.01705H490.505ZM504.729 4.45455L509.047 16.6989H509.218L513.536 4.45455H515.382L510.042 19H508.223L502.882 4.45455H504.729Z" fill="#436E99"/>
<path d="M418.761 4.45455V3.95455H418.261V4.45455H418.761ZM420.864 4.45455L421.326 4.2651L421.199 3.95455H420.864V4.45455ZM425.807 16.5284L425.344 16.7179L425.471 17.0284H425.807V16.5284ZM425.977 16.5284V17.0284H426.313L426.44 16.7179L425.977 16.5284ZM430.92 4.45455V3.95455H430.585L430.458 4.2651L430.92 4.45455ZM433.023 4.45455H433.523V3.95455H433.023V4.45455ZM433.023 19V19.5H433.523V19H433.023ZM431.375 19H430.875V19.5H431.375V19ZM431.375 7.94886H431.875V7.44886H431.375V7.94886ZM431.233 7.94886V7.44886H430.898L430.771 7.75867L431.233 7.94886ZM426.688 19V19.5H427.022L427.15 19.1902L426.688 19ZM425.097 19L424.634 19.1902L424.762 19.5H425.097V19ZM420.551 7.94886L421.014 7.75867L420.886 7.44886H420.551V7.94886ZM420.409 7.94886V7.44886H419.909V7.94886H420.409ZM420.409 19V19.5H420.909V19H420.409ZM418.761 19H418.261V19.5H418.761V19ZM418.761 4.95455H420.864V3.95455H418.761V4.95455ZM420.401 4.64399L425.344 16.7179L426.27 16.339L421.326 4.2651L420.401 4.64399ZM425.807 17.0284H425.977V16.0284H425.807V17.0284ZM426.44 16.7179L431.383 4.64399L430.458 4.2651L425.515 16.339L426.44 16.7179ZM430.92 4.95455H433.023V3.95455H430.92V4.95455ZM432.523 4.45455V19H433.523V4.45455H432.523ZM433.023 18.5H431.375V19.5H433.023V18.5ZM431.875 19V7.94886H430.875V19H431.875ZM431.375 7.44886H431.233V8.44886H431.375V7.44886ZM430.771 7.75867L426.225 18.8098L427.15 19.1902L431.695 8.13906L430.771 7.75867ZM426.688 18.5H425.097V19.5H426.688V18.5ZM425.559 18.8098L421.014 7.75867L420.089 8.13906L424.634 19.1902L425.559 18.8098ZM420.551 7.44886H420.409V8.44886H420.551V7.44886ZM419.909 7.94886V19H420.909V7.94886H419.909ZM420.409 18.5H418.761V19.5H420.409V18.5ZM419.261 19V4.45455H418.261V19H419.261ZM438.167 18.5241L437.899 18.9463L437.9 18.9471L438.167 18.5241ZM436.434 16.5568L435.984 16.7764L435.985 16.7784L436.434 16.5568ZM436.434 10.6264L435.985 10.4058L435.984 10.4079L436.434 10.6264ZM438.167 8.65199L437.9 8.22905L437.899 8.22982L438.167 8.65199ZM443.344 8.65199L443.076 9.07415L443.077 9.07493L443.344 8.65199ZM445.077 10.6264L444.627 10.845L444.628 10.847L445.077 10.6264ZM445.077 16.5568L444.629 16.3352L444.628 16.3373L445.077 16.5568ZM443.344 18.5241L443.077 18.1012L443.076 18.102L443.344 18.5241ZM442.605 17.1463L442.295 16.7548L442.605 17.1463ZM443.678 15.6335L444.147 15.8075L443.678 15.6335ZM443.678 11.5639L444.147 11.3911L443.678 11.5639ZM442.605 10.0369L442.919 9.64724L442.605 10.0369ZM438.912 10.0369L438.599 9.64724L438.912 10.0369ZM437.84 11.5639L437.371 11.3911L437.84 11.5639ZM437.84 15.6335L437.371 15.8075L437.84 15.6335ZM438.912 17.1463L439.223 16.7548L438.912 17.1463ZM439.992 6.61364L439.549 6.38092L439.164 7.11364H439.992V6.61364ZM441.725 3.31818V2.81818H441.423L441.282 3.08547L441.725 3.31818ZM443.685 3.31818L444.1 3.59718L444.624 2.81818H443.685V3.31818ZM441.469 6.61364V7.11364H441.735L441.884 6.89263L441.469 6.61364ZM440.759 18.7273C439.857 18.7273 439.087 18.5137 438.433 18.1012L437.9 18.9471C438.732 19.4721 439.691 19.7273 440.759 19.7273V18.7273ZM438.434 18.102C437.779 17.686 437.261 17.1023 436.882 16.3352L435.985 16.7784C436.439 17.697 437.077 18.4248 437.899 18.9463L438.434 18.102ZM436.883 16.3373C436.51 15.5752 436.316 14.6682 436.316 13.6023H435.316C435.316 14.7901 435.533 15.8528 435.984 16.7764L436.883 16.3373ZM436.316 13.6023C436.316 12.5263 436.511 11.6118 436.883 10.845L435.984 10.4079C435.533 11.3361 435.316 12.4056 435.316 13.6023H436.316ZM436.882 10.847C437.262 10.0752 437.78 9.4897 438.434 9.07415L437.899 8.22982C437.076 8.75177 436.439 9.48256 435.985 10.4058L436.882 10.847ZM438.433 9.07493C439.087 8.66243 439.857 8.44886 440.759 8.44886V7.44886C439.691 7.44886 438.732 7.70405 437.9 8.22905L438.433 9.07493ZM440.759 8.44886C441.661 8.44886 442.427 8.66245 443.076 9.07415L443.612 8.22982C442.783 7.70403 441.826 7.44886 440.759 7.44886V8.44886ZM443.077 9.07493C443.736 9.49033 444.253 10.075 444.627 10.845L445.527 10.4079C445.077 9.48277 444.439 8.75115 443.611 8.22905L443.077 9.07493ZM444.628 10.847C445.005 11.6133 445.202 12.527 445.202 13.6023H446.202C446.202 12.4048 445.982 11.3346 445.526 10.4058L444.628 10.847ZM445.202 13.6023C445.202 14.6674 445.005 15.5737 444.629 16.3352L445.525 16.7784C445.982 15.8543 446.202 14.7909 446.202 13.6023H445.202ZM444.628 16.3373C444.254 17.1025 443.737 17.6854 443.077 18.1012L443.611 18.9471C444.438 18.4254 445.076 17.6967 445.526 16.7764L444.628 16.3373ZM443.076 18.102C442.427 18.5137 441.661 18.7273 440.759 18.7273V19.7273C441.826 19.7273 442.783 19.4721 443.612 18.9463L443.076 18.102ZM440.759 18.2216C441.595 18.2216 442.327 18.0056 442.916 17.5379L442.295 16.7548C441.918 17.054 441.419 17.2216 440.759 17.2216V18.2216ZM442.916 17.5379C443.477 17.093 443.886 16.5109 444.147 15.8075L443.209 15.4595C443.006 16.0061 442.7 16.4326 442.295 16.7548L442.916 17.5379ZM444.147 15.8075C444.401 15.1219 444.526 14.3853 444.526 13.6023H443.526C443.526 14.2776 443.419 14.8952 443.209 15.4595L444.147 15.8075ZM444.526 13.6023C444.526 12.8192 444.401 12.0808 444.147 11.3911L443.209 11.7368C443.419 12.3066 443.526 12.927 443.526 13.6023H444.526ZM444.147 11.3911C443.886 10.6836 443.478 10.097 442.919 9.64724L442.292 10.4266C442.699 10.7534 443.005 11.1848 443.209 11.7368L444.147 11.3911ZM442.919 9.64724C442.33 9.17365 441.596 8.95455 440.759 8.95455V9.95455C441.417 9.95455 441.915 10.1237 442.292 10.4266L442.919 9.64724ZM440.759 8.95455C439.921 8.95455 439.188 9.17365 438.599 9.64724L439.226 10.4266C439.602 10.1237 440.1 9.95455 440.759 9.95455V8.95455ZM438.599 9.64724C438.04 10.097 437.631 10.6836 437.371 11.3911L438.309 11.7368C438.512 11.1848 438.819 10.7534 439.226 10.4266L438.599 9.64724ZM437.371 11.3911C437.117 12.0808 436.992 12.8192 436.992 13.6023H437.992C437.992 12.927 438.099 12.3066 438.309 11.7368L437.371 11.3911ZM436.992 13.6023C436.992 14.3853 437.117 15.1219 437.371 15.8075L438.309 15.4595C438.099 14.8952 437.992 14.2776 437.992 13.6023H436.992ZM437.371 15.8075C437.632 16.5109 438.041 17.093 438.601 17.5379L439.223 16.7548C438.818 16.4326 438.512 16.0061 438.309 15.4595L437.371 15.8075ZM438.601 17.5379C439.19 18.0056 439.923 18.2216 440.759 18.2216V17.2216C440.099 17.2216 439.6 17.054 439.223 16.7548L438.601 17.5379ZM440.434 6.84635L442.167 3.5509L441.282 3.08547L439.549 6.38092L440.434 6.84635ZM441.725 3.81818H443.685V2.81818H441.725V3.81818ZM443.27 3.03918L441.054 6.33464L441.884 6.89263L444.1 3.59718L443.27 3.03918ZM441.469 6.11364H439.992V7.11364H441.469V6.11364ZM456.79 8.09091L457.259 8.26433L457.508 7.59091H456.79V8.09091ZM452.756 19V19.5H453.105L453.225 19.1734L452.756 19ZM451.052 19L450.583 19.1734L450.704 19.5H451.052V19ZM447.018 8.09091V7.59091H446.3L446.549 8.26433L447.018 8.09091ZM448.836 8.09091L449.308 7.92725L449.192 7.59091H448.836V8.09091ZM451.847 16.7841L451.375 16.9478L451.491 17.2841H451.847V16.7841ZM451.961 16.7841V17.2841H452.317L452.433 16.9478L451.961 16.7841ZM454.972 8.09091V7.59091H454.616L454.5 7.92725L454.972 8.09091ZM456.322 7.91749L452.287 18.8266L453.225 19.1734L457.259 8.26433L456.322 7.91749ZM452.756 18.5H451.052V19.5H452.756V18.5ZM451.521 18.8266L447.487 7.91749L446.549 8.26433L450.583 19.1734L451.521 18.8266ZM447.018 8.59091H448.836V7.59091H447.018V8.59091ZM448.363 8.25457L451.375 16.9478L452.32 16.6204L449.308 7.92725L448.363 8.25457ZM451.847 17.2841H451.961V16.2841H451.847V17.2841ZM452.433 16.9478L455.445 8.25457L454.5 7.92725L451.488 16.6204L452.433 16.9478ZM454.972 8.59091H456.79V7.59091H454.972V8.59091ZM460.466 18.5312L460.203 18.9565L460.206 18.9583L460.466 18.5312ZM458.712 16.571L458.261 16.7885L458.263 16.7916L458.712 16.571ZM458.712 10.6761L458.261 10.4595L458.26 10.4606L458.712 10.6761ZM460.43 8.6733L460.703 9.09221L460.704 9.09178L460.43 8.6733ZM464.699 8.23295L464.861 7.75984L464.699 8.23295ZM466.212 9.15625L465.87 9.52102L465.872 9.52292L466.212 9.15625ZM467.298 10.8324L467.764 10.6516V10.6516L467.298 10.8324ZM467.703 14.1136V14.6136H468.203V14.1136H467.703ZM459.294 14.1136H458.794V14.6136H459.294V14.1136ZM459.294 12.6648V12.1648H458.794V12.6648H459.294ZM465.999 12.6648V13.1648H466.499V12.6648H465.999ZM465.629 11.017L465.182 11.2407L465.184 11.2441L465.629 11.017ZM464.592 9.87358L464.327 10.2971L464.329 10.2983L464.592 9.87358ZM461.283 9.9517L461.563 10.3658L461.564 10.3652L461.283 9.9517ZM460.168 11.2301L459.72 11.0081L460.168 11.2301ZM460.203 15.9815L459.755 16.2037L459.757 16.2081L460.203 15.9815ZM461.403 17.2812L461.151 17.7132L461.154 17.7149L461.403 17.2812ZM464.379 17.5369L464.543 18.0094L464.547 18.0081L464.379 17.5369ZM465.31 16.9688L465.657 17.3288L465.66 17.3255L465.31 16.9688ZM465.913 16.017L466.048 15.5357L465.606 15.4116L465.445 15.8415L465.913 16.017ZM467.533 16.4716L468.01 16.6198L468.162 16.1291L467.668 15.9902L467.533 16.4716ZM466.673 17.9205L467.031 18.2699L467.033 18.2678L466.673 17.9205ZM465.182 18.8864L465.361 19.3531L465.364 19.3519L465.182 18.8864ZM463.186 18.7273C462.21 18.7273 461.397 18.5126 460.726 18.1042L460.206 18.9583C461.06 19.478 462.06 19.7273 463.186 19.7273V18.7273ZM460.729 18.1061C460.055 17.6892 459.533 17.1085 459.16 16.3505L458.263 16.7916C458.714 17.7097 459.361 18.4358 460.203 18.9564L460.729 18.1061ZM459.162 16.3535C458.793 15.5904 458.601 14.6872 458.601 13.6307H457.601C457.601 14.809 457.816 15.866 458.261 16.7885L459.162 16.3535ZM458.601 13.6307C458.601 12.5743 458.793 11.6654 459.163 10.8917L458.26 10.4606C457.816 11.3914 457.601 12.4522 457.601 13.6307H458.601ZM459.162 10.8927C459.538 10.1109 460.053 9.51626 460.703 9.09221L460.157 8.25438C459.34 8.78677 458.709 9.52741 458.261 10.4595L459.162 10.8927ZM460.704 9.09178C461.352 8.66806 462.116 8.44886 463.016 8.44886V7.44886C461.945 7.44886 460.986 7.71262 460.157 8.25481L460.704 9.09178ZM463.016 8.44886C463.527 8.44886 464.034 8.53393 464.537 8.70607L464.861 7.75984C464.256 7.55319 463.641 7.44886 463.016 7.44886V8.44886ZM464.537 8.70607C465.02 8.87108 465.463 9.14019 465.87 9.52102L466.554 8.79148C466.051 8.32003 465.486 7.97362 464.861 7.75984L464.537 8.70607ZM465.872 9.52292C466.26 9.88325 466.584 10.3736 466.832 11.0132L467.764 10.6516C467.473 9.89912 467.072 9.27205 466.552 8.78958L465.872 9.52292ZM466.832 11.0132C467.073 11.6347 467.203 12.4262 467.203 13.4034H468.203C468.203 12.3446 468.063 11.4221 467.764 10.6516L466.832 11.0132ZM467.203 13.4034V14.1136H468.203V13.4034H467.203ZM467.703 13.6136H459.294V14.6136H467.703V13.6136ZM459.794 14.1136V12.6648H458.794V14.1136H459.794ZM459.294 13.1648H465.999V12.1648H459.294V13.1648ZM466.499 12.6648C466.499 11.9811 466.361 11.3522 466.075 10.79L465.184 11.2441C465.39 11.6478 465.499 12.1174 465.499 12.6648H466.499ZM466.076 10.7934C465.794 10.2295 465.386 9.77798 464.856 9.44883L464.329 10.2983C464.698 10.5279 464.981 10.8387 465.182 11.2407L466.076 10.7934ZM464.858 9.45009C464.322 9.11345 463.701 8.95455 463.016 8.95455V9.95455C463.542 9.95455 463.973 10.075 464.327 10.2971L464.858 9.45009ZM463.016 8.95455C462.261 8.95455 461.583 9.14314 461.002 9.53817L461.564 10.3652C461.958 10.0974 462.435 9.95455 463.016 9.95455V8.95455ZM461.003 9.53756C460.447 9.91302 460.018 10.4055 459.72 11.0081L460.616 11.4521C460.838 11.0035 461.152 10.6438 461.563 10.3658L461.003 9.53756ZM459.72 11.0081C459.424 11.6045 459.277 12.2441 459.277 12.9205H460.277C460.277 12.3941 460.39 11.9069 460.616 11.4521L459.72 11.0081ZM459.277 12.9205V13.8864H460.277V12.9205H459.277ZM459.277 13.8864C459.277 14.7658 459.428 15.5447 459.755 16.2037L460.651 15.7594C460.41 15.2725 460.277 14.6546 460.277 13.8864H459.277ZM459.757 16.2081C460.086 16.8551 460.551 17.3627 461.151 17.7131L461.655 16.8494C461.233 16.6032 460.898 16.2444 460.649 15.755L459.757 16.2081ZM461.154 17.7149C461.752 18.058 462.435 18.2216 463.186 18.2216V17.2216C462.583 17.2216 462.077 17.0916 461.652 16.8476L461.154 17.7149ZM463.186 18.2216C463.673 18.2216 464.127 18.1535 464.543 18.0093L464.215 17.0645C463.921 17.1665 463.58 17.2216 463.186 17.2216V18.2216ZM464.547 18.0081C464.97 17.8578 465.342 17.6319 465.657 17.3288L464.963 16.6087C464.756 16.8075 464.508 16.9604 464.212 17.0658L464.547 18.0081ZM465.66 17.3255C465.978 17.0135 466.217 16.6322 466.382 16.1926L465.445 15.8415C465.326 16.1595 465.162 16.4127 464.959 16.612L465.66 17.3255ZM465.778 16.4984L467.398 16.953L467.668 15.9902L466.048 15.5357L465.778 16.4984ZM467.055 16.3234C466.908 16.7974 466.662 17.2122 466.314 17.5731L467.033 18.2678C467.489 17.7953 467.816 17.2443 468.01 16.6198L467.055 16.3234ZM466.316 17.571C465.968 17.9273 465.532 18.212 464.999 18.4209L465.364 19.3519C466.015 19.0967 466.574 18.7375 467.031 18.2699L466.316 17.571ZM465.003 18.4196C464.477 18.6216 463.873 18.7273 463.186 18.7273V19.7273C463.976 19.7273 464.703 19.6057 465.361 19.3531L465.003 18.4196ZM470.253 19H469.753V19.5H470.253V19ZM470.253 8.09091V7.59091H469.753V8.09091H470.253ZM471.929 8.09091H472.429V7.59091H471.929V8.09091ZM471.929 19V19.5H472.429V19H471.929ZM470.26 5.93892L469.914 6.29978L469.917 6.30323L470.26 5.93892ZM470.26 4.33381L469.917 3.96947L469.914 3.97297L470.26 4.33381ZM471.943 4.33381L471.597 4.69467L471.601 4.69812L471.943 4.33381ZM471.943 5.93892L471.601 5.57459L471.597 5.57808L471.943 5.93892ZM470.753 19V8.09091H469.753V19H470.753ZM470.253 8.59091H471.929V7.59091H470.253V8.59091ZM471.429 8.09091V19H472.429V8.09091H471.429ZM471.929 18.5H470.253V19.5H471.929V18.5ZM471.105 5.77273C470.905 5.77273 470.746 5.70945 470.602 5.57461L469.917 6.30323C470.248 6.61347 470.652 6.77273 471.105 6.77273V5.77273ZM470.606 5.57808C470.469 5.44678 470.412 5.30829 470.412 5.13636H469.412C469.412 5.58943 469.587 5.98598 469.914 6.29976L470.606 5.57808ZM470.412 5.13636C470.412 4.96443 470.469 4.82594 470.606 4.69465L469.914 3.97297C469.587 4.28675 469.412 4.68329 469.412 5.13636H470.412ZM470.602 4.69812C470.746 4.56328 470.905 4.5 471.105 4.5V3.5C470.652 3.5 470.248 3.65926 469.917 3.96949L470.602 4.69812ZM471.105 4.5C471.305 4.5 471.46 4.56301 471.597 4.69465L472.289 3.97297C471.963 3.65952 471.558 3.5 471.105 3.5V4.5ZM471.601 4.69812C471.741 4.83039 471.798 4.9679 471.798 5.13636H472.798C472.798 4.67983 472.618 4.2823 472.286 3.96949L471.601 4.69812ZM471.798 5.13636C471.798 5.30483 471.741 5.44234 471.601 5.57461L472.286 6.30323C472.618 5.99043 472.798 5.5929 472.798 5.13636H471.798ZM471.597 5.57808C471.46 5.70971 471.305 5.77273 471.105 5.77273V6.77273C471.558 6.77273 471.963 6.6132 472.289 6.29976L471.597 5.57808ZM482.726 10.5341L482.862 11.0152L483.367 10.8724L483.2 10.3751L482.726 10.5341ZM481.221 10.9602L480.753 11.1368L480.915 11.5664L481.357 11.4413L481.221 10.9602ZM480.801 10.2287L480.4 10.5275L480.407 10.5362L480.801 10.2287ZM480.063 9.6321L480.286 9.18489L480.063 9.6321ZM477.194 9.85938L477.477 10.2713L477.478 10.2706L477.194 9.85938ZM476.988 12.0043L476.676 12.3953L476.988 12.0043ZM478.408 12.608L478.287 13.093L478.289 13.0935L478.408 12.608ZM480.027 13.0057L479.908 13.4913L479.909 13.4916L480.027 13.0057ZM482.208 14.0923L481.851 14.4424L481.852 14.4441L482.208 14.0923ZM482.385 17.6364L481.982 17.3413L481.98 17.3439L482.385 17.6364ZM475.901 18.5028L476.177 18.086L475.901 18.5028ZM474.516 16.3864L474.395 15.9013L473.928 16.0179L474.027 16.4887L474.516 16.3864ZM476.107 15.9886L476.591 15.8637L476.467 15.3832L475.986 15.5036L476.107 15.9886ZM476.966 17.3097L476.68 17.7199L476.683 17.7214L476.966 17.3097ZM480.496 17.2528L480.789 17.6583L480.789 17.6577L480.496 17.2528ZM480.794 15.0938L480.444 15.4505L480.447 15.4537L480.794 15.0938ZM479.573 14.5114L479.459 14.9982L479.459 14.9983L479.573 14.5114ZM477.755 14.0852L477.639 14.5718L477.641 14.572L477.755 14.0852ZM475.553 12.9844L475.186 13.3238L475.189 13.3274L475.553 12.9844ZM475.375 9.46875L474.973 9.17132L474.972 9.17394L475.375 9.46875ZM476.803 8.35369L476.6 7.89693L476.598 7.89753L476.803 8.35369ZM481.405 8.65909L481.1 9.0554L481.102 9.05653L481.405 8.65909ZM482.59 10.053L481.084 10.4791L481.357 11.4413L482.862 11.0152L482.59 10.053ZM481.688 10.7837C481.574 10.4804 481.408 10.1929 481.196 9.92118L480.407 10.5362C480.565 10.7379 480.678 10.9382 480.753 11.1368L481.688 10.7837ZM481.202 9.92995C480.969 9.61648 480.658 9.37049 480.286 9.18489L479.839 10.0793C480.093 10.2062 480.274 10.358 480.401 10.5274L481.202 9.92995ZM480.286 9.18489C479.883 8.98297 479.399 8.89773 478.863 8.89773V9.89773C479.302 9.89773 479.618 9.96873 479.839 10.0793L480.286 9.18489ZM478.863 8.89773C478.117 8.89773 477.456 9.07028 476.909 9.44812L477.478 10.2706C477.822 10.0329 478.273 9.89773 478.863 9.89773V8.89773ZM476.91 9.44748C476.356 9.82862 476.033 10.3586 476.033 11.017H477.033C477.033 10.738 477.15 10.4962 477.477 10.2713L476.91 9.44748ZM476.033 11.017C476.033 11.5728 476.244 12.051 476.676 12.3953L477.299 11.6132C477.125 11.4745 477.033 11.2947 477.033 11.017H476.033ZM476.676 12.3953C477.061 12.7024 477.616 12.9254 478.287 13.093L478.529 12.1229C477.912 11.9686 477.52 11.789 477.299 11.6132L476.676 12.3953ZM478.289 13.0935L479.908 13.4913L480.147 12.5201L478.527 12.1224L478.289 13.0935ZM479.909 13.4916C480.834 13.716 481.462 14.0458 481.851 14.4424L482.565 13.7423C481.997 13.1635 481.171 12.7689 480.145 12.5198L479.909 13.4916ZM481.852 14.4441C482.226 14.8217 482.425 15.3122 482.425 15.9602H483.425C483.425 15.0836 483.146 14.3288 482.563 13.7405L481.852 14.4441ZM482.425 15.9602C482.425 16.482 482.277 16.9368 481.982 17.3414L482.789 17.9314C483.213 17.3511 483.425 16.6885 483.425 15.9602H482.425ZM481.98 17.3439C481.684 17.7542 481.262 18.0905 480.691 18.3442L481.097 19.258C481.804 18.9436 482.377 18.5033 482.791 17.9288L481.98 17.3439ZM480.691 18.3442C480.128 18.5946 479.456 18.7273 478.664 18.7273V19.7273C479.567 19.7273 480.382 19.5759 481.097 19.258L480.691 18.3442ZM478.664 18.7273C477.623 18.7273 476.805 18.5017 476.177 18.086L475.625 18.9197C476.456 19.4699 477.479 19.7273 478.664 19.7273V18.7273ZM476.177 18.086C475.567 17.6822 475.175 17.0951 475.005 16.284L474.027 16.4887C474.245 17.5337 474.776 18.3576 475.625 18.9197L476.177 18.086ZM474.637 16.8714L476.228 16.4737L475.986 15.5036L474.395 15.9013L474.637 16.8714ZM475.623 16.1136C475.798 16.7945 476.144 17.3461 476.68 17.7199L477.252 16.8994C476.946 16.6861 476.718 16.3571 476.591 15.8637L475.623 16.1136ZM476.683 17.7214C477.216 18.0885 477.88 18.25 478.635 18.25V17.25C478.017 17.25 477.569 17.1179 477.25 16.8979L476.683 17.7214ZM478.635 18.25C479.483 18.25 480.217 18.0706 480.789 17.6583L480.204 16.8474C479.856 17.0979 479.35 17.25 478.635 17.25V18.25ZM480.789 17.6577C481.351 17.251 481.692 16.7108 481.692 16.0455H480.692C480.692 16.3176 480.569 16.5823 480.203 16.8479L480.789 17.6577ZM481.692 16.0455C481.692 15.5352 481.507 15.0867 481.141 14.7338L480.447 15.4537C480.612 15.6122 480.692 15.7981 480.692 16.0455H481.692ZM481.145 14.737C480.789 14.3871 480.282 14.1631 479.686 14.0244L479.459 14.9983C479.962 15.1153 480.27 15.2795 480.444 15.4505L481.145 14.737ZM479.687 14.0246L477.869 13.5984L477.641 14.572L479.459 14.9982L479.687 14.0246ZM477.87 13.5987C476.921 13.3739 476.293 13.0401 475.917 12.6414L475.189 13.3274C475.751 13.923 476.59 14.3231 477.639 14.5718L477.87 13.5987ZM475.92 12.6449C475.55 12.2451 475.357 11.7431 475.357 11.1023H474.357C474.357 11.9671 474.627 12.7198 475.186 13.3238L475.92 12.6449ZM475.357 11.1023C475.357 10.5871 475.499 10.147 475.779 9.76356L474.972 9.17394C474.56 9.73747 474.357 10.3864 474.357 11.1023H475.357ZM475.777 9.76617C476.071 9.36955 476.475 9.04888 477.008 8.80985L476.598 7.89753C475.928 8.19828 475.381 8.62098 474.973 9.17133L475.777 9.76617ZM477.006 8.81045C477.539 8.57319 478.155 8.44886 478.863 8.44886V7.44886C478.036 7.44886 477.279 7.59442 476.6 7.89693L477.006 8.81045ZM478.863 8.44886C479.874 8.44886 480.601 8.67101 481.1 9.0554L481.71 8.26278C480.979 7.7002 480.01 7.44886 478.863 7.44886V8.44886ZM481.102 9.05653C481.639 9.46627 482.022 10.0063 482.252 10.6931L483.2 10.3751C482.91 9.5088 482.412 8.79888 481.709 8.26165L481.102 9.05653ZM490.505 6.01705H490.005V6.51705H490.505V6.01705ZM490.505 4.45455V3.95455H490.005V4.45455H490.505ZM501.414 4.45455H501.914V3.95455H501.414V4.45455ZM501.414 6.01705V6.51705H501.914V6.01705H501.414ZM496.84 6.01705V5.51705H496.34V6.01705H496.84ZM496.84 19V19.5H497.34V19H496.84ZM495.079 19H494.579V19.5H495.079V19ZM495.079 6.01705H495.579V5.51705H495.079V6.01705ZM491.005 6.01705V4.45455H490.005V6.01705H491.005ZM490.505 4.95455H501.414V3.95455H490.505V4.95455ZM500.914 4.45455V6.01705H501.914V4.45455H500.914ZM501.414 5.51705H496.84V6.51705H501.414V5.51705ZM496.34 6.01705V19H497.34V6.01705H496.34ZM496.84 18.5H495.079V19.5H496.84V18.5ZM495.579 19V6.01705H494.579V19H495.579ZM495.079 5.51705H490.505V6.51705H495.079V5.51705ZM504.729 4.45455L505.201 4.28825L505.083 3.95455H504.729V4.45455ZM509.047 16.6989L508.576 16.8652L508.693 17.1989H509.047V16.6989ZM509.218 16.6989V17.1989H509.572L509.689 16.8652L509.218 16.6989ZM513.536 4.45455V3.95455H513.182L513.064 4.28825L513.536 4.45455ZM515.382 4.45455L515.852 4.62689L516.099 3.95455H515.382V4.45455ZM510.042 19V19.5H510.391L510.511 19.1723L510.042 19ZM508.223 19L507.754 19.1723L507.874 19.5H508.223V19ZM502.882 4.45455V3.95455H502.166L502.413 4.62689L502.882 4.45455ZM504.258 4.62084L508.576 16.8652L509.519 16.5326L505.201 4.28825L504.258 4.62084ZM509.047 17.1989H509.218V16.1989H509.047V17.1989ZM509.689 16.8652L514.007 4.62084L513.064 4.28825L508.746 16.5326L509.689 16.8652ZM513.536 4.95455H515.382V3.95455H513.536V4.95455ZM514.913 4.2822L509.572 18.8277L510.511 19.1723L515.852 4.62689L514.913 4.2822ZM510.042 18.5H508.223V19.5H510.042V18.5ZM508.693 18.8277L503.352 4.2822L502.413 4.62689L507.754 19.1723L508.693 18.8277ZM502.882 4.95455H504.729V3.95455H502.882V4.95455Z" fill="#436E99"/>
</svg>
