<svg width="42" height="17" viewBox="0 0 42 17" fill="none" xmlns="http://www.w3.org/2000/svg">
<rect width="42" height="17" rx="8.5" fill="#436E99"/>
<path d="M21.22 13.9067C20.8024 13.9 20.3848 13.8205 19.9672 13.668C19.5495 13.5156 19.1684 13.2587 18.8237 12.8974C18.479 12.5328 18.2022 12.0407 17.9934 11.4209C17.7846 10.7978 17.6802 10.0156 17.6802 9.07427C17.6802 8.17276 17.7647 7.37399 17.9338 6.67797C18.1028 5.97863 18.3481 5.39033 18.6696 4.91305C18.9911 4.43247 19.3789 4.06788 19.8329 3.8193C20.2903 3.57072 20.8057 3.44643 21.3791 3.44643C21.9492 3.44643 22.4563 3.56078 22.9004 3.78947C23.3478 4.01485 23.7124 4.32972 23.9942 4.73408C24.2759 5.13843 24.4582 5.6041 24.541 6.13109H23.328C23.2153 5.67371 22.9965 5.29421 22.6717 4.9926C22.3469 4.69099 21.916 4.54018 21.3791 4.54018C20.5903 4.54018 19.9688 4.88322 19.5147 5.5693C19.064 6.25538 18.837 7.21821 18.8336 8.4578H18.9132C19.0988 8.17607 19.3192 7.93578 19.5744 7.73692C19.8329 7.53474 20.118 7.37896 20.4295 7.26959C20.7411 7.16021 21.0709 7.10552 21.4189 7.10552C22.0022 7.10552 22.5358 7.25136 23.0197 7.54302C23.5036 7.83138 23.8914 8.23076 24.1831 8.74118C24.4747 9.24828 24.6206 9.82996 24.6206 10.4862C24.6206 11.1159 24.4797 11.6926 24.198 12.2163C23.9163 12.7367 23.5202 13.151 23.0098 13.4592C22.5027 13.7641 21.9061 13.9133 21.22 13.9067ZM21.22 12.8129C21.6376 12.8129 22.0121 12.7085 22.3436 12.4997C22.6783 12.2909 22.9418 12.0108 23.1341 11.6595C23.3296 11.3082 23.4274 10.9171 23.4274 10.4862C23.4274 10.0653 23.3329 9.68247 23.144 9.33777C22.9584 8.98976 22.7015 8.71301 22.3734 8.50751C22.0486 8.30202 21.6774 8.19927 21.2598 8.19927C20.9449 8.19927 20.6516 8.26225 20.3798 8.38819C20.108 8.51083 19.8694 8.67986 19.6639 8.8953C19.4617 9.11073 19.3026 9.35765 19.1866 9.63606C19.0706 9.91116 19.0126 10.2012 19.0126 10.5061C19.0126 10.9104 19.1071 11.2883 19.296 11.6396C19.4882 11.9909 19.7501 12.2743 20.0815 12.4898C20.4163 12.7052 20.7958 12.8129 21.22 12.8129Z" fill="#F4F4F2"/>
</svg>
