<svg width="42" height="17" viewBox="0 0 42 17" fill="none" xmlns="http://www.w3.org/2000/svg">
<rect width="42" height="17" rx="8.5" fill="#A1B1A7"/>
<path d="M21.2195 13.9067C20.8019 13.9 20.3843 13.8205 19.9667 13.668C19.5491 13.5156 19.1679 13.2587 18.8232 12.8974C18.4785 12.5328 18.2018 12.0407 17.993 11.4209C17.7841 10.7978 17.6797 10.0156 17.6797 9.07427C17.6797 8.17276 17.7643 7.37399 17.9333 6.67797C18.1023 5.97863 18.3476 5.39033 18.6691 4.91305C18.9906 4.43247 19.3784 4.06788 19.8324 3.8193C20.2898 3.57072 20.8052 3.44643 21.3786 3.44643C21.9487 3.44643 22.4558 3.56078 22.8999 3.78947C23.3474 4.01485 23.7119 4.32972 23.9937 4.73408C24.2754 5.13843 24.4577 5.6041 24.5405 6.13109H23.3275C23.2148 5.67371 22.996 5.29421 22.6712 4.9926C22.3464 4.69099 21.9155 4.54018 21.3786 4.54018C20.5898 4.54018 19.9683 4.88322 19.5143 5.5693C19.0635 6.25538 18.8365 7.21821 18.8332 8.4578H18.9127C19.0983 8.17607 19.3187 7.93578 19.5739 7.73692C19.8324 7.53474 20.1175 7.37896 20.429 7.26959C20.7406 7.16021 21.0704 7.10552 21.4184 7.10552C22.0017 7.10552 22.5353 7.25136 23.0192 7.54302C23.5031 7.83138 23.8909 8.23076 24.1826 8.74118C24.4743 9.24828 24.6201 9.82996 24.6201 10.4862C24.6201 11.1159 24.4792 11.6926 24.1975 12.2163C23.9158 12.7367 23.5197 13.151 23.0093 13.4592C22.5022 13.7641 21.9056 13.9133 21.2195 13.9067ZM21.2195 12.8129C21.6371 12.8129 22.0117 12.7085 22.3431 12.4997C22.6778 12.2909 22.9413 12.0108 23.1336 11.6595C23.3291 11.3082 23.4269 10.9171 23.4269 10.4862C23.4269 10.0653 23.3324 9.68247 23.1435 9.33777C22.9579 8.98976 22.7011 8.71301 22.3729 8.50751C22.0481 8.30202 21.6769 8.19927 21.2593 8.19927C20.9444 8.19927 20.6511 8.26225 20.3793 8.38819C20.1075 8.51083 19.8689 8.67986 19.6634 8.8953C19.4612 9.11073 19.3021 9.35765 19.1861 9.63606C19.0701 9.91116 19.0121 10.2012 19.0121 10.5061C19.0121 10.9104 19.1066 11.2883 19.2955 11.6396C19.4877 11.9909 19.7496 12.2743 20.081 12.4898C20.4158 12.7052 20.7953 12.8129 21.2195 12.8129Z" fill="#F4F4F2"/>
</svg>
